<svg xmlns="http://www.w3.org/2000/svg" width="24" height="24" viewBox="0 0 24 24">
  <g>
    <path d="M6,15.5 L16.75,15.5 C17.7164983,15.5 18.5,14.7164983 18.5,13.75 C18.5,12.7835017 17.7164983,12 16.75,12 C16.4092052,12 16.0846422,12.0968321 15.8050367,12.2766999 C15.2396776,12.6403905 14.5182216,12.1339438 14.6681714,11.4786449 C14.7223622,11.2418241 14.75,10.9979854 14.75,10.75 C14.75,8.95507456 13.2949254,7.5 11.5,7.5 C9.8895879,7.5 8.52821764,8.6791992 8.28751168,10.2539431 C8.20905473,10.7672233 7.64533932,11.0474088 7.18881129,10.8000341 C6.82704751,10.6040084 6.4218847,10.5 6,10.5 C4.61928813,10.5 3.5,11.6192881 3.5,13 C3.5,14.3807119 4.61928813,15.5 6,15.5 Z M16.75,10.5 C18.5449254,10.5 20,11.9550746 20,13.75 C20,15.5449254 18.5449254,17 16.75,17 L6,17 C3.790861,17 2,15.209139 2,13 C2,10.790861 3.790861,9 6,9 C6.35233656,9 6.69852051,9.0457715 7.03162602,9.13447154 C7.69690206,7.29180264 9.46158001,6 11.5,6 C14.052665,6 16.1350323,8.0135844 16.2453997,10.5390512 C16.41098,10.5131953 16.579582,10.5 16.75,10.5 Z"/>
    <path d="M17.8030425 11.6193008C19.1475775 10.9394368 20.0139617 9.55948016 20.0139617 8.02530767 20.0139617 5.80219163 18.2117701 4 15.9886541 4 14.3889064 4 12.9607234 4.94207388 12.3159867 6.37572119 12.1460967 6.75349133 12.3146169 7.19745756 12.692387 7.36734752 13.0701571 7.53723748 13.5141234 7.36871731 13.6840133 6.99094717 14.0887422 6.09098529 14.9846753 5.5 15.9886541 5.5 17.383343 5.5 18.5139617 6.63061875 18.5139617 8.02530767 18.5139617 8.98827236 17.9706084 9.85371296 17.1261785 10.2806988 16.7565338 10.4676096 16.6083987 10.9187871 16.7953095 11.2884318 16.9822203 11.6580765 17.4333977 11.8062116 17.8030425 11.6193008zM15.4796565.729907657L15.7401288 2.20711929C15.913777 3.19192704 14.4365653 3.45239931 14.2629172 2.46759155L14.0024449.990379924C13.8287967.0055721709 15.3060083-.254900096 15.4796565.729907657zM20.7727932 2.49133001L19.9124285 3.72005807C19.3388521 4.53921012 18.110124 3.67884546 18.6837005 2.85969342L19.5440651 1.63096535C20.1176416.811813307 21.3463696 1.67217796 20.7727932 2.49133001zM10.49133 3.2272068L11.7200581 4.08757146C12.5392101 4.66114789 11.6788455 5.88987596 10.8596934 5.31629952L9.63096535 4.45593487C8.81181331 3.88235843 9.67217796 2.65363037 10.49133 3.2272068zM21.1403066 10.6837005L22.3690346 11.5440651C23.1881867 12.1176416 22.327822 13.3463696 21.50867 12.7727932L20.2799419 11.9124285C19.4607899 11.3388521 20.3211545 10.110124 21.1403066 10.6837005zM23.2700923 7.47965653L21.7928807 7.74012879C20.808073 7.91377697 20.5476007 6.43656534 21.5324084 6.26291716L23.0096201 6.0024449C23.9944278 5.82879672 24.2549001 7.30600835 23.2700923 7.47965653zM4.56046253 18.4521702L3.06046253 21.9580296C2.89752629 22.3388506 3.07415681 22.779653 3.45497784 22.9425892 3.83579887 23.1055255 4.27660123 22.9288949 4.43953747 22.5480739L5.93953747 19.0422145C6.10247371 18.6613935 5.92584319 18.2205912 5.54502216 18.0576549 5.16420113 17.8947187 4.72339877 18.0713492 4.56046253 18.4521702zM8.56046253 18.4521702L7.06046253 21.9580296C6.89752629 22.3388506 7.07415681 22.779653 7.45497784 22.9425892 7.83579887 23.1055255 8.27660123 22.9288949 8.43953747 22.5480739L9.93953747 19.0422145C10.1024737 18.6613935 9.92584319 18.2205912 9.54502216 18.0576549 9.16420113 17.8947187 8.72339877 18.0713492 8.56046253 18.4521702zM12.5604625 18.4521702L11.0604625 21.9580296C10.8975263 22.3388506 11.0741568 22.779653 11.4549778 22.9425892 11.8357989 23.1055255 12.2766012 22.9288949 12.4395375 22.5480739L13.9395375 19.0422145C14.1024737 18.6613935 13.9258432 18.2205912 13.5450222 18.0576549 13.1642011 17.8947187 12.7233988 18.0713492 12.5604625 18.4521702zM16.5604625 18.4521702L15.0604625 21.9580296C14.8975263 22.3388506 15.0741568 22.779653 15.4549778 22.9425892 15.8357989 23.1055255 16.2766012 22.9288949 16.4395375 22.5480739L17.9395375 19.0422145C18.1024737 18.6613935 17.9258432 18.2205912 17.5450222 18.0576549 17.1642011 17.8947187 16.7233988 18.0713492 16.5604625 18.4521702z"/>
  </g>
</svg>
