<svg xmlns="http://www.w3.org/2000/svg" width="24" height="24" viewBox="0 0 24 24">
  <g>
    <path d="M3.21908468,10.5272904 C6.15072574,10.5272904 8.52729039,8.15072574 8.52729039,5.21908468 C8.52729039,5.06862977 8.52101259,4.91900374 8.50856738,4.77050233 C9.29848126,5.51950783 9.7750001,6.57417427 9.7750001,7.71679439 C9.7750001,8.18689408 9.69530617,8.64520803 9.54126298,9.07798254 C9.4255131,9.40317447 9.59529942,9.76062844 9.92049135,9.87637833 C10.2456833,9.99212822 10.6031373,9.82234189 10.7188871,9.49714996 C10.9206599,8.93028241 11.0250001,8.3302293 11.0250001,7.71679439 C11.0250001,5.56264273 9.72978739,3.64728438 7.77883463,2.82415502 C7.26216482,2.6061661 6.74204498,3.12628594 6.9600339,3.64295574 C7.16850503,4.1370668 7.27729039,4.66992636 7.27729039,5.21908468 C7.27729039,7.46036981 5.46036981,9.27729039 3.21908468,9.27729039 C2.66992636,9.27729039 2.1370668,9.16850503 1.64295574,8.9600339 C1.12628594,8.74204498 0.606166096,9.26216482 0.824155018,9.77883463 C1.48865446,11.3538082 2.88100981,12.5238138 4.55630302,12.8976262 C4.89319622,12.972798 5.22724092,12.7606309 5.30241275,12.4237377 C5.37758458,12.0868445 5.1654175,11.7527998 4.8285243,11.677628 C4.03245161,11.4999983 3.31908801,11.086103 2.77138584,10.5086413 C2.9195972,10.5210375 3.06892814,10.5272904 3.21908468,10.5272904 Z"/>
    <path d="M8,16.5 L18.75,16.5 C19.7164983,16.5 20.5,15.7164983 20.5,14.75 C20.5,13.7835017 19.7164983,13 18.75,13 C18.4092052,13 18.0846422,13.0968321 17.8050367,13.2766999 C17.2396776,13.6403905 16.5182216,13.1339438 16.6681714,12.4786449 C16.7223622,12.2418241 16.75,11.9979854 16.75,11.75 C16.75,9.95507456 15.2949254,8.5 13.5,8.5 C11.8895879,8.5 10.5282176,9.6791992 10.2875117,11.2539431 C10.2090547,11.7672233 9.64533932,12.0474088 9.18881129,11.8000341 C8.82704751,11.6040084 8.4218847,11.5 8,11.5 C6.61928813,11.5 5.5,12.6192881 5.5,14 C5.5,15.3807119 6.61928813,16.5 8,16.5 Z M18.75,11.5 C20.5449254,11.5 22,12.9550746 22,14.75 C22,16.5449254 20.5449254,18 18.75,18 L8,18 C5.790861,18 4,16.209139 4,14 C4,11.790861 5.790861,10 8,10 C8.35233656,10 8.69852051,10.0457715 9.03162602,10.1344715 C9.69690206,8.29180264 11.46158,7 13.5,7 C16.052665,7 18.1350323,9.0135844 18.2453997,11.5390512 C18.41098,11.5131953 18.579582,11.5 18.75,11.5 Z"/>
  </g>
</svg>
