<svg xmlns="http://www.w3.org/2000/svg" width="24" height="24" viewBox="0 0 24 24">
  <g fill="none" fill-rule="evenodd">
    <path fill="#000" fill-rule="nonzero" d="M19.3651572,18.6567866 L8.73997313,15.8097771 C8.03162752,15.6199764 8.31632847,14.557458 9.02467408,14.7472587 L19.6498582,17.5942682 C20.3582038,17.7840688 20.0735028,18.8465872 19.3651572,18.6567866 Z"/>
    <path fill="#000" fill-rule="nonzero" d="M9.37335918 16.3677569C9.13657345 16.5580214 9.09886059 16.9042141 9.28912514 17.1409998 9.47938968 17.3777855 9.82558234 17.4154984 10.0623681 17.2252339L11.2701327 16.2547582C11.4570713 16.1045473 11.5251353 15.8505293 11.4383471 15.6269735L10.8776301 14.1826346C10.7676999 13.8994678 10.4490318 13.7590318 10.165865 13.868962 9.88269824 13.9788921 9.74226221 14.2975602 9.8521924 14.580727L10.2671386 15.6495779 9.37335918 16.3677569zM19.0164721 17.0362884C19.2532578 16.8460238 19.2909707 16.4998312 19.1007062 16.2630454 18.9104416 16.0262597 18.564249 15.9885468 18.3274632 16.1788114L17.1196986 17.1492871C16.93276 17.299498 16.864696 17.5535159 16.9514842 17.7770717L17.5122012 19.2214106C17.6221314 19.5045774 17.9407995 19.6450135 18.2239663 19.5350833 18.5071331 19.4251531 18.6475691 19.106485 18.5376389 18.8233182L18.1226927 17.7544673 19.0164721 17.0362884zM15.0871612 22.1569651L12.2401517 11.531781C12.0503511 10.8234354 13.1128695 10.5387345 13.3026701 11.2470801L16.1496796 21.8722642C16.3394802 22.5806098 15.2769618 22.8653107 15.0871612 22.1569651z"/>
    <path fill="#000" fill-rule="nonzero" d="M12.07362 12.3592994C11.7904532 12.2493692 11.4717852 12.3898052 11.361855 12.672972 11.2519248 12.9561388 11.3923608 13.2748069 11.6755276 13.384737L13.1198665 13.945454C13.3434223 14.0322422 13.5974403 13.9641783 13.7476512 13.7772396L14.7181269 12.569475C14.9083914 12.3326893 14.8706786 11.9864967 14.6338928 11.7962321 14.3971071 11.6059676 14.0509145 11.6436804 13.8606499 11.8804662L13.1424709 12.7742455 12.07362 12.3592994zM14.5291814 21.5235791C14.3389168 21.7603648 13.9927242 21.7980777 13.7559385 21.6078131 13.5191527 21.4175486 13.4814399 21.0713559 13.6717044 20.8345702L14.6421801 19.6268056C14.792391 19.4398669 15.046409 19.371803 15.2699648 19.4585912L16.7143037 20.0193082C16.9974705 20.1292384 17.1379065 20.4479064 17.0279763 20.7310732 16.9180461 21.01424 16.5993781 21.1546761 16.3162113 21.0447459L15.2473603 20.6297997 14.5291814 21.5235791zM18.4729117 13.2018441L10.6947371 20.9800186C10.1761921 21.4985636 9.39837465 20.7207462 9.91691962 20.2022012L17.6950942 12.4240266C18.2136392 11.9054816 18.9914566 12.6832991 18.4729117 13.2018441z"/>
    <path fill="#000" fill-rule="nonzero" d="M11.4946548 20.7104801C11.5410359 21.0106749 11.8219911 21.2164315 12.1221858 21.1700504 12.4223805 21.1236694 12.6281371 20.8427142 12.5817561 20.5425194L12.3451818 19.0113268C12.3085647 18.7743277 12.1226106 18.5883736 11.8856115 18.5517565L10.3544188 18.3151822C10.0542241 18.2688011 9.77326891 18.4745577 9.72688784 18.7747525 9.68050677 19.0749472 9.8862634 19.3559024 10.1864581 19.4022835L11.3195833 19.577355 11.4946548 20.7104801zM16.8951765 12.6935651C16.8487954 12.3933704 16.5678402 12.1876137 16.2676455 12.2339948 15.9674508 12.2803759 15.7616941 12.5613311 15.8080752 12.8615258L16.0446495 14.3927185C16.0812666 14.6297176 16.2672207 14.8156716 16.5042198 14.8522888L18.0354125 15.0888631C18.3356072 15.1352441 18.6165624 14.9294875 18.6629435 14.6292928 18.7093245 14.329098 18.5035679 14.0481428 18.2033732 14.0017618L17.070248 13.8266902 16.8951765 12.6935651zM3.10732375 7.42788181C2.94499818 7.68462776 3.02154102 8.02435237 3.27828698 8.18667794 3.53503293 8.34900352 3.87475754 8.27246068 4.03708311 8.01571472L4.48485476 7.30748647C4.54448197 7.21317573 4.57401423 7.10295983 4.56953092 6.99147073L4.53586343 6.15424124C4.52365833 5.85072993 4.26771962 5.61457959 3.96420831 5.62678468 3.660697 5.63898978 3.42454665 5.89492849 3.43675175 6.1984398L3.4635349 6.86447231 3.10732375 7.42788181zM10.6330182 8.12667359C10.7953438 7.86992764 10.718801 7.53020303 10.462055 7.36787746 10.205309 7.20555188 9.86558444 7.28209472 9.70325887 7.53884068L9.25548722 8.24706893C9.19586001 8.34137967 9.16632775 8.45159557 9.17081106 8.56308467L9.20447855 9.40031416C9.21668365 9.70382547 9.47262236 9.93997581 9.77613367 9.92777072 10.079645 9.91556562 10.3157953 9.65962691 10.3035902 9.3561156L10.2768071 8.69008309 10.6330182 8.12667359z"/>
    <path fill="#000" fill-rule="nonzero" d="M3.14881816,6.21074231 L10.8762248,8.28129468 C11.5845704,8.47109531 11.2998694,9.53361372 10.5915238,9.34381308 L2.86411721,7.27326072 C2.1557716,7.08346009 2.44047255,6.02094168 3.14881816,6.21074231 Z"/>
    <polyline stroke="#000" stroke-linecap="round" stroke-linejoin="round" stroke-width="1.1" points="6.815 4.479 6.106 4.927 5.269 4.893"/>
    <path fill="#000" fill-rule="nonzero" d="M8.44900889,11.2106969 C8.7525202,11.222902 9.00845891,10.9867517 9.02066401,10.6832404 C9.0328691,10.3797291 8.79671876,10.1237904 8.49320745,10.1115853 L7.65597796,10.0779178 C7.54448886,10.0734345 7.43427296,10.1029667 7.33996222,10.1625939 L6.63173397,10.6103656 C6.37498801,10.7726912 6.29844517,11.1124158 6.46077075,11.3691617 C6.62309633,11.6259077 6.96282093,11.7024505 7.21956688,11.5401249 L7.78297638,11.1839138 L8.44900889,11.2106969 Z"/>
    <path fill="#000" fill-rule="nonzero" d="M6.36615401 3.77122392L8.43670638 11.4986305C8.62650701 12.2069761 7.5639886 12.4916771 7.37418797 11.7833315L5.30363561 4.05592487C5.11383497 3.34757926 6.17635338 3.06287831 6.36615401 3.77122392zM4.68616165 10.861301C4.82734738 11.1302521 5.15982894 11.2338264 5.42877999 11.0926406 5.69773105 10.9514549 5.8013053 10.6189733 5.66011957 10.3500223L5.27066173 9.60812653C5.21879984 9.50933249 5.1381162 9.42864885 5.03932216 9.37678696L4.29742641 8.98732912C4.02847535 8.84614339 3.6959938 8.94971764 3.55480807 9.2186687 3.41362233 9.48761975 3.51719659 9.82010131 3.78614764 9.96128704L4.37634029 10.2711084 4.68616165 10.861301zM9.05418033 4.69325435C8.9129946 4.4243033 8.58051304 4.32072904 8.31156199 4.46191478 8.04261093 4.60310051 7.93903668 4.93558206 8.08022241 5.20453312L8.46968025 5.94642887C8.52154214 6.04522291 8.60222578 6.12590655 8.70101982 6.17776844L9.44291557 6.56722628C9.71186663 6.70841201 10.0443482 6.60483776 10.1855339 6.3358867 10.3267196 6.06693565 10.2231454 5.73445409 9.95419434 5.59326836L9.36400169 5.283447 9.05418033 4.69325435z"/>
    <path fill="#000" fill-rule="nonzero" d="M3.65283514 10.2167961L9.30968939 4.55994185C9.82823436 4.04139687 10.6060518 4.81921433 10.0875068 5.3377593L4.4306526 10.9946136C3.91210762 11.5131585 3.13429016 10.7353411 3.65283514 10.2167961zM15.25 6.125L20.65 6.125C20.995178 6.125 21.275 5.84517797 21.275 5.5 21.275 5.15482203 20.995178 4.875 20.65 4.875L15.25 4.875C14.904822 4.875 14.625 5.15482203 14.625 5.5 14.625 5.84517797 14.904822 6.125 15.25 6.125z"/>
    <path fill="#000" fill-rule="nonzero" d="M17.1662659,2.80593014 L19.8662659,7.48246732 C20.2829325,8.20415516 19.2004008,8.82915516 18.7837341,8.10746732 L16.0837341,3.43093014 C15.6670675,2.7092423 16.7495992,2.0842423 17.1662659,2.80593014 Z"/>
    <path fill="#000" fill-rule="nonzero" d="M19.9162659,3.43093014 L17.2162659,8.10746732 C16.7995992,8.82915516 15.7170675,8.20415516 16.1337341,7.48246732 L18.8337341,2.80593014 C19.2504008,2.0842423 20.3329325,2.7092423 19.9162659,3.43093014 Z"/>
  </g>
</svg>
