<svg xmlns="http://www.w3.org/2000/svg" width="24" height="24" viewBox="0 0 24 24">
  <g>
    <path d="M17.5 8.875C16.2325976 8.875 15.2083333 7.83793247 15.2083333 6.5625 15.2083333 6.13313276 15.3986085 5.65430132 15.7324972 5.09249373 15.8566064 4.88366527 15.999298 4.66703426 16.1571184 4.44483803 16.3484002 4.17553127 16.5522057 3.91138549 16.7559732 3.66248152 16.8786741 3.51260112 16.975049 3.40001078 17.0322637 3.33545473L17.5 2.80770243 17.9677363 3.33545473C18.024951 3.40001078 18.1213259 3.51260112 18.2440268 3.66248152 18.4477943 3.91138549 18.6515998 4.17553127 18.8428816 4.44483803 19.000702 4.66703426 19.1433936 4.88366527 19.2675028 5.09249373 19.6013915 5.65430132 19.7916667 6.13313276 19.7916667 6.5625 19.7916667 7.83793247 18.7674024 8.875 17.5 8.875zM17.1762149 5.16867658C17.0368998 5.36481915 16.9125136 5.55365941 16.8070507 5.73111325 16.5799581 6.11322355 16.4583333 6.41929488 16.4583333 6.5625 16.4583333 7.15102856 16.9264533 7.625 17.5 7.625 18.0735467 7.625 18.5416667 7.15102856 18.5416667 6.5625 18.5416667 6.41929488 18.4200419 6.11322355 18.1929493 5.73111325 18.0874864 5.55365941 17.9631002 5.36481915 17.8237851 5.16867658 17.7197558 5.02221317 17.6108555 4.87642048 17.5 4.73389872 17.3891445 4.87642048 17.2802442 5.02221317 17.1762149 5.16867658zM13 20.875C10.6194329 20.875 8.70833333 18.8227397 8.70833333 16.3125 8.70833333 15.5089501 9.0826578 14.5098642 9.74826805 13.3220187 10.0094852 12.8558516 10.3118355 12.3690111 10.6473604 11.8679941 11.0568851 11.2564781 11.4946176 10.6547632 11.9323271 10.0876928 12.1953962 9.7468761 12.4009133 9.49222873 12.5204051 9.34923355L13 8.77530513 13.4795949 9.34923355C13.5990867 9.49222873 13.8046038 9.7468761 14.0676729 10.0876928 14.5053824 10.6547632 14.9431149 11.2564781 15.3526396 11.8679941 15.6881645 12.3690111 15.9905148 12.8558516 16.251732 13.3220187 16.9173422 14.5098642 17.2916667 15.5089501 17.2916667 16.3125 17.2916667 18.8227397 15.3805671 20.875 13 20.875zM12.9218396 10.8514762C12.500174 11.3977611 12.0785315 11.9773583 11.6859729 12.56354 11.3677997 13.0386468 11.0825787 13.497906 10.8387374 13.9330642 10.2701888 14.9476938 9.95833333 15.7800477 9.95833333 16.3125 9.95833333 18.1515027 11.3304789 19.625 13 19.625 14.6695211 19.625 16.0416667 18.1515027 16.0416667 16.3125 16.0416667 15.7800477 15.7298112 14.9476938 15.1612626 13.9330642 14.9174213 13.497906 14.6322003 13.0386468 14.3140271 12.56354 13.9214685 11.9773583 13.499826 11.3977611 13.0781604 10.8514762 13.0514581 10.8168822 13.0253932 10.7832376 13 10.7505733 12.9746068 10.7832376 12.9485419 10.8168822 12.9218396 10.8514762zM6 12C4.3542812 12 3.04166667 10.5760476 3.04166667 8.84375 3.04166667 8.28003708 3.29071934 7.60852326 3.73113472 6.81453964 3.90041448 6.50936103 4.09583241 6.19149084 4.31240359 5.86479959 4.57600649 5.46716238 4.85741032 5.07639252 5.1387935 4.70812934 5.30806691 4.48659099 5.44062571 4.32066709 5.51841093 4.22663212L6 3.6444365 6.48158907 4.22663212C6.55937429 4.32066709 6.69193309 4.48659099 6.8612065 4.70812934 7.14258968 5.07639252 7.42399351 5.46716238 7.68759641 5.86479959 7.90416759 6.19149084 8.09958552 6.50936103 8.26886528 6.81453964 8.70928066 7.60852326 8.95833333 8.28003708 8.95833333 8.84375 8.95833333 10.5760476 7.6457188 12 6 12zM5.35426307 6.55547233C5.15484457 6.85628927 4.97635346 7.14662599 4.82423238 7.42087083 4.47927395 8.04276405 4.29166667 8.54860438 4.29166667 8.84375 4.29166667 9.90739392 5.06838996 10.75 6 10.75 6.93161004 10.75 7.70833333 9.90739392 7.70833333 8.84375 7.70833333 8.54860438 7.52072605 8.04276405 7.17576762 7.42087083 7.02364654 7.14662599 6.84515543 6.85628927 6.64573693 6.55547233 6.43986688 6.24492342 6.22101611 5.93692526 6 5.64164146 5.77898389 5.93692526 5.56013312 6.24492342 5.35426307 6.55547233z"/>
  </g>
</svg>
