<svg xmlns="http://www.w3.org/2000/svg" width="24" height="24" viewBox="0 0 24 24">
  <g>
    <path d="M17.3651572,13.6567866 L6.73997313,10.8097771 C6.03162752,10.6199764 6.31632847,9.55745803 7.02467408,9.74725867 L17.6498582,12.5942682 C18.3582038,12.7840688 18.0735028,13.8465872 17.3651572,13.6567866 Z"/>
    <path d="M7.37335918 11.3677569C7.13657345 11.5580214 7.09886059 11.9042141 7.28912514 12.1409998 7.47938968 12.3777855 7.82558234 12.4154984 8.06236806 12.2252339L9.27013268 11.2547582C9.45707134 11.1045473 9.52513525 10.8505293 9.43834708 10.6269735L8.87763008 9.1826346C8.7676999 8.89946781 8.44903183 8.75903178 8.16586503 8.86896196 7.88269824 8.97889215 7.74226221 9.29756021 7.8521924 9.58072701L8.26713855 10.6495779 7.37335918 11.3677569zM17.0164721 12.0362884C17.2532578 11.8460238 17.2909707 11.4998312 17.1007062 11.2630454 16.9104416 11.0262597 16.564249 10.9885468 16.3274632 11.1788114L15.1196986 12.1492871C14.93276 12.299498 14.864696 12.5535159 14.9514842 12.7770717L15.5122012 14.2214106C15.6221314 14.5045774 15.9407995 14.6450135 16.2239663 14.5350833 16.5071331 14.4251531 16.6475691 14.106485 16.5376389 13.8233182L16.1226927 12.7544673 17.0164721 12.0362884zM13.0871612 17.1569651L10.2401517 6.53178105C10.0503511 5.82343544 11.1128695 5.53873449 11.3026701 6.2470801L14.1496796 16.8722642C14.3394802 17.5806098 13.2769618 17.8653107 13.0871612 17.1569651z"/>
    <path d="M10.07362 7.35929937C9.79045324 7.24936919 9.47178517 7.38980521 9.36185499 7.67297201 9.25192481 7.9561388 9.39236083 8.27480687 9.67552763 8.38473705L11.1198665 8.94545405C11.3434223 9.03224222 11.5974403 8.96417831 11.7476512 8.77723965L12.7181269 7.56947504C12.9083914 7.33268931 12.8706786 6.98649666 12.6338928 6.79623211 12.3971071 6.60596756 12.0509145 6.64368043 11.8606499 6.88046615L11.1424709 7.77424553 10.07362 7.35929937zM14.3162113 16.0447459C14.5993781 16.1546761 14.9180461 16.01424 15.0279763 15.7310732 15.1379065 15.4479064 14.9974705 15.1292384 14.7143037 15.0193082L13.2699648 14.4585912C13.046409 14.371803 12.792391 14.4398669 12.6421801 14.6268056L11.6717044 15.8345702C11.4814399 16.0713559 11.5191527 16.4175486 11.7559385 16.6078131 11.9927242 16.7980777 12.3389168 16.7603648 12.5291814 16.5235791L13.2473603 15.6297997 14.3162113 16.0447459zM16.4729117 8.20184405L8.69473708 15.9800186C8.17619211 16.4985636 7.39837465 15.7207462 7.91691962 15.2022012L15.6950942 7.42402659C16.2136392 6.90548162 16.9914566 7.68329908 16.4729117 8.20184405z"/>
    <path d="M9.4946548 15.7104801C9.54103586 16.0106749 9.82199106 16.2164315 10.1221858 16.1700504 10.4223805 16.1236694 10.6281371 15.8427142 10.5817561 15.5425194L10.3451818 14.0113268C10.3085647 13.7743277 10.1226106 13.5883736 9.88561151 13.5517565L8.35441884 13.3151822C8.05422411 13.2688011 7.77326891 13.4745577 7.72688784 13.7747525 7.68050677 14.0749472 7.8862634 14.3559024 8.18645813 14.4022835L9.31958325 14.577355 9.4946548 15.7104801zM14.8951765 7.6935651C14.8487954 7.39337037 14.5678402 7.18761375 14.2676455 7.23399481 13.9674508 7.28037588 13.7616941 7.56133108 13.8080752 7.86152581L14.0446495 9.39271848C14.0812666 9.62971757 14.2672207 9.81567164 14.5042198 9.85228877L16.0354125 10.0888631C16.3356072 10.1352441 16.6165624 9.92948749 16.6629435 9.62929276 16.7093245 9.32909803 16.5035679 9.04814284 16.2033732 9.00176177L15.070248 8.82669023 14.8951765 7.6935651z"/>
  </g>
</svg>
