<svg xmlns="http://www.w3.org/2000/svg" width="24" height="24" viewBox="0 0 24 24">
  <g>
    <path d="M15 20.875C12.6194329 20.875 10.7083333 18.8227397 10.7083333 16.3125 10.7083333 15.5089501 11.0826578 14.5098642 11.748268 13.3220187 12.0094852 12.8558516 12.3118355 12.3690111 12.6473604 11.8679941 13.0568851 11.2564781 13.4946176 10.6547632 13.9323271 10.0876928 14.1953962 9.7468761 14.4009133 9.49222873 14.5204051 9.34923355L15 8.77530513 15.4795949 9.34923355C15.5990867 9.49222873 15.8046038 9.7468761 16.0676729 10.0876928 16.5053824 10.6547632 16.9431149 11.2564781 17.3526396 11.8679941 17.6881645 12.3690111 17.9905148 12.8558516 18.251732 13.3220187 18.9173422 14.5098642 19.2916667 15.5089501 19.2916667 16.3125 19.2916667 18.8227397 17.3805671 20.875 15 20.875zM14.9218396 10.8514762C14.500174 11.3977611 14.0785315 11.9773583 13.6859729 12.56354 13.3677997 13.0386468 13.0825787 13.497906 12.8387374 13.9330642 12.2701888 14.9476938 11.9583333 15.7800477 11.9583333 16.3125 11.9583333 18.1515027 13.3304789 19.625 15 19.625 16.6695211 19.625 18.0416667 18.1515027 18.0416667 16.3125 18.0416667 15.7800477 17.7298112 14.9476938 17.1612626 13.9330642 16.9174213 13.497906 16.6322003 13.0386468 16.3140271 12.56354 15.9214685 11.9773583 15.499826 11.3977611 15.0781604 10.8514762 15.0514581 10.8168822 15.0253932 10.7832376 15 10.7505733 14.9746068 10.7832376 14.9485419 10.8168822 14.9218396 10.8514762zM7 12C5.3542812 12 4.04166667 10.5760476 4.04166667 8.84375 4.04166667 8.28003708 4.29071934 7.60852326 4.73113472 6.81453964 4.90041448 6.50936103 5.09583241 6.19149084 5.31240359 5.86479959 5.57600649 5.46716238 5.85741032 5.07639252 6.1387935 4.70812934 6.30806691 4.48659099 6.44062571 4.32066709 6.51841093 4.22663212L7 3.6444365 7.48158907 4.22663212C7.55937429 4.32066709 7.69193309 4.48659099 7.8612065 4.70812934 8.14258968 5.07639252 8.42399351 5.46716238 8.68759641 5.86479959 8.90416759 6.19149084 9.09958552 6.50936103 9.26886528 6.81453964 9.70928066 7.60852326 9.95833333 8.28003708 9.95833333 8.84375 9.95833333 10.5760476 8.6457188 12 7 12zM6.35426307 6.55547233C6.15484457 6.85628927 5.97635346 7.14662599 5.82423238 7.42087083 5.47927395 8.04276405 5.29166667 8.54860438 5.29166667 8.84375 5.29166667 9.90739392 6.06838996 10.75 7 10.75 7.93161004 10.75 8.70833333 9.90739392 8.70833333 8.84375 8.70833333 8.54860438 8.52072605 8.04276405 8.17576762 7.42087083 8.02364654 7.14662599 7.84515543 6.85628927 7.64573693 6.55547233 7.43986688 6.24492342 7.22101611 5.93692526 7 5.64164146 6.77898389 5.93692526 6.56013312 6.24492342 6.35426307 6.55547233z"/>
  </g>
</svg>
