<svg xmlns="http://www.w3.org/2000/svg" width="24" height="24" viewBox="0 0 24 24">
  <path d="M11,15 L8,15 C7.54381057,15 7.19327779,14.596133 7.25745992,14.1444811 L8.6074603,4.64448112 C8.66000135,4.27474796 8.9765527,4 9.35000038,4 L14.4499998,4 C14.9203401,4 15.2746122,4.42792167 15.1868182,4.88999546 L14.4059174,9 L18,9 C18.5750513,9 18.9361732,9.62052489 18.6520924,10.1205071 L12.4020924,21.1205071 C12.0216692,21.7900518 11,21.5200727 11,20.75 L11,15 Z M8.86411385,13.5 L11.75,13.5 C12.1642136,13.5 12.5,13.8357864 12.5,14.25 L12.5,17.9118103 L16.7112558,10.5 L13.5,10.5 C13.0296597,10.5 12.6753877,10.0720783 12.7631817,9.61000454 L13.5440824,5.5 L10.0009563,5.5 L8.86411385,13.5 Z"/>
</svg>
