<svg xmlns="http://www.w3.org/2000/svg" width="24" height="24" viewBox="0 0 24 24">
  <g>
    <path d="M3 14.5L10 14.5C10.4142136 14.5 10.75 14.1642136 10.75 13.75 10.75 13.3357864 10.4142136 13 10 13L3 13C2.58578644 13 2.25 13.3357864 2.25 13.75 2.25 14.1642136 2.58578644 14.5 3 14.5zM3 17.5L14 17.5C14.4142136 17.5 14.75 17.1642136 14.75 16.75 14.75 16.3357864 14.4142136 16 14 16L3 16C2.58578644 16 2.25 16.3357864 2.25 16.75 2.25 17.1642136 2.58578644 17.5 3 17.5zM3 20.5L18 20.5C18.4142136 20.5 18.75 20.1642136 18.75 19.75 18.75 19.3357864 18.4142136 19 18 19L3 19C2.58578644 19 2.25 19.3357864 2.25 19.75 2.25 20.1642136 2.58578644 20.5 3 20.5z"/>
    <path d="M16.2833984 15.0362475C16.9085372 14.1556987 17.25 13.1025128 17.25 12 17.25 9.10050506 14.8994949 6.75 12 6.75 9.31214213 6.75 7.0662837 8.77937135 6.78043491 11.4319811 6.73605563 11.8438104 7.03393272 12.2136405 7.44576199 12.2580198 7.85759127 12.3023991 8.22742138 12.004522 8.27180066 11.5926927 8.47576829 9.69992087 10.0803623 8.25 12 8.25 14.0710678 8.25 15.75 9.92893219 15.75 12 15.75 12.7887783 15.5067492 13.5390455 15.0602906 14.1679116 14.8205063 14.5056635 14.8999247 14.9738491 15.2376766 15.2136334 15.5754285 15.4534178 16.0436141 15.3739994 16.2833984 15.0362475zM16.6994346 2.60317418L15.5244932 5.43973358C15.1418098 6.36361311 13.7559905 5.78958796 14.1386739 4.86570843L15.3136153 2.02914903C15.6962987 1.1052695 17.082118 1.67929464 16.6994346 2.60317418zM21.96602 8.68155371L19.1294606 9.85649509C18.205581 10.2391785 17.6315559 8.85335922 18.5554354 8.47067579L21.3919948 7.29573441C22.3158744 6.91305098 22.8898995 8.29887028 21.96602 8.68155371zM21.3919948 16.7036553L18.5554354 15.528714C17.6315559 15.1460305 18.205581 13.7602112 19.1294606 14.1428947L21.96602 15.317836C22.8898995 15.7005195 22.3158744 17.0863388 21.3919948 16.7036553zM4.86481652 9.85787394L2.02825712 8.68293256C1.10437758 8.30024913 1.67840273 6.91442983 2.60228226 7.29711326L5.43884167 8.47205464C6.3627212 8.85473807 5.78869605 10.2405574 4.86481652 9.85787394zM8.67733296 2.02914903L9.85227434 4.86570843C10.2349578 5.78958796 8.84913847 6.36361311 8.46645504 5.43973358L7.29151366 2.60317418C6.90883023 1.67929464 8.29464953 1.1052695 8.67733296 2.02914903z"/>
  </g>
</svg>
