<svg xmlns="http://www.w3.org/2000/svg" width="24" height="24" viewBox="0 0 24 24">
  <g>
    <path d="M5.02756672,14.5421972 C9.17778253,14.5421972 12.5421972,11.1777825 12.5421972,7.02756672 C12.5421972,6.68221136 12.5188408,6.33996725 12.4727936,6.00260868 C13.7943576,7.09824404 14.6171236,8.73429918 14.6490261,10.525888 C14.6498373,10.5805427 14.6498373,10.5805427 14.6500001,10.6353696 C14.6500001,11.0495832 14.9857865,11.3853696 15.4000001,11.3853696 C15.8142137,11.3853696 16.1500001,11.0495832 16.1500001,10.6353696 C16.1497976,10.5671881 16.1497976,10.5671881 16.1487884,10.4991819 C16.095438,7.50312335 14.2724465,4.85572598 11.554483,3.708986 C10.9344793,3.4473993 10.3103355,4.0715431 10.5719222,4.69154687 C10.880942,5.42397496 11.0421972,6.21384573 11.0421972,7.02756672 C11.0421972,10.3493554 8.3493554,13.0421972 5.02756672,13.0421972 C4.21384573,13.0421972 3.42397496,12.880942 2.69154687,12.5719222 C2.0715431,12.3103355 1.4473993,12.9344793 1.708986,13.554483 C2.30283046,14.9619926 3.31605553,16.1577856 4.60329047,16.9776749 C4.95265553,17.2001989 5.41626321,17.0973739 5.63878722,16.7480089 C5.86131122,16.3986438 5.75848624,15.9350361 5.40912118,15.7125121 C4.87692885,15.3735384 4.40312074,14.9542377 4.00387095,14.4729658 C4.34082094,14.518899 4.68264208,14.5421972 5.02756672,14.5421972 Z"/>
    <path d="M14 13.5L21 13.5C21.4142136 13.5 21.75 13.1642136 21.75 12.75 21.75 12.3357864 21.4142136 12 21 12L14 12C13.5857864 12 13.25 12.3357864 13.25 12.75 13.25 13.1642136 13.5857864 13.5 14 13.5zM10 16.5L21 16.5C21.4142136 16.5 21.75 16.1642136 21.75 15.75 21.75 15.3357864 21.4142136 15 21 15L10 15C9.58578644 15 9.25 15.3357864 9.25 15.75 9.25 16.1642136 9.58578644 16.5 10 16.5zM6 19.5L21 19.5C21.4142136 19.5 21.75 19.1642136 21.75 18.75 21.75 18.3357864 21.4142136 18 21 18L6 18C5.58578644 18 5.25 18.3357864 5.25 18.75 5.25 19.1642136 5.58578644 19.5 6 19.5z"/>
  </g>
</svg>
