<svg xmlns="http://www.w3.org/2000/svg" width="24" height="24" viewBox="0 0 24 24">
  <g>
    <path d="M14.875,16.63 L14.875,20.37 C14.875,20.715178 15.154822,20.995 15.5,20.995 C15.845178,20.995 16.125,20.715178 16.125,20.37 L16.125,16.63 C16.125,16.284822 15.845178,16.005 15.5,16.005 C15.154822,16.005 14.875,16.284822 14.875,16.63 Z"/>
    <path d="M14.1930325,17.0237341 L17.4319675,18.8937341 C18.1536553,19.3104008 17.5286553,20.3929325 16.8069675,19.9762659 L13.5680325,18.1062659 C12.8463447,17.6895992 13.4713447,16.6070675 14.1930325,17.0237341 Z"/>
    <path d="M17.4319675 18.1062659L14.1930325 19.9762659C13.4713447 20.3929325 12.8463447 19.3104008 13.5680325 18.8937341L16.8069675 17.0237341C17.5286553 16.6070675 18.1536553 17.6895992 17.4319675 18.1062659zM7 12.5L17.75 12.5C18.7164983 12.5 19.5 11.7164983 19.5 10.75 19.5 9.78350169 18.7164983 9 17.75 9 17.4092052 9 17.0846422 9.09683208 16.8050367 9.27669991 16.2396776 9.64039047 15.5182216 9.13394384 15.6681714 8.47864487 15.7223622 8.24182409 15.75 7.99798536 15.75 7.75 15.75 5.95507456 14.2949254 4.5 12.5 4.5 10.8895879 4.5 9.52821764 5.6791992 9.28751168 7.25394311 9.20905473 7.76722334 8.64533932 8.04740884 8.18881129 7.80003412 7.82704751 7.60400845 7.4218847 7.5 7 7.5 5.61928813 7.5 4.5 8.61928813 4.5 10 4.5 11.3807119 5.61928813 12.5 7 12.5zM17.75 7.5C19.5449254 7.5 21 8.95507456 21 10.75 21 12.5449254 19.5449254 14 17.75 14L7 14C4.790861 14 3 12.209139 3 10 3 7.790861 4.790861 6 7 6 7.35233656 6 7.69852051 6.0457715 8.03162602 6.13447154 8.69690206 4.29180264 10.46158 3 12.5 3 15.052665 3 17.1350323 5.0135844 17.2453997 7.53905124 17.41098 7.51319525 17.579582 7.5 17.75 7.5zM5.10853642 16.4631224L4.05853623 18.9625731C3.89810929 19.344458 4.07763644 19.7840886 4.45952134 19.9445155 4.84140623 20.1049425 5.28103684 19.9254153 5.44146377 19.5435304L6.49146396 17.0440797C6.6518909 16.6621948 6.47236375 16.2225642 6.09047885 16.0621373 5.70859396 15.9017104 5.26896336 16.0812375 5.10853642 16.4631224zM10.1085364 15.4631224L9.05853623 17.9625731C8.89810929 18.344458 9.07763644 18.7840886 9.45952134 18.9445155 9.84140623 19.1049425 10.2810368 18.9254153 10.4414638 18.5435304L11.491464 16.0440797C11.6518909 15.6621948 11.4723637 15.2225642 11.0904789 15.0621373 10.708594 14.9017104 10.2689634 15.0812375 10.1085364 15.4631224z"/>
  </g>
</svg>
