<svg xmlns="http://www.w3.org/2000/svg" width="24" height="24" viewBox="0 0 24 24">
  <g>
    <path d="M7 12.5L17.75 12.5C18.7164983 12.5 19.5 11.7164983 19.5 10.75 19.5 9.78350169 18.7164983 9 17.75 9 17.4092052 9 17.0846422 9.09683208 16.8050367 9.27669991 16.2396776 9.64039047 15.5182216 9.13394384 15.6681714 8.47864487 15.7223622 8.24182409 15.75 7.99798536 15.75 7.75 15.75 5.95507456 14.2949254 4.5 12.5 4.5 10.8895879 4.5 9.52821764 5.6791992 9.28751168 7.25394311 9.20905473 7.76722334 8.64533932 8.04740884 8.18881129 7.80003412 7.82704751 7.60400845 7.4218847 7.5 7 7.5 5.61928813 7.5 4.5 8.61928813 4.5 10 4.5 11.3807119 5.61928813 12.5 7 12.5zM17.75 7.5C19.5449254 7.5 21 8.95507456 21 10.75 21 12.5449254 19.5449254 14 17.75 14L7 14C4.790861 14 3 12.209139 3 10 3 7.790861 4.790861 6 7 6 7.35233656 6 7.69852051 6.0457715 8.03162602 6.13447154 8.69690206 4.29180264 10.46158 3 12.5 3 15.052665 3 17.1350323 5.0135844 17.2453997 7.53905124 17.41098 7.51319525 17.579582 7.5 17.75 7.5zM5.56046253 15.4521702L4.06046253 18.9580296C3.89752629 19.3388506 4.07415681 19.779653 4.45497784 19.9425892 4.83579887 20.1055255 5.27660123 19.9288949 5.43953747 19.5480739L6.93953747 16.0422145C7.10247371 15.6613935 6.92584319 15.2205912 6.54502216 15.0576549 6.16420113 14.8947187 5.72339877 15.0713492 5.56046253 15.4521702zM9.56046253 15.4521702L8.06046253 18.9580296C7.89752629 19.3388506 8.07415681 19.779653 8.45497784 19.9425892 8.83579887 20.1055255 9.27660123 19.9288949 9.43953747 19.5480739L10.9395375 16.0422145C11.1024737 15.6613935 10.9258432 15.2205912 10.5450222 15.0576549 10.1642011 14.8947187 9.72339877 15.0713492 9.56046253 15.4521702zM13.5604625 15.4521702L12.0604625 18.9580296C11.8975263 19.3388506 12.0741568 19.779653 12.4549778 19.9425892 12.8357989 20.1055255 13.2766012 19.9288949 13.4395375 19.5480739L14.9395375 16.0422145C15.1024737 15.6613935 14.9258432 15.2205912 14.5450222 15.0576549 14.1642011 14.8947187 13.7233988 15.0713492 13.5604625 15.4521702zM17.5604625 15.4521702L16.0604625 18.9580296C15.8975263 19.3388506 16.0741568 19.779653 16.4549778 19.9425892 16.8357989 20.1055255 17.2766012 19.9288949 17.4395375 19.5480739L18.9395375 16.0422145C19.1024737 15.6613935 18.9258432 15.2205912 18.5450222 15.0576549 18.1642011 14.8947187 17.7233988 15.0713492 17.5604625 15.4521702z"/>
  </g>
</svg>
