<svg xmlns="http://www.w3.org/2000/svg" width="24" height="24" viewBox="0 0 24 24">
  <g>
    <path d="M7 12.5L17.75 12.5C18.7164983 12.5 19.5 11.7164983 19.5 10.75 19.5 9.78350169 18.7164983 9 17.75 9 17.4092052 9 17.0846422 9.09683208 16.8050367 9.27669991 16.2396776 9.64039047 15.5182216 9.13394384 15.6681714 8.47864487 15.7223622 8.24182409 15.75 7.99798536 15.75 7.75 15.75 5.95507456 14.2949254 4.5 12.5 4.5 10.8895879 4.5 9.52821764 5.6791992 9.28751168 7.25394311 9.20905473 7.76722334 8.64533932 8.04740884 8.18881129 7.80003412 7.82704751 7.60400845 7.4218847 7.5 7 7.5 5.61928813 7.5 4.5 8.61928813 4.5 10 4.5 11.3807119 5.61928813 12.5 7 12.5zM17.75 7.5C19.5449254 7.5 21 8.95507456 21 10.75 21 12.5449254 19.5449254 14 17.75 14L7 14C4.790861 14 3 12.209139 3 10 3 7.790861 4.790861 6 7 6 7.35233656 6 7.69852051 6.0457715 8.03162602 6.13447154 8.69690206 4.29180264 10.46158 3 12.5 3 15.052665 3 17.1350323 5.0135844 17.2453997 7.53905124 17.41098 7.51319525 17.579582 7.5 17.75 7.5zM9.03033009 16.2196699L9.78033009 16.9696699C10.0732233 17.2625631 10.0732233 17.7374369 9.78033009 18.0303301L9.03033009 18.7803301C8.73743687 19.0732233 8.26256313 19.0732233 7.96966991 18.7803301L7.21966991 18.0303301C6.9267767 17.7374369 6.9267767 17.2625631 7.21966991 16.9696699L7.96966991 16.2196699C8.26256313 15.9267767 8.73743687 15.9267767 9.03033009 16.2196699zM12.0303301 19.2196699L12.7803301 19.9696699C13.0732233 20.2625631 13.0732233 20.7374369 12.7803301 21.0303301L12.0303301 21.7803301C11.7374369 22.0732233 11.2625631 22.0732233 10.9696699 21.7803301L10.2196699 21.0303301C9.9267767 20.7374369 9.9267767 20.2625631 10.2196699 19.9696699L10.9696699 19.2196699C11.2625631 18.9267767 11.7374369 18.9267767 12.0303301 19.2196699zM15.0303301 16.2196699L15.7803301 16.9696699C16.0732233 17.2625631 16.0732233 17.7374369 15.7803301 18.0303301L15.0303301 18.7803301C14.7374369 19.0732233 14.2625631 19.0732233 13.9696699 18.7803301L13.2196699 18.0303301C12.9267767 17.7374369 12.9267767 17.2625631 13.2196699 16.9696699L13.9696699 16.2196699C14.2625631 15.9267767 14.7374369 15.9267767 15.0303301 16.2196699z"/>
  </g>
</svg>
