<svg xmlns="http://www.w3.org/2000/svg" width="24" height="24" viewBox="0 0 24 24">
  <g>
    <path d="M12.5,2.875 C10.4792307,2.875 8.73351804,4.17915897 8.11425501,6.02739976 C7.75519841,5.92687334 7.38107264,5.875 7,5.875 C4.72182541,5.875 2.875,7.72182541 2.875,10 C2.875,12.2781746 4.72182541,14.125 7,14.125 L7.75,14.125 C8.09517797,14.125 8.375,13.845178 8.375,13.5 C8.375,13.154822 8.09517797,12.875 7.75,12.875 L7,12.875 C5.41218134,12.875 4.125,11.5878187 4.125,10 C4.125,8.41218134 5.41218134,7.125 7,7.125 C7.44853782,7.125 7.88116483,7.22735637 8.27342425,7.4215327 C8.65076593,7.60832445 9.10110543,7.37614292 9.16780658,6.96041602 C9.42838354,5.33632329 10.8368149,4.125 12.5,4.125 C14.363961,4.125 15.875,5.63603897 15.875,7.5 C15.875,7.74330604 15.8493561,7.98287716 15.7989981,8.21615605 C15.685468,8.74207336 16.2453156,9.15612553 16.7149307,8.89356163 C17.028481,8.71825419 17.3817505,8.625 17.75,8.625 C18.9236051,8.625 19.875,9.57639491 19.875,10.75 C19.875,11.9236051 18.9236051,12.875 17.75,12.875 L15,12.875 C14.654822,12.875 14.375,13.154822 14.375,13.5 C14.375,13.845178 14.654822,14.125 15,14.125 L17.75,14.125 C19.613961,14.125 21.125,12.613961 21.125,10.75 C21.125,8.88603897 19.613961,7.375 17.75,7.375 C17.5381456,7.375 17.3289481,7.39461332 17.124524,7.43295787 C17.0886698,4.90954901 15.0319321,2.875 12.5,2.875 Z"/>
    <path d="M10.8066069 20.6140956C10.5934778 20.96927 10.7086282 21.429971 11.0638026 21.6431001 11.418977 21.8562293 11.879678 21.7410788 12.0928072 21.3859044L14.6431001 17.1359044C14.9430702 16.6360117 14.5829878 16 14 16L11.1322753 16 12.1402882 13.6206957C12.3018706 13.2392983 12.1236752 12.7991262 11.7422777 12.6375438 11.3608803 12.4759615 10.9207082 12.6541568 10.7591258 13.0355543L9.30941881 16.4574293C9.09990052 16.9519743 9.46290346 17.5 10 17.5L12.6752789 17.5 10.8066069 20.6140956zM6.03033009 16.2196699L6.78033009 16.9696699C7.0732233 17.2625631 7.0732233 17.7374369 6.78033009 18.0303301L6.03033009 18.7803301C5.73743687 19.0732233 5.26256313 19.0732233 4.96966991 18.7803301L4.21966991 18.0303301C3.9267767 17.7374369 3.9267767 17.2625631 4.21966991 16.9696699L4.96966991 16.2196699C5.26256313 15.9267767 5.73743687 15.9267767 6.03033009 16.2196699zM18.0303301 18.2196699L18.7803301 18.9696699C19.0732233 19.2625631 19.0732233 19.7374369 18.7803301 20.0303301L18.0303301 20.7803301C17.7374369 21.0732233 17.2625631 21.0732233 16.9696699 20.7803301L16.2196699 20.0303301C15.9267767 19.7374369 15.9267767 19.2625631 16.2196699 18.9696699L16.9696699 18.2196699C17.2625631 17.9267767 17.7374369 17.9267767 18.0303301 18.2196699z"/>
  </g>
</svg>
