<svg xmlns="http://www.w3.org/2000/svg" width="24" height="24" viewBox="0 0 24 24">
  <g>
    <path d="M10.875,16.63 L10.875,20.37 C10.875,20.715178 11.154822,20.995 11.5,20.995 C11.845178,20.995 12.125,20.715178 12.125,20.37 L12.125,16.63 C12.125,16.284822 11.845178,16.005 11.5,16.005 C11.154822,16.005 10.875,16.284822 10.875,16.63 Z"/>
    <path d="M10.1930325,17.0237341 L13.4319675,18.8937341 C14.1536553,19.3104008 13.5286553,20.3929325 12.8069675,19.9762659 L9.56803249,18.1062659 C8.84634466,17.6895992 9.47134466,16.6070675 10.1930325,17.0237341 Z"/>
    <path d="M13.4319675 18.1062659L10.1930325 19.9762659C9.47134466 20.3929325 8.84634466 19.3104008 9.56803249 18.8937341L12.8069675 17.0237341C13.5286553 16.6070675 14.1536553 17.6895992 13.4319675 18.1062659zM7 13.5L17.75 13.5C18.7164983 13.5 19.5 12.7164983 19.5 11.75 19.5 10.7835017 18.7164983 10 17.75 10 17.4092052 10 17.0846422 10.0968321 16.8050367 10.2766999 16.2396776 10.6403905 15.5182216 10.1339438 15.6681714 9.47864487 15.7223622 9.24182409 15.75 8.99798536 15.75 8.75 15.75 6.95507456 14.2949254 5.5 12.5 5.5 10.8895879 5.5 9.52821764 6.6791992 9.28751168 8.25394311 9.20905473 8.76722334 8.64533932 9.04740884 8.18881129 8.80003412 7.82704751 8.60400845 7.4218847 8.5 7 8.5 5.61928813 8.5 4.5 9.61928813 4.5 11 4.5 12.3807119 5.61928813 13.5 7 13.5zM17.75 8.5C19.5449254 8.5 21 9.95507456 21 11.75 21 13.5449254 19.5449254 15 17.75 15L7 15C4.790861 15 3 13.209139 3 11 3 8.790861 4.790861 7 7 7 7.35233656 7 7.69852051 7.0457715 8.03162602 7.13447154 8.69690206 5.29180264 10.46158 4 12.5 4 15.052665 4 17.1350323 6.0135844 17.2453997 8.53905124 17.41098 8.51319525 17.579582 8.5 17.75 8.5z"/>
  </g>
</svg>
