<svg xmlns="http://www.w3.org/2000/svg" width="24" height="24" viewBox="0 0 24 24">
  <g>
    <path d="M7 12.5L17.75 12.5C18.7164983 12.5 19.5 11.7164983 19.5 10.75 19.5 9.78350169 18.7164983 9 17.75 9 17.4092052 9 17.0846422 9.09683208 16.8050367 9.27669991 16.2396776 9.64039047 15.5182216 9.13394384 15.6681714 8.47864487 15.7223622 8.24182409 15.75 7.99798536 15.75 7.75 15.75 5.95507456 14.2949254 4.5 12.5 4.5 10.8895879 4.5 9.52821764 5.6791992 9.28751168 7.25394311 9.20905473 7.76722334 8.64533932 8.04740884 8.18881129 7.80003412 7.82704751 7.60400845 7.4218847 7.5 7 7.5 5.61928813 7.5 4.5 8.61928813 4.5 10 4.5 11.3807119 5.61928813 12.5 7 12.5zM17.75 7.5C19.5449254 7.5 21 8.95507456 21 10.75 21 12.5449254 19.5449254 14 17.75 14L7 14C4.790861 14 3 12.209139 3 10 3 7.790861 4.790861 6 7 6 7.35233656 6 7.69852051 6.0457715 8.03162602 6.13447154 8.69690206 4.29180264 10.46158 3 12.5 3 15.052665 3 17.1350323 5.0135844 17.2453997 7.53905124 17.41098 7.51319525 17.579582 7.5 17.75 7.5zM8.10853642 16.4631224L7.05853623 18.9625731C6.89810929 19.344458 7.07763644 19.7840886 7.45952134 19.9445155 7.84140623 20.1049425 8.28103684 19.9254153 8.44146377 19.5435304L9.49146396 17.0440797C9.6518909 16.6621948 9.47236375 16.2225642 9.09047885 16.0621373 8.70859396 15.9017104 8.26896336 16.0812375 8.10853642 16.4631224zM13.1085364 15.4631224L12.0585362 17.9625731C11.8981093 18.344458 12.0776364 18.7840886 12.4595213 18.9445155 12.8414062 19.1049425 13.2810368 18.9254153 13.4414638 18.5435304L14.491464 16.0440797C14.6518909 15.6621948 14.4723637 15.2225642 14.0904789 15.0621373 13.708594 14.9017104 13.2689634 15.0812375 13.1085364 15.4631224z"/>
  </g>
</svg>
