<svg xmlns="http://www.w3.org/2000/svg" width="24" height="24" viewBox="0 0 24 24">
  <path d="M15.8635992,5.97556567 C15.9454711,6.45276138 15.9871506,6.939492 15.9871506,7.43180774 C15.9871506,12.1567931 12.1567931,15.9871506 7.43180774,15.9871506 C6.939492,15.9871506 6.45276138,15.9454711 5.97556567,15.8635992 C7.28285073,17.5830151 9.34030397,18.6500001 11.5946573,18.6500001 C15.4912155,18.6500001 18.6500001,15.4912155 18.6500001,11.5946573 C18.6500001,9.34030397 17.5830151,7.28285073 15.8635992,5.97556567 Z M14.9180117,3.708986 C18.0624707,5.03566935 20.1500001,8.1227043 20.1500001,11.5946573 C20.1500001,16.3196426 16.3196426,20.1500001 11.5946573,20.1500001 C8.1227043,20.1500001 5.03566935,18.0624707 3.708986,14.9180117 C3.4473993,14.2980079 4.0715431,13.6738641 4.69154687,13.9354508 C5.55078842,14.2979747 6.4774222,14.4871506 7.43180774,14.4871506 C11.328366,14.4871506 14.4871506,11.328366 14.4871506,7.43180774 C14.4871506,6.4774222 14.2979747,5.55078842 13.9354508,4.69154687 C13.6738641,4.0715431 14.2980079,3.4473993 14.9180117,3.708986 Z"/>
</svg>
