<svg xmlns="http://www.w3.org/2000/svg" width="24" height="24" viewBox="0 0 24 24">
  <g fill="#FFF">
    <path d="M6,15.5 L16.75,15.5 C17.7164983,15.5 18.5,14.7164983 18.5,13.75 C18.5,12.7835017 17.7164983,12 16.75,12 C16.4092052,12 16.0846422,12.0968321 15.8050367,12.2766999 C15.2396776,12.6403905 14.5182216,12.1339438 14.6681714,11.4786449 C14.7223622,11.2418241 14.75,10.9979854 14.75,10.75 C14.75,8.95507456 13.2949254,7.5 11.5,7.5 C9.8895879,7.5 8.52821764,8.6791992 8.28751168,10.2539431 C8.20905473,10.7672233 7.64533932,11.0474088 7.18881129,10.8000341 C6.82704751,10.6040084 6.4218847,10.5 6,10.5 C4.61928813,10.5 3.5,11.6192881 3.5,13 C3.5,14.3807119 4.61928813,15.5 6,15.5 Z M16.75,10.5 C18.5449254,10.5 20,11.9550746 20,13.75 C20,15.5449254 18.5449254,17 16.75,17 L6,17 C3.790861,17 2,15.209139 2,13 C2,10.790861 3.790861,9 6,9 C6.35233656,9 6.69852051,9.0457715 7.03162602,9.13447154 C7.69690206,7.29180264 9.46158001,6 11.5,6 C14.052665,6 16.1350323,8.0135844 16.2453997,10.5390512 C16.41098,10.5131953 16.579582,10.5 16.75,10.5 Z"/>
    <path d="M17.8030425 11.6193008C19.1475775 10.9394368 20.0139617 9.55948016 20.0139617 8.02530767 20.0139617 5.80219163 18.2117701 4 15.9886541 4 14.3889064 4 12.9607234 4.94207388 12.3159867 6.37572119 12.1460967 6.75349133 12.3146169 7.19745756 12.692387 7.36734752 13.0701571 7.53723748 13.5141234 7.36871731 13.6840133 6.99094717 14.0887422 6.09098529 14.9846753 5.5 15.9886541 5.5 17.383343 5.5 18.5139617 6.63061875 18.5139617 8.02530767 18.5139617 8.98827236 17.9706084 9.85371296 17.1261785 10.2806988 16.7565338 10.4676096 16.6083987 10.9187871 16.7953095 11.2884318 16.9822203 11.6580765 17.4333977 11.8062116 17.8030425 11.6193008zM15.4796565.729907657L15.7401288 2.20711929C15.913777 3.19192704 14.4365653 3.45239931 14.2629172 2.46759155L14.0024449.990379924C13.8287967.0055721709 15.3060083-.254900096 15.4796565.729907657zM20.7727932 2.49133001L19.9124285 3.72005807C19.3388521 4.53921012 18.110124 3.67884546 18.6837005 2.85969342L19.5440651 1.63096535C20.1176416.811813307 21.3463696 1.67217796 20.7727932 2.49133001zM10.49133 3.2272068L11.7200581 4.08757146C12.5392101 4.66114789 11.6788455 5.88987596 10.8596934 5.31629952L9.63096535 4.45593487C8.81181331 3.88235843 9.67217796 2.65363037 10.49133 3.2272068zM21.1403066 10.6837005L22.3690346 11.5440651C23.1881867 12.1176416 22.327822 13.3463696 21.50867 12.7727932L20.2799419 11.9124285C19.4607899 11.3388521 20.3211545 10.110124 21.1403066 10.6837005zM23.2700923 7.47965653L21.7928807 7.74012879C20.808073 7.91377697 20.5476007 6.43656534 21.5324084 6.26291716L23.0096201 6.0024449C23.9944278 5.82879672 24.2549001 7.30600835 23.2700923 7.47965653zM6.10853642 19.4631224L5.05853623 21.9625731C4.89810929 22.344458 5.07763644 22.7840886 5.45952134 22.9445155 5.84140623 23.1049425 6.28103684 22.9254153 6.44146377 22.5435304L7.49146396 20.0440797C7.6518909 19.6621948 7.47236375 19.2225642 7.09047885 19.0621373 6.70859396 18.9017104 6.26896336 19.0812375 6.10853642 19.4631224zM14.1085364 19.4631224L13.0585362 21.9625731C12.8981093 22.344458 13.0776364 22.7840886 13.4595213 22.9445155 13.8414062 23.1049425 14.2810368 22.9254153 14.4414638 22.5435304L15.491464 20.0440797C15.6518909 19.6621948 15.4723637 19.2225642 15.0904789 19.0621373 14.708594 18.9017104 14.2689634 19.0812375 14.1085364 19.4631224zM10.1085364 18.4631224L9.05853623 20.9625731C8.89810929 21.344458 9.07763644 21.7840886 9.45952134 21.9445155 9.84140623 22.1049425 10.2810368 21.9254153 10.4414638 21.5435304L11.491464 19.0440797C11.6518909 18.6621948 11.4723637 18.2225642 11.0904789 18.0621373 10.708594 17.9017104 10.2689634 18.0812375 10.1085364 18.4631224z"/>
  </g>
</svg>
