<svg xmlns="http://www.w3.org/2000/svg" width="24" height="24" viewBox="0 0 24 24">
  <g fill="#FFF">
    <path d="M8,14.5 L18.75,14.5 C19.7164983,14.5 20.5,13.7164983 20.5,12.75 C20.5,11.7835017 19.7164983,11 18.75,11 C18.4092052,11 18.0846422,11.0968321 17.8050367,11.2766999 C17.2396776,11.6403905 16.5182216,11.1339438 16.6681714,10.4786449 C16.7223622,10.2418241 16.75,9.99798536 16.75,9.75 C16.75,7.95507456 15.2949254,6.5 13.5,6.5 C11.8895879,6.5 10.5282176,7.6791992 10.2875117,9.25394311 C10.2090547,9.76722334 9.64533932,10.0474088 9.18881129,9.80003412 C8.82704751,9.60400845 8.4218847,9.5 8,9.5 C6.61928813,9.5 5.5,10.6192881 5.5,12 C5.5,13.3807119 6.61928813,14.5 8,14.5 Z M18.75,9.5 C20.5449254,9.5 22,10.9550746 22,12.75 C22,14.5449254 20.5449254,16 18.75,16 L8,16 C5.790861,16 4,14.209139 4,12 C4,9.790861 5.790861,8 8,8 C8.35233656,8 8.69852051,8.0457715 9.03162602,8.13447154 C9.69690206,6.29180264 11.46158,5 13.5,5 C16.052665,5 18.1350323,7.0135844 18.2453997,9.53905124 C18.41098,9.51319525 18.579582,9.5 18.75,9.5 Z"/>
    <path d="M3.21908468 8.52729039C6.15072574 8.52729039 8.52729039 6.15072574 8.52729039 3.21908468 8.52729039 3.06862977 8.52101259 2.91900374 8.50856738 2.77050233 9.29848126 3.51950783 9.7750001 4.57417427 9.7750001 5.71679439 9.7750001 6.18689408 9.69530617 6.64520803 9.54126298 7.07798254 9.4255131 7.40317447 9.59529942 7.76062844 9.92049135 7.87637833 10.2456833 7.99212822 10.6031373 7.82234189 10.7188871 7.49714996 10.9206599 6.93028241 11.0250001 6.3302293 11.0250001 5.71679439 11.0250001 3.56264273 9.72978739 1.64728438 7.77883463.824155018 7.26216482.606166096 6.74204498 1.12628594 6.9600339 1.64295574 7.16850503 2.1370668 7.27729039 2.66992636 7.27729039 3.21908468 7.27729039 5.46036981 5.46036981 7.27729039 3.21908468 7.27729039 2.66992636 7.27729039 2.1370668 7.16850503 1.64295574 6.9600339 1.12628594 6.74204498.606166096 7.26216482.824155018 7.77883463 1.48865446 9.35380823 2.88100981 10.5238138 4.55630302 10.8976262 4.89319622 10.972798 5.22724092 10.7606309 5.30241275 10.4237377 5.37758458 10.0868445 5.1654175 9.75279983 4.8285243 9.677628 4.03245161 9.49999828 3.31908801 9.08610297 2.77138584 8.50864134 2.9195972 8.52103747 3.06892814 8.52729039 3.21908468 8.52729039zM9.10853642 18.4631224L8.05853623 20.9625731C7.89810929 21.344458 8.07763644 21.7840886 8.45952134 21.9445155 8.84140623 22.1049425 9.28103684 21.9254153 9.44146377 21.5435304L10.491464 19.0440797C10.6518909 18.6621948 10.4723637 18.2225642 10.0904789 18.0621373 9.70859396 17.9017104 9.26896336 18.0812375 9.10853642 18.4631224zM14.1085364 17.4631224L13.0585362 19.9625731C12.8981093 20.344458 13.0776364 20.7840886 13.4595213 20.9445155 13.8414062 21.1049425 14.2810368 20.9254153 14.4414638 20.5435304L15.491464 18.0440797C15.6518909 17.6621948 15.4723637 17.2225642 15.0904789 17.0621373 14.708594 16.9017104 14.2689634 17.0812375 14.1085364 17.4631224z"/>
  </g>
</svg>
