<svg xmlns="http://www.w3.org/2000/svg" width="24" height="24" viewBox="0 0 24 24">
  <g fill="#FFF">
    <path d="M6,17.5 L16.75,17.5 C17.7164983,17.5 18.5,16.7164983 18.5,15.75 C18.5,14.7835017 17.7164983,14 16.75,14 C16.4092052,14 16.0846422,14.0968321 15.8050367,14.2766999 C15.2396776,14.6403905 14.5182216,14.1339438 14.6681714,13.4786449 C14.7223622,13.2418241 14.75,12.9979854 14.75,12.75 C14.75,10.9550746 13.2949254,9.5 11.5,9.5 C9.8895879,9.5 8.52821764,10.6791992 8.28751168,12.2539431 C8.20905473,12.7672233 7.64533932,13.0474088 7.18881129,12.8000341 C6.82704751,12.6040084 6.4218847,12.5 6,12.5 C4.61928813,12.5 3.5,13.6192881 3.5,15 C3.5,16.3807119 4.61928813,17.5 6,17.5 Z M16.75,12.5 C18.5449254,12.5 20,13.9550746 20,15.75 C20,17.5449254 18.5449254,19 16.75,19 L6,19 C3.790861,19 2,17.209139 2,15 C2,12.790861 3.790861,11 6,11 C6.35233656,11 6.69852051,11.0457715 7.03162602,11.1344715 C7.69690206,9.29180264 9.46158001,8 11.5,8 C14.052665,8 16.1350323,10.0135844 16.2453997,12.5390512 C16.41098,12.5131953 16.579582,12.5 16.75,12.5 Z"/>
    <path d="M17.8030425 13.6193008C19.1475775 12.9394368 20.0139617 11.5594802 20.0139617 10.0253077 20.0139617 7.80219163 18.2117701 6 15.9886541 6 14.3889064 6 12.9607234 6.94207388 12.3159867 8.37572119 12.1460967 8.75349133 12.3146169 9.19745756 12.692387 9.36734752 13.0701571 9.53723748 13.5141234 9.36871731 13.6840133 8.99094717 14.0887422 8.09098529 14.9846753 7.5 15.9886541 7.5 17.383343 7.5 18.5139617 8.63061875 18.5139617 10.0253077 18.5139617 10.9882724 17.9706084 11.853713 17.1261785 12.2806988 16.7565338 12.4676096 16.6083987 12.9187871 16.7953095 13.2884318 16.9822203 13.6580765 17.4333977 13.8062116 17.8030425 13.6193008zM15.4796565 2.72990766L15.7401288 4.20711929C15.913777 5.19192704 14.4365653 5.45239931 14.2629172 4.46759155L14.0024449 2.99037992C13.8287967 2.00557217 15.3060083 1.7450999 15.4796565 2.72990766zM20.7727932 4.49133001L19.9124285 5.72005807C19.3388521 6.53921012 18.110124 5.67884546 18.6837005 4.85969342L19.5440651 3.63096535C20.1176416 2.81181331 21.3463696 3.67217796 20.7727932 4.49133001zM10.49133 5.2272068L11.7200581 6.08757146C12.5392101 6.66114789 11.6788455 7.88987596 10.8596934 7.31629952L9.63096535 6.45593487C8.81181331 5.88235843 9.67217796 4.65363037 10.49133 5.2272068zM21.1403066 12.6837005L22.3690346 13.5440651C23.1881867 14.1176416 22.327822 15.3463696 21.50867 14.7727932L20.2799419 13.9124285C19.4607899 13.3388521 20.3211545 12.110124 21.1403066 12.6837005zM23.2700923 9.47965653L21.7928807 9.74012879C20.808073 9.91377697 20.5476007 8.43656534 21.5324084 8.26291716L23.0096201 8.0024449C23.9944278 7.82879672 24.2549001 9.30600835 23.2700923 9.47965653z"/>
  </g>
</svg>
