<svg xmlns="http://www.w3.org/2000/svg" width="24" height="24" viewBox="0 0 24 24">
  <g fill="#FFF">
    <path d="M15.875,18.63 L15.875,22.37 C15.875,22.715178 16.154822,22.995 16.5,22.995 C16.845178,22.995 17.125,22.715178 17.125,22.37 L17.125,18.63 C17.125,18.284822 16.845178,18.005 16.5,18.005 C16.154822,18.005 15.875,18.284822 15.875,18.63 Z"/>
    <path d="M15.1930325,19.0237341 L18.4319675,20.8937341 C19.1536553,21.3104008 18.5286553,22.3929325 17.8069675,21.9762659 L14.5680325,20.1062659 C13.8463447,19.6895992 14.4713447,18.6070675 15.1930325,19.0237341 Z"/>
    <path d="M18.4319675 20.1062659L15.1930325 21.9762659C14.4713447 22.3929325 13.8463447 21.3104008 14.5680325 20.8937341L17.8069675 19.0237341C18.5286553 18.6070675 19.1536553 19.6895992 18.4319675 20.1062659zM8.875 17.63L8.875 21.37C8.875 21.715178 9.15482203 21.995 9.5 21.995 9.84517797 21.995 10.125 21.715178 10.125 21.37L10.125 17.63C10.125 17.284822 9.84517797 17.005 9.5 17.005 9.15482203 17.005 8.875 17.284822 8.875 17.63z"/>
    <path d="M8.19303249,18.0237341 L11.4319675,19.8937341 C12.1536553,20.3104008 11.5286553,21.3929325 10.8069675,20.9762659 L7.56803249,19.1062659 C6.84634466,18.6895992 7.47134466,17.6070675 8.19303249,18.0237341 Z"/>
    <path d="M11.4319675 19.1062659L8.19303249 20.9762659C7.47134466 21.3929325 6.84634466 20.3104008 7.56803249 19.8937341L10.8069675 18.0237341C11.5286553 17.6070675 12.1536553 18.6895992 11.4319675 19.1062659zM8 14.5L18.75 14.5C19.7164983 14.5 20.5 13.7164983 20.5 12.75 20.5 11.7835017 19.7164983 11 18.75 11 18.4092052 11 18.0846422 11.0968321 17.8050367 11.2766999 17.2396776 11.6403905 16.5182216 11.1339438 16.6681714 10.4786449 16.7223622 10.2418241 16.75 9.99798536 16.75 9.75 16.75 7.95507456 15.2949254 6.5 13.5 6.5 11.8895879 6.5 10.5282176 7.6791992 10.2875117 9.25394311 10.2090547 9.76722334 9.64533932 10.0474088 9.18881129 9.80003412 8.82704751 9.60400845 8.4218847 9.5 8 9.5 6.61928813 9.5 5.5 10.6192881 5.5 12 5.5 13.3807119 6.61928813 14.5 8 14.5zM18.75 9.5C20.5449254 9.5 22 10.9550746 22 12.75 22 14.5449254 20.5449254 16 18.75 16L8 16C5.790861 16 4 14.209139 4 12 4 9.790861 5.790861 8 8 8 8.35233656 8 8.69852051 8.0457715 9.03162602 8.13447154 9.69690206 6.29180264 11.46158 5 13.5 5 16.052665 5 18.1350323 7.0135844 18.2453997 9.53905124 18.41098 9.51319525 18.579582 9.5 18.75 9.5z"/>
    <path d="M3.21908468,8.52729039 C6.15072574,8.52729039 8.52729039,6.15072574 8.52729039,3.21908468 C8.52729039,3.06862977 8.52101259,2.91900374 8.50856738,2.77050233 C9.29848126,3.51950783 9.7750001,4.57417427 9.7750001,5.71679439 C9.7750001,6.18689408 9.69530617,6.64520803 9.54126298,7.07798254 C9.4255131,7.40317447 9.59529942,7.76062844 9.92049135,7.87637833 C10.2456833,7.99212822 10.6031373,7.82234189 10.7188871,7.49714996 C10.9206599,6.93028241 11.0250001,6.3302293 11.0250001,5.71679439 C11.0250001,3.56264273 9.72978739,1.64728438 7.77883463,0.824155018 C7.26216482,0.606166096 6.74204498,1.12628594 6.9600339,1.64295574 C7.16850503,2.1370668 7.27729039,2.66992636 7.27729039,3.21908468 C7.27729039,5.46036981 5.46036981,7.27729039 3.21908468,7.27729039 C2.66992636,7.27729039 2.1370668,7.16850503 1.64295574,6.9600339 C1.12628594,6.74204498 0.606166096,7.26216482 0.824155018,7.77883463 C1.48865446,9.35380823 2.88100981,10.5238138 4.55630302,10.8976262 C4.89319622,10.972798 5.22724092,10.7606309 5.30241275,10.4237377 C5.37758458,10.0868445 5.1654175,9.75279983 4.8285243,9.677628 C4.03245161,9.49999828 3.31908801,9.08610297 2.77138584,8.50864134 C2.9195972,8.52103747 3.06892814,8.52729039 3.21908468,8.52729039 Z"/>
  </g>
</svg>
