<svg xmlns="http://www.w3.org/2000/svg" width="24" height="24" viewBox="0 0 24 24">
  <path fill="#FFF" d="M12.5,17.875 C10.1194329,17.875 8.20833333,15.8227397 8.20833333,13.3125 C8.20833333,12.5089501 8.5826578,11.5098642 9.24826805,10.3220187 C9.50948523,9.85585158 9.8118355,9.36901114 10.1473604,8.86799408 C10.5568851,8.25647811 10.9946176,7.65476321 11.4323271,7.08769281 C11.6953962,6.7468761 11.9009133,6.49222873 12.0204051,6.34923355 L12.5,5.77530513 L12.9795949,6.34923355 C13.0990867,6.49222873 13.3046038,6.7468761 13.5676729,7.08769281 C14.0053824,7.65476321 14.4431149,8.25647811 14.8526396,8.86799408 C15.1881645,9.36901114 15.4905148,9.85585158 15.751732,10.3220187 C16.4173422,11.5098642 16.7916667,12.5089501 16.7916667,13.3125 C16.7916667,15.8227397 14.8805671,17.875 12.5,17.875 Z M12.4218396,7.85147623 C12.000174,8.39776106 11.5785315,8.97735831 11.1859729,9.56354002 C10.8677997,10.0386468 10.5825787,10.497906 10.3387374,10.9330642 C9.7701888,11.9476938 9.45833333,12.7800477 9.45833333,13.3125 C9.45833333,15.1515027 10.8304789,16.625 12.5,16.625 C14.1695211,16.625 15.5416667,15.1515027 15.5416667,13.3125 C15.5416667,12.7800477 15.2298112,11.9476938 14.6612626,10.9330642 C14.4174213,10.497906 14.1322003,10.0386468 13.8140271,9.56354002 C13.4214685,8.97735831 12.999826,8.39776106 12.5781604,7.85147623 C12.5514581,7.81688224 12.5253932,7.78323764 12.5,7.75057327 C12.4746068,7.78323764 12.4485419,7.81688224 12.4218396,7.85147623 Z"/>
</svg>
