<svg xmlns="http://www.w3.org/2000/svg" width="24" height="24" viewBox="0 0 24 24">
  <g fill="none" fill-rule="evenodd">
    <path fill="#FFF" fill-rule="nonzero" d="M3.10732375 6.42788181C2.94499818 6.68462776 3.02154102 7.02435237 3.27828698 7.18667794 3.53503293 7.34900352 3.87475754 7.27246068 4.03708311 7.01571472L4.48485476 6.30748647C4.54448197 6.21317573 4.57401423 6.10295983 4.56953092 5.99147073L4.53586343 5.15424124C4.52365833 4.85072993 4.26771962 4.61457959 3.96420831 4.62678468 3.660697 4.63898978 3.42454665 4.89492849 3.43675175 5.1984398L3.4635349 5.86447231 3.10732375 6.42788181zM10.6330182 7.12667359C10.7953438 6.86992764 10.718801 6.53020303 10.462055 6.36787746 10.205309 6.20555188 9.86558444 6.28209472 9.70325887 6.53884068L9.25548722 7.24706893C9.19586001 7.34137967 9.16632775 7.45159557 9.17081106 7.56308467L9.20447855 8.40031416C9.21668365 8.70382547 9.47262236 8.93997581 9.77613367 8.92777072 10.079645 8.91556562 10.3157953 8.65962691 10.3035902 8.3561156L10.2768071 7.69008309 10.6330182 7.12667359z"/>
    <path fill="#FFF" fill-rule="nonzero" d="M3.14881816,5.21074231 L10.8762248,7.28129468 C11.5845704,7.47109531 11.2998694,8.53361372 10.5915238,8.34381308 L2.86411721,6.27326072 C2.1557716,6.08346009 2.44047255,5.02094168 3.14881816,5.21074231 Z"/>
    <polyline stroke="#FFF" stroke-linecap="round" stroke-linejoin="round" stroke-width="1.1" points="6.815 3.479 6.106 3.927 5.269 3.893"/>
    <path fill="#FFF" fill-rule="nonzero" d="M8.44900889,10.2106969 C8.7525202,10.222902 9.00845891,9.98675169 9.02066401,9.68324038 C9.0328691,9.37972907 8.79671876,9.12379036 8.49320745,9.11158526 L7.65597796,9.07791777 C7.54448886,9.07343446 7.43427296,9.10296672 7.33996222,9.16259393 L6.63173397,9.61036558 C6.37498801,9.77269115 6.29844517,10.1124158 6.46077075,10.3691617 C6.62309633,10.6259077 6.96282093,10.7024505 7.21956688,10.5401249 L7.78297638,10.1839138 L8.44900889,10.2106969 Z"/>
    <path fill="#FFF" fill-rule="nonzero" d="M6.36615401 2.77122392L8.43670638 10.4986305C8.62650701 11.2069761 7.5639886 11.4916771 7.37418797 10.7833315L5.30363561 3.05592487C5.11383497 2.34757926 6.17635338 2.06287831 6.36615401 2.77122392zM4.68616165 9.86130105C4.82734738 10.1302521 5.15982894 10.2338264 5.42877999 10.0926406 5.69773105 9.95145489 5.8013053 9.61897334 5.66011957 9.35002228L5.27066173 8.60812653C5.21879984 8.50933249 5.1381162 8.42864885 5.03932216 8.37678696L4.29742641 7.98732912C4.02847535 7.84614339 3.6959938 7.94971764 3.55480807 8.2186687 3.41362233 8.48761975 3.51719659 8.82010131 3.78614764 8.96128704L4.37634029 9.2711084 4.68616165 9.86130105z"/>
    <polyline stroke="#FFF" stroke-linecap="round" stroke-linejoin="round" stroke-width="1.1" points="9.699 5.08 8.957 4.691 8.567 3.949"/>
    <path fill="#FFF" fill-rule="nonzero" d="M3.65283514 9.21679609L9.30968939 3.55994185C9.82823436 3.04139687 10.6060518 3.81921433 10.0875068 4.3377593L4.4306526 9.99461355C3.91210762 10.5131585 3.13429016 9.73534107 3.65283514 9.21679609zM20.3651572 17.6567866L9.73997313 14.8097771C9.03162752 14.6199764 9.31632847 13.557458 10.0246741 13.7472587L20.6498582 16.5942682C21.3582038 16.7840688 21.0735028 17.8465872 20.3651572 17.6567866z"/>
    <path fill="#FFF" fill-rule="nonzero" d="M10.3733592 15.3677569C10.1365735 15.5580214 10.0988606 15.9042141 10.2891251 16.1409998 10.4793897 16.3777855 10.8255823 16.4154984 11.0623681 16.2252339L12.2701327 15.2547582C12.4570713 15.1045473 12.5251353 14.8505293 12.4383471 14.6269735L11.8776301 13.1826346C11.7676999 12.8994678 11.4490318 12.7590318 11.165865 12.868962 10.8826982 12.9788921 10.7422622 13.2975602 10.8521924 13.580727L11.2671386 14.6495779 10.3733592 15.3677569zM20.0164721 16.0362884C20.2532578 15.8460238 20.2909707 15.4998312 20.1007062 15.2630454 19.9104416 15.0262597 19.564249 14.9885468 19.3274632 15.1788114L18.1196986 16.1492871C17.93276 16.299498 17.864696 16.5535159 17.9514842 16.7770717L18.5122012 18.2214106C18.6221314 18.5045774 18.9407995 18.6450135 19.2239663 18.5350833 19.5071331 18.4251531 19.6475691 18.106485 19.5376389 17.8233182L19.1226927 16.7544673 20.0164721 16.0362884zM16.0871612 21.1569651L13.2401517 10.531781C13.0503511 9.82343544 14.1128695 9.53873449 14.3026701 10.2470801L17.1496796 20.8722642C17.3394802 21.5806098 16.2769618 21.8653107 16.0871612 21.1569651z"/>
    <path fill="#FFF" fill-rule="nonzero" d="M13.07362 11.3592994C12.7904532 11.2493692 12.4717852 11.3898052 12.361855 11.672972 12.2519248 11.9561388 12.3923608 12.2748069 12.6755276 12.384737L14.1198665 12.945454C14.3434223 13.0322422 14.5974403 12.9641783 14.7476512 12.7772396L15.7181269 11.569475C15.9083914 11.3326893 15.8706786 10.9864967 15.6338928 10.7962321 15.3971071 10.6059676 15.0509145 10.6436804 14.8606499 10.8804662L14.1424709 11.7742455 13.07362 11.3592994zM17.3162113 20.0447459C17.5993781 20.1546761 17.9180461 20.01424 18.0279763 19.7310732 18.1379065 19.4479064 17.9974705 19.1292384 17.7143037 19.0193082L16.2699648 18.4585912C16.046409 18.371803 15.792391 18.4398669 15.6421801 18.6268056L14.6717044 19.8345702C14.4814399 20.0713559 14.5191527 20.4175486 14.7559385 20.6078131 14.9927242 20.7980777 15.3389168 20.7603648 15.5291814 20.5235791L16.2473603 19.6297997 17.3162113 20.0447459zM19.4729117 12.2018441L11.6947371 19.9800186C11.1761921 20.4985636 10.3983746 19.7207462 10.9169196 19.2022012L18.6950942 11.4240266C19.2136392 10.9054816 19.9914566 11.6832991 19.4729117 12.2018441z"/>
    <path fill="#FFF" fill-rule="nonzero" d="M12.4946548 19.7104801C12.5410359 20.0106749 12.8219911 20.2164315 13.1221858 20.1700504 13.4223805 20.1236694 13.6281371 19.8427142 13.5817561 19.5425194L13.3451818 18.0113268C13.3085647 17.7743277 13.1226106 17.5883736 12.8856115 17.5517565L11.3544188 17.3151822C11.0542241 17.2688011 10.7732689 17.4745577 10.7268878 17.7747525 10.6805068 18.0749472 10.8862634 18.3559024 11.1864581 18.4022835L12.3195833 18.577355 12.4946548 19.7104801zM17.8951765 11.6935651C17.8487954 11.3933704 17.5678402 11.1876137 17.2676455 11.2339948 16.9674508 11.2803759 16.7616941 11.5613311 16.8080752 11.8615258L17.0446495 13.3927185C17.0812666 13.6297176 17.2672207 13.8156716 17.5042198 13.8522888L19.0354125 14.0888631C19.3356072 14.1352441 19.6165624 13.9294875 19.6629435 13.6292928 19.7093245 13.329098 19.5035679 13.0481428 19.2033732 13.0017618L18.070248 12.8266902 17.8951765 11.6935651z"/>
  </g>
</svg>
