<svg xmlns="http://www.w3.org/2000/svg" width="24" height="24" viewBox="0 0 24 24">
  <g fill="#FFF">
    <path d="M20.3651572,17.6567866 L9.73997313,14.8097771 C9.03162752,14.6199764 9.31632847,13.557458 10.0246741,13.7472587 L20.6498582,16.5942682 C21.3582038,16.7840688 21.0735028,17.8465872 20.3651572,17.6567866 Z"/>
    <path d="M10.3733592 15.3677569C10.1365735 15.5580214 10.0988606 15.9042141 10.2891251 16.1409998 10.4793897 16.3777855 10.8255823 16.4154984 11.0623681 16.2252339L12.2701327 15.2547582C12.4570713 15.1045473 12.5251353 14.8505293 12.4383471 14.6269735L11.8776301 13.1826346C11.7676999 12.8994678 11.4490318 12.7590318 11.165865 12.868962 10.8826982 12.9788921 10.7422622 13.2975602 10.8521924 13.580727L11.2671386 14.6495779 10.3733592 15.3677569zM20.0164721 16.0362884C20.2532578 15.8460238 20.2909707 15.4998312 20.1007062 15.2630454 19.9104416 15.0262597 19.564249 14.9885468 19.3274632 15.1788114L18.1196986 16.1492871C17.93276 16.299498 17.864696 16.5535159 17.9514842 16.7770717L18.5122012 18.2214106C18.6221314 18.5045774 18.9407995 18.6450135 19.2239663 18.5350833 19.5071331 18.4251531 19.6475691 18.106485 19.5376389 17.8233182L19.1226927 16.7544673 20.0164721 16.0362884zM16.0871612 21.1569651L13.2401517 10.531781C13.0503511 9.82343544 14.1128695 9.53873449 14.3026701 10.2470801L17.1496796 20.8722642C17.3394802 21.5806098 16.2769618 21.8653107 16.0871612 21.1569651z"/>
    <path d="M13.07362 11.3592994C12.7904532 11.2493692 12.4717852 11.3898052 12.361855 11.672972 12.2519248 11.9561388 12.3923608 12.2748069 12.6755276 12.384737L14.1198665 12.945454C14.3434223 13.0322422 14.5974403 12.9641783 14.7476512 12.7772396L15.7181269 11.569475C15.9083914 11.3326893 15.8706786 10.9864967 15.6338928 10.7962321 15.3971071 10.6059676 15.0509145 10.6436804 14.8606499 10.8804662L14.1424709 11.7742455 13.07362 11.3592994zM17.3162113 20.0447459C17.5993781 20.1546761 17.9180461 20.01424 18.0279763 19.7310732 18.1379065 19.4479064 17.9974705 19.1292384 17.7143037 19.0193082L16.2699648 18.4585912C16.046409 18.371803 15.792391 18.4398669 15.6421801 18.6268056L14.6717044 19.8345702C14.4814399 20.0713559 14.5191527 20.4175486 14.7559385 20.6078131 14.9927242 20.7980777 15.3389168 20.7603648 15.5291814 20.5235791L16.2473603 19.6297997 17.3162113 20.0447459zM19.4729117 12.2018441L11.6947371 19.9800186C11.1761921 20.4985636 10.3983746 19.7207462 10.9169196 19.2022012L18.6950942 11.4240266C19.2136392 10.9054816 19.9914566 11.6832991 19.4729117 12.2018441z"/>
    <path d="M12.4946548 19.7104801C12.5410359 20.0106749 12.8219911 20.2164315 13.1221858 20.1700504 13.4223805 20.1236694 13.6281371 19.8427142 13.5817561 19.5425194L13.3451818 18.0113268C13.3085647 17.7743277 13.1226106 17.5883736 12.8856115 17.5517565L11.3544188 17.3151822C11.0542241 17.2688011 10.7732689 17.4745577 10.7268878 17.7747525 10.6805068 18.0749472 10.8862634 18.3559024 11.1864581 18.4022835L12.3195833 18.577355 12.4946548 19.7104801zM17.8951765 11.6935651C17.8487954 11.3933704 17.5678402 11.1876137 17.2676455 11.2339948 16.9674508 11.2803759 16.7616941 11.5613311 16.8080752 11.8615258L17.0446495 13.3927185C17.0812666 13.6297176 17.2672207 13.8156716 17.5042198 13.8522888L19.0354125 14.0888631C19.3356072 14.1352441 19.6165624 13.9294875 19.6629435 13.6292928 19.7093245 13.329098 19.5035679 13.0481428 19.2033732 13.0017618L18.070248 12.8266902 17.8951765 11.6935651zM7 11.375C5.17440151 11.375 3.70833333 9.82875622 3.70833333 7.9375 3.70833333 7.32253733 3.99001175 6.58415234 4.4887785 5.70994973 4.68131766 5.3724809 4.90372448 5.02075929 5.15028554 4.65916059 5.45059164 4.21874109 5.77127541 3.78579522 6.09193174 3.37779019 6.2847685 3.13242354 6.43567096 2.94878567 6.52398265 2.84499076L7 2.28551582 7.47601735 2.84499076C7.56432904 2.94878567 7.7152315 3.13242354 7.90806826 3.37779019 8.22872459 3.78579522 8.54940836 4.21874109 8.84971446 4.65916059 9.09627552 5.02075929 9.31868234 5.3724809 9.5112215 5.70994973 10.0099883 6.58415234 10.2916667 7.32253733 10.2916667 7.9375 10.2916667 9.82875622 8.82559849 11.375 7 11.375zM6.1830478 5.36336377C5.95419206 5.6989964 5.74927428 6.02306024 5.57449819 6.32939524 5.17569487 7.02838912 4.95833333 7.5981754 4.95833333 7.9375 4.95833333 9.1528455 5.88007982 10.125 7 10.125 8.11992018 10.125 9.04166667 9.1528455 9.04166667 7.9375 9.04166667 7.5981754 8.82430513 7.02838912 8.42550181 6.32939524 8.25072572 6.02306024 8.04580794 5.6989964 7.8169522 5.36336377 7.55709558 4.9822662 7.279293 4.60473466 7 4.24576029 6.720707 4.60473466 6.44290442 4.9822662 6.1830478 5.36336377z"/>
  </g>
</svg>
