<svg xmlns="http://www.w3.org/2000/svg" width="24" height="24" viewBox="0 0 24 24">
  <g fill="#FFF">
    <path d="M15 16L12.5 16C12.0425837 16 11.6917015 15.5940686 11.7578945 15.141467L12.8547698 7.64146704C12.9086443 7.2730943 13.2245838 7 13.5968753 7L17.7406248 7C18.2095374 7 18.5634612 7.42547067 18.4780902 7.88654629L17.9016149 11 20.625 11C21.1972654 11 21.5586988 11.6151139 21.280176 12.1150266L16.405176 20.8650266C16.0287521 21.5406592 15 21.2734173 15 20.5L15 16zM13.367666 14.5L15.75 14.5C16.1642136 14.5 16.5 14.8357864 16.5 15.25L16.5 17.6128626 19.3485949 12.5 17 12.5C16.5310875 12.5 16.1771637 12.0745293 16.2625347 11.6134537L16.83901 8.5 14.2451662 8.5 13.367666 14.5zM7 11.375C5.17440151 11.375 3.70833333 9.82875622 3.70833333 7.9375 3.70833333 7.32253733 3.99001175 6.58415234 4.4887785 5.70994973 4.68131766 5.3724809 4.90372448 5.02075929 5.15028554 4.65916059 5.45059164 4.21874109 5.77127541 3.78579522 6.09193174 3.37779019 6.2847685 3.13242354 6.43567096 2.94878567 6.52398265 2.84499076L7 2.28551582 7.47601735 2.84499076C7.56432904 2.94878567 7.7152315 3.13242354 7.90806826 3.37779019 8.22872459 3.78579522 8.54940836 4.21874109 8.84971446 4.65916059 9.09627552 5.02075929 9.31868234 5.3724809 9.5112215 5.70994973 10.0099883 6.58415234 10.2916667 7.32253733 10.2916667 7.9375 10.2916667 9.82875622 8.82559849 11.375 7 11.375zM6.1830478 5.36336377C5.95419206 5.6989964 5.74927428 6.02306024 5.57449819 6.32939524 5.17569487 7.02838912 4.95833333 7.5981754 4.95833333 7.9375 4.95833333 9.1528455 5.88007982 10.125 7 10.125 8.11992018 10.125 9.04166667 9.1528455 9.04166667 7.9375 9.04166667 7.5981754 8.82430513 7.02838912 8.42550181 6.32939524 8.25072572 6.02306024 8.04580794 5.6989964 7.8169522 5.36336377 7.55709558 4.9822662 7.279293 4.60473466 7 4.24576029 6.720707 4.60473466 6.44290442 4.9822662 6.1830478 5.36336377z"/>
  </g>
</svg>
