<svg xmlns="http://www.w3.org/2000/svg" width="24" height="24" viewBox="0 0 24 24">
  <g fill="#FFF">
    <path d="M6,17.5 L16.75,17.5 C17.7164983,17.5 18.5,16.7164983 18.5,15.75 C18.5,14.7835017 17.7164983,14 16.75,14 C16.4092052,14 16.0846422,14.0968321 15.8050367,14.2766999 C15.2396776,14.6403905 14.5182216,14.1339438 14.6681714,13.4786449 C14.7223622,13.2418241 14.75,12.9979854 14.75,12.75 C14.75,10.9550746 13.2949254,9.5 11.5,9.5 C9.8895879,9.5 8.52821764,10.6791992 8.28751168,12.2539431 C8.20905473,12.7672233 7.64533932,13.0474088 7.18881129,12.8000341 C6.82704751,12.6040084 6.4218847,12.5 6,12.5 C4.61928813,12.5 3.5,13.6192881 3.5,15 C3.5,16.3807119 4.61928813,17.5 6,17.5 Z M16.75,12.5 C18.5449254,12.5 20,13.9550746 20,15.75 C20,17.5449254 18.5449254,19 16.75,19 L6,19 C3.790861,19 2,17.209139 2,15 C2,12.790861 3.790861,11 6,11 C6.35233656,11 6.69852051,11.0457715 7.03162602,11.1344715 C7.69690206,9.29180264 9.46158001,8 11.5,8 C14.052665,8 16.1350323,10.0135844 16.2453997,12.5390512 C16.41098,12.5131953 16.579582,12.5 16.75,12.5 Z"/>
    <path d="M19.25,7.5 C19.25,5.01471863 17.2352814,3 14.75,3 C12.9854581,3 11.4221394,4.02438967 10.6887169,5.55918937 C10.4629375,5.51995715 10.2327123,5.5 10,5.5 C7.790861,5.5 6,7.290861 6,9.5 C6,10.1717133 6.16635872,10.8210757 6.4794,11.400102 C6.67639195,11.7644741 7.13146744,11.9001626 7.49583957,11.7031707 C7.8602117,11.5061787 7.99590015,11.0511032 7.79890821,10.6867311 C7.603606,10.3254844 7.5,9.92107016 7.5,9.5 C7.5,8.11928813 8.61928813,7 10,7 C10.305832,7 10.6029962,7.05459054 10.8819934,7.15981018 C11.2915689,7.31427553 11.745837,7.08661551 11.8672314,6.66605039 C12.2345817,5.39338344 13.4048245,4.5 14.75,4.5 C16.4068542,4.5 17.75,5.84314575 17.75,7.5 C17.75,7.70421116 17.7297053,7.90535928 17.6898128,8.10160682 C17.5936982,8.57443324 17.962592,9.01369076 18.4449146,9.00073853 C18.4723787,9.00012378 18.4723787,9.00012378 18.5,9 C19.6045695,9 20.5,9.8954305 20.5,11 C20.5,12.0367406 19.7073959,12.8994746 18.6826866,12.9918161 C18.2701448,13.0289922 17.9658507,13.3935607 18.0030268,13.8061026 C18.040203,14.2186445 18.4047715,14.5229386 18.8173134,14.4857624 C20.6134711,14.323902 22,12.8146925 22,11 C22,9.32418996 20.8222386,7.92346083 19.249294,7.58039082 C19.2497645,7.55362223 19.25,7.52682453 19.25,7.5 Z"/>
  </g>
</svg>
