<svg xmlns="http://www.w3.org/2000/svg" width="24" height="24" viewBox="0 0 24 24">
  <g fill="#FFF">
    <path d="M10.8066069,20.6140956 C10.5934778,20.96927 10.7086282,21.429971 11.0638026,21.6431001 C11.418977,21.8562293 11.879678,21.7410788 12.0928072,21.3859044 L14.6431001,17.1359044 C14.9430702,16.6360117 14.5829878,16 14,16 L11.1322753,16 L12.1402882,13.6206957 C12.3018706,13.2392983 12.1236752,12.7991262 11.7422777,12.6375438 C11.3608803,12.4759615 10.9207082,12.6541568 10.7591258,13.0355543 L9.30941881,16.4574293 C9.09990052,16.9519743 9.46290346,17.5 10,17.5 L12.6752789,17.5 L10.8066069,20.6140956 Z"/>
    <path d="M17.5808824,7.275 C19.4656525,7.275 21,8.77680077 21,10.6375 C21,12.4981992 19.4656525,14 17.5808824,14 L14.9117647,14 C14.4975511,14 14.1617647,13.6642136 14.1617647,13.25 C14.1617647,12.8357864 14.4975511,12.5 14.9117647,12.5 L17.5808824,12.5 C18.6443382,12.5 19.5,11.6624886 19.5,10.6375 C19.5,9.61251142 18.6443382,8.775 17.5808824,8.775 C17.2456289,8.775 16.9246567,8.85793126 16.6402683,9.0135613 C16.0753254,9.32272335 15.4091218,8.82299655 15.5478229,8.1941057 C15.5940873,7.98433618 15.6176471,7.76890471 15.6176471,7.55 C15.6176471,5.86917328 14.2188013,4.5 12.4852941,4.5 C10.9379327,4.5 9.63254273,5.59888751 9.39227132,7.06465635 C9.31114123,7.55958813 8.77647208,7.83696912 8.3251236,7.61828186 C7.96268489,7.44267314 7.56249689,7.35 7.14705882,7.35 C5.68157218,7.35 4.5,8.50650853 4.5,9.925 C4.5,11.3434915 5.68157218,12.5 7.14705882,12.5 L7.875,12.5 C8.28921356,12.5 8.625,12.8357864 8.625,13.25 C8.625,13.6642136 8.28921356,14 7.875,14 L7.14705882,14 C4.8602579,14 3,12.1792021 3,9.925 C3,7.67079788 4.8602579,5.85 7.14705882,5.85 C7.4854381,5.85 7.81846455,5.88999661 8.14046456,5.9678185 C8.79970902,4.21870316 10.5134028,3 12.4852941,3 C14.9572009,3 16.9822952,4.90361567 17.1111371,7.30656291 C17.2657056,7.28563722 17.4225769,7.275 17.5808824,7.275 Z"/>
  </g>
</svg>
