<svg xmlns="http://www.w3.org/2000/svg" width="24" height="24" viewBox="0 0 24 24">
  <g fill="#FFF">
    <path d="M10.875,17.63 L10.875,21.37 C10.875,21.715178 11.154822,21.995 11.5,21.995 C11.845178,21.995 12.125,21.715178 12.125,21.37 L12.125,17.63 C12.125,17.284822 11.845178,17.005 11.5,17.005 C11.154822,17.005 10.875,17.284822 10.875,17.63 Z"/>
    <path d="M10.1930325,18.0237341 L13.4319675,19.8937341 C14.1536553,20.3104008 13.5286553,21.3929325 12.8069675,20.9762659 L9.56803249,19.1062659 C8.84634466,18.6895992 9.47134466,17.6070675 10.1930325,18.0237341 Z"/>
    <path d="M13.4319675 19.1062659L10.1930325 20.9762659C9.47134466 21.3929325 8.84634466 20.3104008 9.56803249 19.8937341L12.8069675 18.0237341C13.5286553 17.6070675 14.1536553 18.6895992 13.4319675 19.1062659zM16.875 15.63L16.875 19.37C16.875 19.715178 17.154822 19.995 17.5 19.995 17.845178 19.995 18.125 19.715178 18.125 19.37L18.125 15.63C18.125 15.284822 17.845178 15.005 17.5 15.005 17.154822 15.005 16.875 15.284822 16.875 15.63z"/>
    <path d="M16.1930325,16.0237341 L19.4319675,17.8937341 C20.1536553,18.3104008 19.5286553,19.3929325 18.8069675,18.9762659 L15.5680325,17.1062659 C14.8463447,16.6895992 15.4713447,15.6070675 16.1930325,16.0237341 Z"/>
    <path d="M19.4319675 17.1062659L16.1930325 18.9762659C15.4713447 19.3929325 14.8463447 18.3104008 15.5680325 17.8937341L18.8069675 16.0237341C19.5286553 15.6070675 20.1536553 16.6895992 19.4319675 17.1062659zM4.875 15.63L4.875 19.37C4.875 19.715178 5.15482203 19.995 5.5 19.995 5.84517797 19.995 6.125 19.715178 6.125 19.37L6.125 15.63C6.125 15.284822 5.84517797 15.005 5.5 15.005 5.15482203 15.005 4.875 15.284822 4.875 15.63z"/>
    <path d="M4.19303249,16.0237341 L7.43196751,17.8937341 C8.15365534,18.3104008 7.52865534,19.3929325 6.80696751,18.9762659 L3.56803249,17.1062659 C2.84634466,16.6895992 3.47134466,15.6070675 4.19303249,16.0237341 Z"/>
    <path d="M7.43196751 17.1062659L4.19303249 18.9762659C3.47134466 19.3929325 2.84634466 18.3104008 3.56803249 17.8937341L6.80696751 16.0237341C7.52865534 15.6070675 8.15365534 16.6895992 7.43196751 17.1062659zM7 12.5L17.75 12.5C18.7164983 12.5 19.5 11.7164983 19.5 10.75 19.5 9.78350169 18.7164983 9 17.75 9 17.4092052 9 17.0846422 9.09683208 16.8050367 9.27669991 16.2396776 9.64039047 15.5182216 9.13394384 15.6681714 8.47864487 15.7223622 8.24182409 15.75 7.99798536 15.75 7.75 15.75 5.95507456 14.2949254 4.5 12.5 4.5 10.8895879 4.5 9.52821764 5.6791992 9.28751168 7.25394311 9.20905473 7.76722334 8.64533932 8.04740884 8.18881129 7.80003412 7.82704751 7.60400845 7.4218847 7.5 7 7.5 5.61928813 7.5 4.5 8.61928813 4.5 10 4.5 11.3807119 5.61928813 12.5 7 12.5zM17.75 7.5C19.5449254 7.5 21 8.95507456 21 10.75 21 12.5449254 19.5449254 14 17.75 14L7 14C4.790861 14 3 12.209139 3 10 3 7.790861 4.790861 6 7 6 7.35233656 6 7.69852051 6.0457715 8.03162602 6.13447154 8.69690206 4.29180264 10.46158 3 12.5 3 15.052665 3 17.1350323 5.0135844 17.2453997 7.53905124 17.41098 7.51319525 17.579582 7.5 17.75 7.5z"/>
  </g>
</svg>
