<svg xmlns="http://www.w3.org/2000/svg" width="24" height="24" viewBox="0 0 24 24">
  <g fill="#FFF">
    <path d="M14.875,17.63 L14.875,21.37 C14.875,21.715178 15.154822,21.995 15.5,21.995 C15.845178,21.995 16.125,21.715178 16.125,21.37 L16.125,17.63 C16.125,17.284822 15.845178,17.005 15.5,17.005 C15.154822,17.005 14.875,17.284822 14.875,17.63 Z"/>
    <path d="M14.1930325,18.0237341 L17.4319675,19.8937341 C18.1536553,20.3104008 17.5286553,21.3929325 16.8069675,20.9762659 L13.5680325,19.1062659 C12.8463447,18.6895992 13.4713447,17.6070675 14.1930325,18.0237341 Z"/>
    <path d="M17.4319675 19.1062659L14.1930325 20.9762659C13.4713447 21.3929325 12.8463447 20.3104008 13.5680325 19.8937341L16.8069675 18.0237341C17.5286553 17.6070675 18.1536553 18.6895992 17.4319675 19.1062659zM7.875 15.63L7.875 19.37C7.875 19.715178 8.15482203 19.995 8.5 19.995 8.84517797 19.995 9.125 19.715178 9.125 19.37L9.125 15.63C9.125 15.284822 8.84517797 15.005 8.5 15.005 8.15482203 15.005 7.875 15.284822 7.875 15.63z"/>
    <path d="M7.19303249,16.0237341 L10.4319675,17.8937341 C11.1536553,18.3104008 10.5286553,19.3929325 9.80696751,18.9762659 L6.56803249,17.1062659 C5.84634466,16.6895992 6.47134466,15.6070675 7.19303249,16.0237341 Z"/>
    <path d="M10.4319675 17.1062659L7.19303249 18.9762659C6.47134466 19.3929325 5.84634466 18.3104008 6.56803249 17.8937341L9.80696751 16.0237341C10.5286553 15.6070675 11.1536553 16.6895992 10.4319675 17.1062659zM7 12.5L17.75 12.5C18.7164983 12.5 19.5 11.7164983 19.5 10.75 19.5 9.78350169 18.7164983 9 17.75 9 17.4092052 9 17.0846422 9.09683208 16.8050367 9.27669991 16.2396776 9.64039047 15.5182216 9.13394384 15.6681714 8.47864487 15.7223622 8.24182409 15.75 7.99798536 15.75 7.75 15.75 5.95507456 14.2949254 4.5 12.5 4.5 10.8895879 4.5 9.52821764 5.6791992 9.28751168 7.25394311 9.20905473 7.76722334 8.64533932 8.04740884 8.18881129 7.80003412 7.82704751 7.60400845 7.4218847 7.5 7 7.5 5.61928813 7.5 4.5 8.61928813 4.5 10 4.5 11.3807119 5.61928813 12.5 7 12.5zM17.75 7.5C19.5449254 7.5 21 8.95507456 21 10.75 21 12.5449254 19.5449254 14 17.75 14L7 14C4.790861 14 3 12.209139 3 10 3 7.790861 4.790861 6 7 6 7.35233656 6 7.69852051 6.0457715 8.03162602 6.13447154 8.69690206 4.29180264 10.46158 3 12.5 3 15.052665 3 17.1350323 5.0135844 17.2453997 7.53905124 17.41098 7.51319525 17.579582 7.5 17.75 7.5z"/>
  </g>
</svg>
