<svg xmlns="http://www.w3.org/2000/svg" width="24" height="24" viewBox="0 0 24 24">
  <g fill="#FFF">
    <path d="M12 17.25C9.10050506 17.25 6.75 14.8994949 6.75 12 6.75 9.10050506 9.10050506 6.75 12 6.75 14.8994949 6.75 17.25 9.10050506 17.25 12 17.25 14.8994949 14.8994949 17.25 12 17.25zM12 15.75C14.0710678 15.75 15.75 14.0710678 15.75 12 15.75 9.92893219 14.0710678 8.25 12 8.25 9.92893219 8.25 8.25 9.92893219 8.25 12 8.25 14.0710678 9.92893219 15.75 12 15.75zM16.6994346 2.60317418L15.5244932 5.43973358C15.1418098 6.36361311 13.7559905 5.78958796 14.1386739 4.86570843L15.3136153 2.02914903C15.6962987 1.1052695 17.082118 1.67929464 16.6994346 2.60317418zM9.85365319 19.1303525L8.67871181 21.9669119C8.29602838 22.8907914 6.91020908 22.3167663 7.29289251 21.3928867L8.46783389 18.5563273C8.85051732 17.6324478 10.2363366 18.2064729 9.85365319 19.1303525zM21.96602 8.68155371L19.1294606 9.85649509C18.205581 10.2391785 17.6315559 8.85335922 18.5554354 8.47067579L21.3919948 7.29573441C22.3158744 6.91305098 22.8898995 8.29887028 21.96602 8.68155371zM5.43884167 15.5273351L2.60228226 16.7022765C1.67840273 17.0849599 1.10437758 15.6991406 2.02825712 15.3164572L4.86481652 14.1415158C5.78869605 13.7588324 6.3627212 15.1446517 5.43884167 15.5273351zM21.3919948 16.7036553L18.5554354 15.528714C17.6315559 15.1460305 18.205581 13.7602112 19.1294606 14.1428947L21.96602 15.317836C22.8898995 15.7005195 22.3158744 17.0863388 21.3919948 16.7036553zM4.86481652 9.85787394L2.02825712 8.68293256C1.10437758 8.30024913 1.67840273 6.91442983 2.60228226 7.29711326L5.43884167 8.47205464C6.3627212 8.85473807 5.78869605 10.2405574 4.86481652 9.85787394zM8.67733296 2.02914903L9.85227434 4.86570843C10.2349578 5.78958796 8.84913847 6.36361311 8.46645504 5.43973358L7.29151366 2.60317418C6.90883023 1.67929464 8.29464953 1.1052695 8.67733296 2.02914903zM15.5231144 18.5563273L16.6980557 21.3928867C17.0807392 22.3167663 15.6949199 22.8907914 15.3122364 21.9669119L14.1372951 19.1303525C13.7546116 18.2064729 15.1404309 17.6324478 15.5231144 18.5563273z"/>
  </g>
</svg>
