<svg xmlns="http://www.w3.org/2000/svg" width="24" height="24" viewBox="0 0 24 24">
  <defs>
    <linearGradient id="bkn_ra_n-a" x1="50%" x2="50%" y1="0%" y2="100%">
      <stop offset="0%" stop-color="#FFBE1D"/>
      <stop offset="100%" stop-color="#FFB300"/>
    </linearGradient>
    <radialGradient id="bkn_ra_n-b" cx="38.236%" cy="10.579%" r="93.609%" fx="38.236%" fy="10.579%">
      <stop offset="0%" stop-color="#F03C00" stop-opacity="0"/>
      <stop offset="72.663%" stop-color="#F03C00" stop-opacity="0"/>
      <stop offset="100%" stop-color="#F03C00"/>
    </radialGradient>
    <radialGradient id="bkn_ra_n-c" cx="88.2%" cy="11.315%" fx="88.2%" fy="11.315%">
      <stop offset="0%" stop-color="#9699C7"/>
      <stop offset="100%" stop-color="#9499C9" stop-opacity="0"/>
    </radialGradient>
    <radialGradient id="bkn_ra_n-d" cx="8.171%" cy="-6.535%" r="63.588%" fx="8.171%" fy="-6.535%">
      <stop offset="0%" stop-color="#9699C7"/>
      <stop offset="100%" stop-color="#9499C9" stop-opacity="0"/>
    </radialGradient>
    <linearGradient id="bkn_ra_n-e" x1="50%" x2="50%" y1="0%" y2="100%">
      <stop offset="0%" stop-color="#A4C5F4"/>
      <stop offset="100%" stop-color="#A7C7F2"/>
    </linearGradient>
    <radialGradient id="bkn_ra_n-f" cx="88.2%" cy="9.456%" r="48.142%" fx="88.2%" fy="9.456%">
      <stop offset="0%" stop-color="#486DA8"/>
      <stop offset="100%" stop-color="#486DA8" stop-opacity="0"/>
    </radialGradient>
    <radialGradient id="bkn_ra_n-g" cx="14.445%" cy="0%" fx="14.445%" fy="0%">
      <stop offset="0%" stop-color="#486DA8"/>
      <stop offset="100%" stop-color="#486DA8" stop-opacity="0"/>
    </radialGradient>
    <linearGradient id="bkn_ra_n-h" x1="50%" x2="50%" y1="0%" y2="122.366%">
      <stop offset="0%" stop-color="#A4C5F4"/>
      <stop offset="100%" stop-color="#A7C7F2"/>
    </linearGradient>
  </defs>
  <g fill="none" fill-rule="evenodd">
    <path fill="url(#bkn_ra_n-a)" d="M7.50825261,1.36674739 C9.1927071,2.07743807 10.375,3.74439938 10.375,5.6875 C10.375,8.27633476 8.27633476,10.375 5.6875,10.375 C3.74439938,10.375 2.07743807,9.1927071 1.36674739,7.50825261 C1.92652786,7.74443042 2.54176585,7.875 3.1875,7.875 C5.77633476,7.875 7.875,5.77633476 7.875,3.1875 C7.875,2.54176585 7.74443042,1.92652786 7.50825261,1.36674739 L7.50825261,1.36674739 Z"/>
    <circle cx="5.688" cy="5.688" r="4.688" fill="url(#bkn_ra_n-b)" opacity=".3"/>
    <circle cx="8" cy="12" r="4" fill="url(#bkn_ra_n-c)" opacity=".2"/>
    <circle cx="18.5" cy="13.5" r="2.5" fill="url(#bkn_ra_n-d)" opacity=".2"/>
    <path fill="url(#bkn_ra_n-e)" d="M8,16 C5.790861,16 4,14.209139 4,12 C4,9.790861 5.790861,8 8,8 C8.41665567,8 8.81843235,8.06370454 9.19612127,8.18190486 C9.75960062,6.33975064 11.4733425,5 13.5,5 C15.9852814,5 18,7.01471863 18,9.5 C18,9.73456947 17.9820524,9.96494706 17.9474555,10.1898344 C18.2749642,10.0671106 18.6296448,10 19,10 C20.6568542,10 22,11.3431458 22,13 C22,14.6568542 20.6568542,16 19,16 L8,16 Z"/>
    <circle cx="8" cy="12" r="4" fill="url(#bkn_ra_n-f)" opacity=".344"/>
    <circle cx="19" cy="13" r="3" fill="url(#bkn_ra_n-g)" opacity=".2"/>
    <circle cx="13.5" cy="9.5" r="4.5" fill="url(#bkn_ra_n-h)"/>
    <path fill="#66AFEB" fill-rule="nonzero" d="M8.10853642 18.4631224L7.05853623 20.9625731C6.89810929 21.344458 7.07763644 21.7840886 7.45952134 21.9445155 7.84140623 22.1049425 8.28103684 21.9254153 8.44146377 21.5435304L9.49146396 19.0440797C9.6518909 18.6621948 9.47236375 18.2225642 9.09047885 18.0621373 8.70859396 17.9017104 8.26896336 18.0812375 8.10853642 18.4631224zM16.1085364 18.4631224L15.0585362 20.9625731C14.8981093 21.344458 15.0776364 21.7840886 15.4595213 21.9445155 15.8414062 22.1049425 16.2810368 21.9254153 16.4414638 21.5435304L17.491464 19.0440797C17.6518909 18.6621948 17.4723637 18.2225642 17.0904789 18.0621373 16.708594 17.9017104 16.2689634 18.0812375 16.1085364 18.4631224zM12.1085364 17.4631224L11.0585362 19.9625731C10.8981093 20.344458 11.0776364 20.7840886 11.4595213 20.9445155 11.8414062 21.1049425 12.2810368 20.9254153 12.4414638 20.5435304L13.491464 18.0440797C13.6518909 17.6621948 13.4723637 17.2225642 13.0904789 17.0621373 12.708594 16.9017104 12.2689634 17.0812375 12.1085364 17.4631224z"/>
  </g>
</svg>
