<svg xmlns="http://www.w3.org/2000/svg" width="24" height="24" viewBox="0 0 24 24">
  <defs>
    <linearGradient id="bkn_sn_n-a" x1="50%" x2="50%" y1="0%" y2="100%">
      <stop offset="0%" stop-color="#FFBE1D"/>
      <stop offset="100%" stop-color="#FFB300"/>
    </linearGradient>
    <radialGradient id="bkn_sn_n-b" cx="38.236%" cy="10.579%" r="93.609%" fx="38.236%" fy="10.579%">
      <stop offset="0%" stop-color="#F03C00" stop-opacity="0"/>
      <stop offset="72.663%" stop-color="#F03C00" stop-opacity="0"/>
      <stop offset="100%" stop-color="#F03C00"/>
    </radialGradient>
    <radialGradient id="bkn_sn_n-c" cx="88.2%" cy="11.315%" fx="88.2%" fy="11.315%">
      <stop offset="0%" stop-color="#9699C7"/>
      <stop offset="100%" stop-color="#9499C9" stop-opacity="0"/>
    </radialGradient>
    <radialGradient id="bkn_sn_n-d" cx="8.171%" cy="-6.535%" r="63.588%" fx="8.171%" fy="-6.535%">
      <stop offset="0%" stop-color="#9699C7"/>
      <stop offset="100%" stop-color="#9499C9" stop-opacity="0"/>
    </radialGradient>
    <linearGradient id="bkn_sn_n-e" x1="50%" x2="50%" y1="0%" y2="100%">
      <stop offset="0%" stop-color="#A4C5F4"/>
      <stop offset="100%" stop-color="#A7C7F2"/>
    </linearGradient>
    <radialGradient id="bkn_sn_n-f" cx="88.2%" cy="9.456%" r="48.142%" fx="88.2%" fy="9.456%">
      <stop offset="0%" stop-color="#486DA8"/>
      <stop offset="100%" stop-color="#486DA8" stop-opacity="0"/>
    </radialGradient>
    <radialGradient id="bkn_sn_n-g" cx="14.445%" cy="0%" fx="14.445%" fy="0%">
      <stop offset="0%" stop-color="#486DA8"/>
      <stop offset="100%" stop-color="#486DA8" stop-opacity="0"/>
    </radialGradient>
    <linearGradient id="bkn_sn_n-h" x1="50%" x2="50%" y1="0%" y2="122.366%">
      <stop offset="0%" stop-color="#A4C5F4"/>
      <stop offset="100%" stop-color="#A7C7F2"/>
    </linearGradient>
  </defs>
  <g fill="none" fill-rule="evenodd">
    <path fill="url(#bkn_sn_n-a)" d="M7.50825261,1.36674739 C9.1927071,2.07743807 10.375,3.74439938 10.375,5.6875 C10.375,8.27633476 8.27633476,10.375 5.6875,10.375 C3.74439938,10.375 2.07743807,9.1927071 1.36674739,7.50825261 C1.92652786,7.74443042 2.54176585,7.875 3.1875,7.875 C5.77633476,7.875 7.875,5.77633476 7.875,3.1875 C7.875,2.54176585 7.74443042,1.92652786 7.50825261,1.36674739 L7.50825261,1.36674739 Z"/>
    <circle cx="5.688" cy="5.688" r="4.688" fill="url(#bkn_sn_n-b)" opacity=".3"/>
    <path fill="#67C8E2" fill-rule="nonzero" d="M15.875,18.63 L15.875,22.37 C15.875,22.715178 16.154822,22.995 16.5,22.995 C16.845178,22.995 17.125,22.715178 17.125,22.37 L17.125,18.63 C17.125,18.284822 16.845178,18.005 16.5,18.005 C16.154822,18.005 15.875,18.284822 15.875,18.63 Z"/>
    <path fill="#67C8E2" fill-rule="nonzero" d="M15.1930325,19.0237341 L18.4319675,20.8937341 C19.1536553,21.3104008 18.5286553,22.3929325 17.8069675,21.9762659 L14.5680325,20.1062659 C13.8463447,19.6895992 14.4713447,18.6070675 15.1930325,19.0237341 Z"/>
    <path fill="#67C8E2" fill-rule="nonzero" d="M18.4319675 20.1062659L15.1930325 21.9762659C14.4713447 22.3929325 13.8463447 21.3104008 14.5680325 20.8937341L17.8069675 19.0237341C18.5286553 18.6070675 19.1536553 19.6895992 18.4319675 20.1062659zM8.875 17.63L8.875 21.37C8.875 21.715178 9.15482203 21.995 9.5 21.995 9.84517797 21.995 10.125 21.715178 10.125 21.37L10.125 17.63C10.125 17.284822 9.84517797 17.005 9.5 17.005 9.15482203 17.005 8.875 17.284822 8.875 17.63z"/>
    <path fill="#67C8E2" fill-rule="nonzero" d="M8.19303249,18.0237341 L11.4319675,19.8937341 C12.1536553,20.3104008 11.5286553,21.3929325 10.8069675,20.9762659 L7.56803249,19.1062659 C6.84634466,18.6895992 7.47134466,17.6070675 8.19303249,18.0237341 Z"/>
    <path fill="#67C8E2" fill-rule="nonzero" d="M11.4319675,19.1062659 L8.19303249,20.9762659 C7.47134466,21.3929325 6.84634466,20.3104008 7.56803249,19.8937341 L10.8069675,18.0237341 C11.5286553,17.6070675 12.1536553,18.6895992 11.4319675,19.1062659 Z"/>
    <circle cx="8" cy="12" r="4" fill="url(#bkn_sn_n-c)" opacity=".2"/>
    <circle cx="18.5" cy="13.5" r="2.5" fill="url(#bkn_sn_n-d)" opacity=".2"/>
    <path fill="url(#bkn_sn_n-e)" d="M8,16 C5.790861,16 4,14.209139 4,12 C4,9.790861 5.790861,8 8,8 C8.41665567,8 8.81843235,8.06370454 9.19612127,8.18190486 C9.75960062,6.33975064 11.4733425,5 13.5,5 C15.9852814,5 18,7.01471863 18,9.5 C18,9.73456947 17.9820524,9.96494706 17.9474555,10.1898344 C18.2749642,10.0671106 18.6296448,10 19,10 C20.6568542,10 22,11.3431458 22,13 C22,14.6568542 20.6568542,16 19,16 L8,16 Z"/>
    <circle cx="8" cy="12" r="4" fill="url(#bkn_sn_n-f)" opacity=".344"/>
    <circle cx="19" cy="13" r="3" fill="url(#bkn_sn_n-g)" opacity=".2"/>
    <circle cx="13.5" cy="9.5" r="4.5" fill="url(#bkn_sn_n-h)"/>
  </g>
</svg>
