<svg xmlns="http://www.w3.org/2000/svg" width="24" height="24" viewBox="0 0 24 24">
  <defs>
    <linearGradient id="bkn_n-a" x1="50%" x2="50%" y1="0%" y2="100%">
      <stop offset="0%" stop-color="#FFBE1D"/>
      <stop offset="100%" stop-color="#FFB300"/>
    </linearGradient>
    <radialGradient id="bkn_n-b" cx="38.236%" cy="10.579%" r="93.609%" fx="38.236%" fy="10.579%">
      <stop offset="0%" stop-color="#F03C00" stop-opacity="0"/>
      <stop offset="72.663%" stop-color="#F03C00" stop-opacity="0"/>
      <stop offset="100%" stop-color="#F03C00"/>
    </radialGradient>
    <radialGradient id="bkn_n-c" cx="88.2%" cy="11.315%" fx="88.2%" fy="11.315%">
      <stop offset="0%" stop-color="#9699C7"/>
      <stop offset="100%" stop-color="#9499C9" stop-opacity="0"/>
    </radialGradient>
    <radialGradient id="bkn_n-d" cx="8.171%" cy="-6.535%" r="63.588%" fx="8.171%" fy="-6.535%">
      <stop offset="0%" stop-color="#9699C7"/>
      <stop offset="100%" stop-color="#9499C9" stop-opacity="0"/>
    </radialGradient>
    <linearGradient id="bkn_n-e" x1="50%" x2="50%" y1="0%" y2="100%">
      <stop offset="0%" stop-color="#A4C5F4"/>
      <stop offset="100%" stop-color="#A7C7F2"/>
    </linearGradient>
    <radialGradient id="bkn_n-f" cx="88.2%" cy="9.456%" r="48.142%" fx="88.2%" fy="9.456%">
      <stop offset="0%" stop-color="#486DA8"/>
      <stop offset="100%" stop-color="#486DA8" stop-opacity="0"/>
    </radialGradient>
    <radialGradient id="bkn_n-g" cx="14.445%" cy="0%" fx="14.445%" fy="0%">
      <stop offset="0%" stop-color="#486DA8"/>
      <stop offset="100%" stop-color="#486DA8" stop-opacity="0"/>
    </radialGradient>
    <linearGradient id="bkn_n-h" x1="50%" x2="50%" y1="0%" y2="122.366%">
      <stop offset="0%" stop-color="#A4C5F4"/>
      <stop offset="100%" stop-color="#A7C7F2"/>
    </linearGradient>
  </defs>
  <g fill="none" fill-rule="evenodd">
    <path fill="url(#bkn_n-a)" d="M7.50825261,3.36674739 C9.1927071,4.07743807 10.375,5.74439938 10.375,7.6875 C10.375,10.2763348 8.27633476,12.375 5.6875,12.375 C3.74439938,12.375 2.07743807,11.1927071 1.36674739,9.50825261 C1.92652786,9.74443042 2.54176585,9.875 3.1875,9.875 C5.77633476,9.875 7.875,7.77633476 7.875,5.1875 C7.875,4.54176585 7.74443042,3.92652786 7.50825261,3.36674739 L7.50825261,3.36674739 Z"/>
    <circle cx="5.688" cy="7.688" r="4.688" fill="url(#bkn_n-b)" opacity=".3"/>
    <circle cx="8" cy="14" r="4" fill="url(#bkn_n-c)" opacity=".2"/>
    <circle cx="18.5" cy="15.5" r="2.5" fill="url(#bkn_n-d)" opacity=".2"/>
    <path fill="url(#bkn_n-e)" d="M8,18 C5.790861,18 4,16.209139 4,14 C4,11.790861 5.790861,10 8,10 C8.41665567,10 8.81843235,10.0637045 9.19612127,10.1819049 C9.75960062,8.33975064 11.4733425,7 13.5,7 C15.9852814,7 18,9.01471863 18,11.5 C18,11.7345695 17.9820524,11.9649471 17.9474555,12.1898344 C18.2749642,12.0671106 18.6296448,12 19,12 C20.6568542,12 22,13.3431458 22,15 C22,16.6568542 20.6568542,18 19,18 L8,18 Z"/>
    <circle cx="8" cy="14" r="4" fill="url(#bkn_n-f)" opacity=".344"/>
    <circle cx="19" cy="15" r="3" fill="url(#bkn_n-g)" opacity=".2"/>
    <circle cx="13.5" cy="11.5" r="4.5" fill="url(#bkn_n-h)"/>
  </g>
</svg>
