<svg xmlns="http://www.w3.org/2000/svg" width="24" height="24" viewBox="0 0 24 24">
  <g fill="#67C8E2">
    <path d="M19.3457458,18.729231 L8.7205617,15.8822215 C7.91562351,15.666539 8.23914732,14.4591317 9.04408551,14.6748142 L19.6692696,17.5218237 C20.4742078,17.7375063 20.150684,18.9449135 19.3457458,18.729231 Z"/>
    <path d="M9.3263813 16.3092925C9.05730661 16.5255023 9.01445108 16.918903 9.2306608 17.1879777 9.44687051 17.4570524 9.84027125 17.4999079 10.1093459 17.2836982L11.3171106 16.3132225C11.5295409 16.1425283 11.6068862 15.8538715 11.5082633 15.5998308L10.9475463 14.1554919C10.8226256 13.8337115 10.4605028 13.6741251 10.1387224 13.7990458 9.81694192 13.9239664 9.65735553 14.2860892 9.78227619 14.6078697L10.1773445 15.6255177 9.3263813 16.3092925zM19.06345 17.0947527C19.3325247 16.878543 19.3753802 16.4851422 19.1591705 16.2160675 18.9429608 15.9469929 18.54956 15.9041373 18.2804854 16.120347L17.0727207 17.0908227C16.8602904 17.2615169 16.7829451 17.5501737 16.881568 17.8042144L17.442285 19.2485533C17.5672057 19.5703337 17.9293285 19.7299201 18.2511089 19.6049995 18.5728894 19.4800788 18.7324758 19.117956 18.6075551 18.7961756L18.2124868 17.7785276 19.06345 17.0947527zM15.0147168 22.1763766L12.1677073 11.5511925C11.9520247 10.7462543 13.159432 10.4227305 13.3751145 11.2276687L16.222124 21.8528528C16.4378066 22.6577909 15.2303993 22.9813148 15.0147168 22.1763766z"/>
    <path d="M12.1007627 12.2893832C11.7789822 12.1644625 11.4168594 12.3240489 11.2919388 12.6458293 11.1670181 12.9676098 11.3266045 13.3297326 11.648385 13.4546533L13.0927239 14.0153703C13.3467645 14.1139932 13.6354213 14.0366478 13.8061156 13.8242175L14.7765912 12.6164529C14.9928009 12.3473782 14.9499454 11.9539775 14.6808707 11.7377678 14.411796 11.5215581 14.0183953 11.5644136 13.8021856 11.8334883L13.1184107 12.6844515 12.1007627 12.2893832zM15.25 6.125L20.65 6.125C20.995178 6.125 21.275 5.84517797 21.275 5.5 21.275 5.15482203 20.995178 4.875 20.65 4.875L15.25 4.875C14.904822 4.875 14.625 5.15482203 14.625 5.5 14.625 5.84517797 14.904822 6.125 15.25 6.125z"/>
    <path d="M17.1662659,2.80593014 L19.8662659,7.48246732 C20.2829325,8.20415516 19.2004008,8.82915516 18.7837341,8.10746732 L16.0837341,3.43093014 C15.6670675,2.7092423 16.7495992,2.0842423 17.1662659,2.80593014 Z"/>
    <path d="M19.9162659 3.43093014L17.2162659 8.10746732C16.7995992 8.82915516 15.7170675 8.20415516 16.1337341 7.48246732L18.8337341 2.80593014C19.2504008 2.0842423 20.3329325 2.7092423 19.9162659 3.43093014zM16.2890686 21.1146621C16.610849 21.2395827 16.9729718 21.0799963 17.0978925 20.7582159 17.2228132 20.4364354 17.0632268 20.0743126 16.7414463 19.949392L15.2971074 19.388675C15.0430668 19.2900521 14.75441 19.3673974 14.5837157 19.5798277L13.6132401 20.7875923C13.3970304 21.056667 13.4398859 21.4500678 13.7089606 21.6662775 13.9780353 21.8824872 14.371436 21.8396317 14.5876457 21.570557L15.2714206 20.7195938 16.2890686 21.1146621zM18.5259447 13.2548771L10.7477701 21.0330517C10.1585144 21.6223073 9.27463096 20.7384238 9.86388661 20.1491682L17.6420612 12.3709936C18.2313169 11.7817379 19.1152003 12.6656214 18.5259447 13.2548771z"/>
    <path d="M11.4205343 20.721932C11.47324 21.0630624 11.7925073 21.2968767 12.1336377 21.244171 12.474768 21.1914652 12.7085824 20.8721979 12.6558766 20.5310676L12.4193023 18.9998749C12.377692 18.7305577 12.1663805 18.5192463 11.8970634 18.4776359L10.3658707 18.2410616C10.0247403 18.1883559 9.70547306 18.4221702 9.6527673 18.7633006 9.60006154 19.104431 9.83387589 19.4236983 10.1750063 19.476404L11.2538494 19.6430888 11.4205343 20.721932zM16.969297 12.6821132C16.9165913 12.3409829 16.597324 12.1071685 16.2561936 12.1598743 15.9150633 12.21258 15.6812489 12.5318473 15.7339547 12.8729777L15.970529 14.4041703C16.0121393 14.6734875 16.2234508 14.8847989 16.4927679 14.9264093L18.0239606 15.1629836C18.365091 15.2156894 18.6843582 14.981875 18.737064 14.6407446 18.7897698 14.2996143 18.5559554 13.980347 18.214825 13.9276412L17.1359818 13.7609564 16.969297 12.6821132zM3.04393107 7.38780229C2.85947019 7.67955906 2.94645069 8.06560974 3.23820746 8.25007063 3.52996423 8.43453151 3.91601491 8.34755101 4.1004758 8.05579424L4.54824744 7.34756598C4.61600564 7.24039469 4.64956502 7.11514935 4.64447035 6.98845719L4.61080286 6.15122771C4.59693343 5.80632849 4.30609399 5.53797582 3.96119477 5.55184525 3.61629555 5.56571468 3.34794289 5.85655412 3.36181231 6.20145334L3.38765669 6.84414081 3.04393107 7.38780229zM10.6964109 8.16675311C10.8808718 7.87499634 10.7938913 7.48894566 10.5021345 7.30448477 10.2103778 7.12002389 9.82432707 7.20700439 9.63986618 7.49876116L9.19209454 8.20698942C9.12433634 8.31416071 9.09077696 8.43940605 9.09587163 8.56609821L9.12953912 9.40332769C9.14340855 9.74822691 9.43424799 10.0165796 9.77914721 10.0027101 10.1240464 9.98884072 10.3923991 9.69800128 10.3785297 9.35310206L10.3526853 8.71041459 10.6964109 8.16675311z"/>
    <path d="M3.16822959 6.13829788L10.8956362 8.20885024C11.7005744 8.42453278 11.3770506 9.63194006 10.5721124 9.41625752L2.84470578 7.34570516C2.03976759 7.13002262 2.3632914 5.92261534 3.16822959 6.13829788zM5.29434663 4.26891902C4.94944742 4.2550496 4.65860797 4.52340226 4.64473854 4.86830148 4.63086911 5.2132007 4.89922178 5.50404014 5.244121 5.51790957L6.08135048 5.55157706C6.20804264 5.55667173 6.33328798 5.52311235 6.44045927 5.45535415L7.14868753 5.00758251C7.4404443 4.82312162 7.5274248 4.43707094 7.34296392 4.14531417 7.15850303 3.8535574 6.77245235 3.7665769 6.48069558 3.95103778L5.9370341 4.2947634 5.29434663 4.26891902zM8.44599535 11.2856364C8.79089457 11.2995058 9.08173401 11.0311531 9.09560344 10.6862539 9.10947287 10.3413547 8.8411202 10.0505153 8.49622098 10.0366458L7.6589915 10.0029783C7.53229934 9.99788367 7.407054 10.0314431 7.29988271 10.0992012L6.59165445 10.5469729C6.29989768 10.7314338 6.21291718 11.1174845 6.39737806 11.4092412 6.58183895 11.700998 6.96788963 11.7879785 7.2596464 11.6035176L7.80330788 11.259792 8.44599535 11.2856364z"/>
    <path d="M6.43859845 3.75181249L8.50915081 11.4792191C8.72483335 12.2841573 7.51742607 12.6076811 7.30174353 11.8027429L5.23119117 4.0753363C5.01550863 3.27039811 6.22291591 2.9468743 6.43859845 3.75181249zM4.61975543 10.896161C4.78019376 11.2017872 5.15801371 11.3194852 5.46363991 11.1590468 5.7692661 10.9986085 5.88696412 10.6207886 5.72652579 10.3151624L5.33706795 9.57326662C5.27813399 9.46100065 5.18644804 9.3693147 5.07418207 9.31038074L4.33228632 8.9209229C4.02666013 8.76048457 3.64884018 8.87818259 3.48840184 9.18380878 3.32796351 9.48943498 3.44566153 9.86725493 3.75128772 10.0276933L4.32079359 10.3266551 4.61975543 10.896161zM9.12058655 4.65839443C8.96014822 4.35276824 8.58232827 4.23507022 8.27670207 4.39550855 7.97107588 4.55594689 7.85337786 4.93376684 8.01381619 5.23939303L8.40327403 5.98128878C8.46220799 6.09355475 8.55389394 6.1852407 8.66615991 6.24417466L9.40805566 6.6336325C9.71368185 6.79407083 10.0915018 6.67637281 10.2519401 6.37074662 10.4123785 6.06512042 10.2946805 5.68730047 9.98905426 5.52686214L9.41954839 5.2279003 9.12058655 4.65839443z"/>
    <path d="M3.59980213,10.1637631 L9.25665638,4.50690884 C9.84591203,3.91765319 10.7297955,4.80153666 10.1405399,5.39079231 L4.4836856,11.0476466 C3.89442995,11.6369022 3.01054648,10.7530187 3.59980213,10.1637631 Z"/>
  </g>
</svg>
