<svg xmlns="http://www.w3.org/2000/svg" width="24" height="24" viewBox="0 0 24 24">
  <defs>
    <radialGradient id="fct_sn_rs-a" cy="100%" r="95.479%" fx="50%" fy="100%" gradientTransform="scale(.5 1) rotate(73.088 .75 1.337)">
      <stop offset="0%" stop-color="#FFC227"/>
      <stop offset="100%" stop-color="#FFB300"/>
    </radialGradient>
  </defs>
  <g fill="none" fill-rule="evenodd">
    <path fill="#66AFEB" fill-rule="nonzero" d="M11.75,18 L11.75,22 C11.75,22.4142136 12.0857864,22.75 12.5,22.75 C12.9142136,22.75 13.25,22.4142136 13.25,22 L13.25,18 C13.25,17.5857864 12.9142136,17.25 12.5,17.25 C12.0857864,17.25 11.75,17.5857864 11.75,18 Z"/>
    <path fill="#66AFEB" fill-rule="nonzero" d="M13.4696699,19.0303301 C13.7625631,19.3232233 14.2374369,19.3232233 14.5303301,19.0303301 C14.8232233,18.7374369 14.8232233,18.2625631 14.5303301,17.9696699 L13.0303301,16.4696699 C12.7374369,16.1767767 12.2625631,16.1767767 11.9696699,16.4696699 L10.4696699,17.9696699 C10.1767767,18.2625631 10.1767767,18.7374369 10.4696699,19.0303301 C10.7625631,19.3232233 11.2374369,19.3232233 11.5303301,19.0303301 L12.5,18.0606602 L13.4696699,19.0303301 Z"/>
    <path fill="url(#fct_sn_rs-a)" d="M7.5,14 C7.5,11.2385763 9.73857625,9 12.5,9 C15.2614237,9 17.5,11.2385763 17.5,14 L7.5,14 Z"/>
    <path fill="#FFB300" fill-rule="nonzero" d="M17.1994346 4.60317418L16.0244932 7.43973358C15.6418098 8.36361311 14.2559905 7.78958796 14.6386739 6.86570843L15.8136153 4.02914903C16.1962987 3.1052695 17.582118 3.67929464 17.1994346 4.60317418zM22.46602 10.6815537L19.6294606 11.8564951C18.705581 12.2391785 18.1315559 10.8533592 19.0554354 10.4706758L21.8919948 9.29573441C22.8158744 8.91305098 23.3898995 10.2988703 22.46602 10.6815537zM5.36481652 11.8578739L2.52825712 10.6829326C1.60437758 10.3002491 2.17840273 8.91442983 3.10228226 9.29711326L5.93884167 10.4720546C6.8627212 10.8547381 6.28869605 12.2405574 5.36481652 11.8578739zM9.17733296 4.02914903L10.3522743 6.86570843C10.7349578 7.78958796 9.34913847 8.36361311 8.96645504 7.43973358L7.79151366 4.60317418C7.40883023 3.67929464 8.79464953 3.1052695 9.17733296 4.02914903z"/>
    <rect width="19" height="1.5" x="3" y="14" fill="#000" opacity=".2" rx=".75"/>
  </g>
</svg>
