<svg xmlns="http://www.w3.org/2000/svg" width="24" height="24" viewBox="0 0 24 24">
  <g fill="none" fill-rule="evenodd">
    <path fill="#66AFEB" d="M6.5,12 C8.43299662,12 10,10.3210678 10,8.25 C10,6.17893219 6.5,2 6.5,2 C6.5,2 3,6.17893219 3,8.25 C3,10.3210678 4.56700338,12 6.5,12 Z"/>
    <path fill="#67C8E2" fill-rule="nonzero" d="M20.3457458,17.729231 L9.7205617,14.8822215 C8.91562351,14.666539 9.23914732,13.4591317 10.0440855,13.6748142 L20.6692696,16.5218237 C21.4742078,16.7375063 21.150684,17.9449135 20.3457458,17.729231 Z"/>
    <path fill="#67C8E2" fill-rule="nonzero" d="M10.3263813 15.3092925C10.0573066 15.5255023 10.0144511 15.918903 10.2306608 16.1879777 10.4468705 16.4570524 10.8402713 16.4999079 11.1093459 16.2836982L12.3171106 15.3132225C12.5295409 15.1425283 12.6068862 14.8538715 12.5082633 14.5998308L11.9475463 13.1554919C11.8226256 12.8337115 11.4605028 12.6741251 11.1387224 12.7990458 10.8169419 12.9239664 10.6573555 13.2860892 10.7822762 13.6078697L11.1773445 14.6255177 10.3263813 15.3092925zM20.06345 16.0947527C20.3325247 15.878543 20.3753802 15.4851422 20.1591705 15.2160675 19.9429608 14.9469929 19.54956 14.9041373 19.2804854 15.120347L18.0727207 16.0908227C17.8602904 16.2615169 17.7829451 16.5501737 17.881568 16.8042144L18.442285 18.2485533C18.5672057 18.5703337 18.9293285 18.7299201 19.2511089 18.6049995 19.5728894 18.4800788 19.7324758 18.117956 19.6075551 17.7961756L19.2124868 16.7785276 20.06345 16.0947527zM16.0147168 21.1763766L13.1677073 10.5511925C12.9520247 9.74625429 14.159432 9.42273048 14.3751145 10.2276687L17.222124 20.8528528C17.4378066 21.6577909 16.2303993 21.9813148 16.0147168 21.1763766z"/>
    <path fill="#67C8E2" fill-rule="nonzero" d="M13.1007627 11.2893832C12.7789822 11.1644625 12.4168594 11.3240489 12.2919388 11.6458293 12.1670181 11.9676098 12.3266045 12.3297326 12.648385 12.4546533L14.0927239 13.0153703C14.3467645 13.1139932 14.6354213 13.0366478 14.8061156 12.8242175L15.7765912 11.6164529C15.9928009 11.3473782 15.9499454 10.9539775 15.6808707 10.7377678 15.411796 10.5215581 15.0183953 10.5644136 14.8021856 10.8334883L14.1184107 11.6844515 13.1007627 11.2893832zM17.2890686 20.1146621C17.610849 20.2395827 17.9729718 20.0799963 18.0978925 19.7582159 18.2228132 19.4364354 18.0632268 19.0743126 17.7414463 18.949392L16.2971074 18.388675C16.0430668 18.2900521 15.75441 18.3673974 15.5837157 18.5798277L14.6132401 19.7875923C14.3970304 20.056667 14.4398859 20.4500678 14.7089606 20.6662775 14.9780353 20.8824872 15.371436 20.8396317 15.5876457 20.570557L16.2714206 19.7195938 17.2890686 20.1146621zM19.5259447 12.2548771L11.7477701 20.0330517C11.1585144 20.6223073 10.274631 19.7384238 10.8638866 19.1491682L18.6420612 11.3709936C19.2313169 10.7817379 20.1152003 11.6656214 19.5259447 12.2548771z"/>
    <path fill="#67C8E2" fill-rule="nonzero" d="M12.4205343 19.721932C12.47324 20.0630624 12.7925073 20.2968767 13.1336377 20.244171 13.474768 20.1914652 13.7085824 19.8721979 13.6558766 19.5310676L13.4193023 17.9998749C13.377692 17.7305577 13.1663805 17.5192463 12.8970634 17.4776359L11.3658707 17.2410616C11.0247403 17.1883559 10.7054731 17.4221702 10.6527673 17.7633006 10.6000615 18.104431 10.8338759 18.4236983 11.1750063 18.476404L12.2538494 18.6430888 12.4205343 19.721932zM17.969297 11.6821132C17.9165913 11.3409829 17.597324 11.1071685 17.2561936 11.1598743 16.9150633 11.21258 16.6812489 11.5318473 16.7339547 11.8729777L16.970529 13.4041703C17.0121393 13.6734875 17.2234508 13.8847989 17.4927679 13.9264093L19.0239606 14.1629836C19.365091 14.2156894 19.6843582 13.981875 19.737064 13.6407446 19.7897698 13.2996143 19.5559554 12.980347 19.214825 12.9276412L18.1359818 12.7609564 17.969297 11.6821132z"/>
  </g>
</svg>
