<svg xmlns="http://www.w3.org/2000/svg" width="24" height="24" viewBox="0 0 24 24">
  <defs>
    <linearGradient id="fg_n-a" x1="50%" x2="50%" y1="0%" y2="100%">
      <stop offset="0%" stop-color="#FFBE1D"/>
      <stop offset="100%" stop-color="#FFB300"/>
    </linearGradient>
  </defs>
  <g fill="none" fill-rule="evenodd">
    <path fill="url(#fg_n-a)" d="M13.4132042,3.58679582 C16.1083314,4.72390091 18,7.39103901 18,10.5 C18,14.6421356 14.6421356,18 10.5,18 C7.39103901,18 4.72390091,16.1083314 3.58679582,13.4132042 C4.48244458,13.7910887 5.46682536,14 6.5,14 C10.6421356,14 14,10.6421356 14,6.5 C14,5.46682536 13.7910887,4.48244458 13.4132042,3.58679582 L13.4132042,3.58679582 Z"/>
    <path fill="#CED5DB" fill-rule="nonzero" d="M21.0449219,19.000991 L21.0449219,19 C20.4926371,19 20.0449219,18.5522847 20.0449219,18 C20.0449219,17.4477153 20.4926371,17 21.0449219,17 C21.5972066,17 22.0449219,16.5522847 22.0449219,16 C22.0449219,15.4477153 21.5972066,15 21.0449219,15 C20.4926371,15 20.0449219,14.5522847 20.0449219,14 C20.0449219,13.4477153 20.4926371,13 21.0449219,13 C21.5972066,13 22.0449219,12.5522847 22.0449219,12 C22.0449219,11.4477153 21.5972066,11 21.0449219,11 L13.0449219,11 C12.4926371,11 12.0449219,11.4477153 12.0449219,12 C12.0449219,12.5522847 12.4926371,13 13.0449219,13 C13.5972066,13 14.0449219,13.4477153 14.0449219,14 C14.0449219,14.5522847 13.5972066,15 13.0449219,15 L7.04492187,15 C6.49263713,15 6.04492187,15.4477153 6.04492187,16 C6.04492187,16.5522847 6.49263713,17 7.04492187,17 C7.59720662,17 8.04492187,17.4477153 8.04492187,18 C8.04492187,18.5522847 7.59720662,19 7.04492188,19 L3,19 C2.44771525,19 2,19.4477153 2,20 C2,20.5522847 2.44771525,21 3,21 L21,21 C21.5522847,21 22,20.5522847 22,20 C22,19.4627692 21.5763594,19.024485 21.0449219,19.000991 Z" opacity=".7"/>
  </g>
</svg>
