<svg xmlns="http://www.w3.org/2000/svg" width="24" height="24" viewBox="0 0 24 24">
  <defs>
    <radialGradient id="ovc-a" cx="88.2%" cy="11.315%" fx="88.2%" fy="11.315%">
      <stop offset="0%" stop-color="#9699C7"/>
      <stop offset="100%" stop-color="#9499C9" stop-opacity="0"/>
    </radialGradient>
    <radialGradient id="ovc-b" cx="8.171%" cy="-6.535%" r="63.588%" fx="8.171%" fy="-6.535%">
      <stop offset="0%" stop-color="#9699C7"/>
      <stop offset="100%" stop-color="#9499C9" stop-opacity="0"/>
    </radialGradient>
    <linearGradient id="ovc-c" x1="50%" x2="50%" y1="0%" y2="100%">
      <stop offset="0%" stop-color="#A4C5F4"/>
      <stop offset="100%" stop-color="#A7C7F2"/>
    </linearGradient>
    <radialGradient id="ovc-d" cx="88.2%" cy="9.456%" r="48.142%" fx="88.2%" fy="9.456%">
      <stop offset="0%" stop-color="#486DA8"/>
      <stop offset="100%" stop-color="#486DA8" stop-opacity="0"/>
    </radialGradient>
    <radialGradient id="ovc-e" cx="14.445%" cy="0%" fx="14.445%" fy="0%">
      <stop offset="0%" stop-color="#486DA8"/>
      <stop offset="100%" stop-color="#486DA8" stop-opacity="0"/>
    </radialGradient>
    <linearGradient id="ovc-f" x1="50%" x2="50%" y1="0%" y2="122.366%">
      <stop offset="0%" stop-color="#A4C5F4"/>
      <stop offset="100%" stop-color="#A7C7F2"/>
    </linearGradient>
  </defs>
  <g fill="none" fill-rule="evenodd">
    <path fill="#73A5E6" d="M19,14 C20.6568542,14 22,12.6568542 22,11 C22,9.34314575 20.6568542,8 19,8 C18.9896656,8 18.9793434,8.00005225 18.9690336,8.00015651 C18.9894716,7.83630918 19,7.66938411 19,7.5 C19,5.290861 17.209139,3.5 15,3.5 C13.2499088,3.5 11.7623243,4.62392449 11.219666,6.18935387 C10.8351457,6.06638317 10.4253252,6 10,6 C7.790861,6 6,7.790861 6,10 C6,12.209139 7.790861,14 10,14 C10.3452996,14 10.6803801,13.956247 11,13.8739825 L11,14 L19,14 Z" opacity=".32"/>
    <circle cx="6" cy="15" r="4" fill="url(#ovc-a)" opacity=".2"/>
    <circle cx="16.5" cy="16.5" r="2.5" fill="url(#ovc-b)" opacity=".2"/>
    <path fill="url(#ovc-c)" d="M6,19 C3.790861,19 2,17.209139 2,15 C2,12.790861 3.790861,11 6,11 C6.41665567,11 6.81843235,11.0637045 7.19612127,11.1819049 C7.75960062,9.33975064 9.47334255,8 11.5,8 C13.9852814,8 16,10.0147186 16,12.5 C16,12.7345695 15.9820524,12.9649471 15.9474555,13.1898344 C16.2749642,13.0671106 16.6296448,13 17,13 C18.6568542,13 20,14.3431458 20,16 C20,17.6568542 18.6568542,19 17,19 L6,19 Z"/>
    <circle cx="6" cy="15" r="4" fill="url(#ovc-d)" opacity=".344"/>
    <circle cx="17" cy="16" r="3" fill="url(#ovc-e)" opacity=".2"/>
    <circle cx="11.5" cy="12.5" r="4.5" fill="url(#ovc-f)"/>
  </g>
</svg>
