<svg xmlns="http://www.w3.org/2000/svg" width="24" height="24" viewBox="0 0 24 24">
  <defs>
    <radialGradient id="ovc_ra-a" cx="88.2%" cy="11.315%" fx="88.2%" fy="11.315%">
      <stop offset="0%" stop-color="#9699C7"/>
      <stop offset="100%" stop-color="#9499C9" stop-opacity="0"/>
    </radialGradient>
    <radialGradient id="ovc_ra-b" cx="8.171%" cy="-6.535%" r="63.588%" fx="8.171%" fy="-6.535%">
      <stop offset="0%" stop-color="#9699C7"/>
      <stop offset="100%" stop-color="#9499C9" stop-opacity="0"/>
    </radialGradient>
    <linearGradient id="ovc_ra-c" x1="50%" x2="50%" y1="0%" y2="100%">
      <stop offset="0%" stop-color="#A4C5F4"/>
      <stop offset="100%" stop-color="#A7C7F2"/>
    </linearGradient>
    <radialGradient id="ovc_ra-d" cx="88.2%" cy="9.456%" r="48.142%" fx="88.2%" fy="9.456%">
      <stop offset="0%" stop-color="#486DA8"/>
      <stop offset="100%" stop-color="#486DA8" stop-opacity="0"/>
    </radialGradient>
    <radialGradient id="ovc_ra-e" cx="14.445%" cy="0%" fx="14.445%" fy="0%">
      <stop offset="0%" stop-color="#486DA8"/>
      <stop offset="100%" stop-color="#486DA8" stop-opacity="0"/>
    </radialGradient>
    <linearGradient id="ovc_ra-f" x1="50%" x2="50%" y1="0%" y2="122.366%">
      <stop offset="0%" stop-color="#A4C5F4"/>
      <stop offset="100%" stop-color="#A7C7F2"/>
    </linearGradient>
  </defs>
  <g fill="none" fill-rule="evenodd">
    <circle cx="7" cy="10" r="4" fill="url(#ovc_ra-a)" opacity=".2"/>
    <circle cx="17.5" cy="11.5" r="2.5" fill="url(#ovc_ra-b)" opacity=".2"/>
    <path fill="url(#ovc_ra-c)" d="M7,14 C4.790861,14 3,12.209139 3,10 C3,7.790861 4.790861,6 7,6 C7.41665567,6 7.81843235,6.06370454 8.19612127,6.18190486 C8.75960062,4.33975064 10.4733425,3 12.5,3 C14.9852814,3 17,5.01471863 17,7.5 C17,7.73456947 16.9820524,7.96494706 16.9474555,8.18983445 C17.2749642,8.06711064 17.6296448,8 18,8 C19.6568542,8 21,9.34314575 21,11 C21,12.6568542 19.6568542,14 18,14 L7,14 Z"/>
    <circle cx="7" cy="10" r="4" fill="url(#ovc_ra-d)" opacity=".344"/>
    <circle cx="18" cy="11" r="3" fill="url(#ovc_ra-e)" opacity=".2"/>
    <circle cx="12.5" cy="7.5" r="4.5" fill="url(#ovc_ra-f)"/>
    <path fill="#66AFEB" fill-rule="nonzero" d="M7.10853642 16.4631224L6.05853623 18.9625731C5.89810929 19.344458 6.07763644 19.7840886 6.45952134 19.9445155 6.84140623 20.1049425 7.28103684 19.9254153 7.44146377 19.5435304L8.49146396 17.0440797C8.6518909 16.6621948 8.47236375 16.2225642 8.09047885 16.0621373 7.70859396 15.9017104 7.26896336 16.0812375 7.10853642 16.4631224zM15.1085364 16.4631224L14.0585362 18.9625731C13.8981093 19.344458 14.0776364 19.7840886 14.4595213 19.9445155 14.8414062 20.1049425 15.2810368 19.9254153 15.4414638 19.5435304L16.491464 17.0440797C16.6518909 16.6621948 16.4723637 16.2225642 16.0904789 16.0621373 15.708594 15.9017104 15.2689634 16.0812375 15.1085364 16.4631224zM11.1085364 15.4631224L10.0585362 17.9625731C9.89810929 18.344458 10.0776364 18.7840886 10.4595213 18.9445155 10.8414062 19.1049425 11.2810368 18.9254153 11.4414638 18.5435304L12.491464 16.0440797C12.6518909 15.6621948 12.4723637 15.2225642 12.0904789 15.0621373 11.708594 14.9017104 11.2689634 15.0812375 11.1085364 15.4631224z"/>
  </g>
</svg>
