<svg xmlns="http://www.w3.org/2000/svg" width="24" height="24" viewBox="0 0 24 24">
  <defs>
    <radialGradient id="ovc_+ra-a" cx="88.2%" cy="11.315%" fx="88.2%" fy="11.315%">
      <stop offset="0%" stop-color="#9699C7"/>
      <stop offset="100%" stop-color="#9499C9" stop-opacity="0"/>
    </radialGradient>
    <radialGradient id="ovc_+ra-b" cx="8.171%" cy="-6.535%" r="63.588%" fx="8.171%" fy="-6.535%">
      <stop offset="0%" stop-color="#9699C7"/>
      <stop offset="100%" stop-color="#9499C9" stop-opacity="0"/>
    </radialGradient>
    <linearGradient id="ovc_+ra-c" x1="50%" x2="50%" y1="0%" y2="100%">
      <stop offset="0%" stop-color="#A4C5F4"/>
      <stop offset="100%" stop-color="#A7C7F2"/>
    </linearGradient>
    <radialGradient id="ovc_+ra-d" cx="88.2%" cy="9.456%" r="48.142%" fx="88.2%" fy="9.456%">
      <stop offset="0%" stop-color="#486DA8"/>
      <stop offset="100%" stop-color="#486DA8" stop-opacity="0"/>
    </radialGradient>
    <radialGradient id="ovc_+ra-e" cx="14.445%" cy="0%" fx="14.445%" fy="0%">
      <stop offset="0%" stop-color="#486DA8"/>
      <stop offset="100%" stop-color="#486DA8" stop-opacity="0"/>
    </radialGradient>
    <linearGradient id="ovc_+ra-f" x1="50%" x2="50%" y1="0%" y2="122.366%">
      <stop offset="0%" stop-color="#A4C5F4"/>
      <stop offset="100%" stop-color="#A7C7F2"/>
    </linearGradient>
  </defs>
  <g fill="none" fill-rule="evenodd">
    <circle cx="7" cy="10" r="4" fill="url(#ovc_+ra-a)" opacity=".2"/>
    <circle cx="17.5" cy="11.5" r="2.5" fill="url(#ovc_+ra-b)" opacity=".2"/>
    <path fill="url(#ovc_+ra-c)" d="M7,14 C4.790861,14 3,12.209139 3,10 C3,7.790861 4.790861,6 7,6 C7.41665567,6 7.81843235,6.06370454 8.19612127,6.18190486 C8.75960062,4.33975064 10.4733425,3 12.5,3 C14.9852814,3 17,5.01471863 17,7.5 C17,7.73456947 16.9820524,7.96494706 16.9474555,8.18983445 C17.2749642,8.06711064 17.6296448,8 18,8 C19.6568542,8 21,9.34314575 21,11 C21,12.6568542 19.6568542,14 18,14 L7,14 Z"/>
    <circle cx="7" cy="10" r="4" fill="url(#ovc_+ra-d)" opacity=".344"/>
    <circle cx="18" cy="11" r="3" fill="url(#ovc_+ra-e)" opacity=".2"/>
    <circle cx="12.5" cy="7.5" r="4.5" fill="url(#ovc_+ra-f)"/>
    <path fill="#66AFEB" fill-rule="nonzero" d="M5.56046253 15.4521702L4.06046253 18.9580296C3.89752629 19.3388506 4.07415681 19.779653 4.45497784 19.9425892 4.83579887 20.1055255 5.27660123 19.9288949 5.43953747 19.5480739L6.93953747 16.0422145C7.10247371 15.6613935 6.92584319 15.2205912 6.54502216 15.0576549 6.16420113 14.8947187 5.72339877 15.0713492 5.56046253 15.4521702zM9.56046253 15.4521702L8.06046253 18.9580296C7.89752629 19.3388506 8.07415681 19.779653 8.45497784 19.9425892 8.83579887 20.1055255 9.27660123 19.9288949 9.43953747 19.5480739L10.9395375 16.0422145C11.1024737 15.6613935 10.9258432 15.2205912 10.5450222 15.0576549 10.1642011 14.8947187 9.72339877 15.0713492 9.56046253 15.4521702zM13.5604625 15.4521702L12.0604625 18.9580296C11.8975263 19.3388506 12.0741568 19.779653 12.4549778 19.9425892 12.8357989 20.1055255 13.2766012 19.9288949 13.4395375 19.5480739L14.9395375 16.0422145C15.1024737 15.6613935 14.9258432 15.2205912 14.5450222 15.0576549 14.1642011 14.8947187 13.7233988 15.0713492 13.5604625 15.4521702zM17.5604625 15.4521702L16.0604625 18.9580296C15.8975263 19.3388506 16.0741568 19.779653 16.4549778 19.9425892 16.8357989 20.1055255 17.2766012 19.9288949 17.4395375 19.5480739L18.9395375 16.0422145C19.1024737 15.6613935 18.9258432 15.2205912 18.5450222 15.0576549 18.1642011 14.8947187 17.7233988 15.0713492 17.5604625 15.4521702z"/>
  </g>
</svg>
