<svg xmlns="http://www.w3.org/2000/svg" width="24" height="24" viewBox="0 0 24 24">
  <defs>
    <radialGradient id="ovc_ra_sn-a" cx="88.2%" cy="11.315%" fx="88.2%" fy="11.315%">
      <stop offset="0%" stop-color="#9699C7"/>
      <stop offset="100%" stop-color="#9499C9" stop-opacity="0"/>
    </radialGradient>
    <radialGradient id="ovc_ra_sn-b" cx="8.171%" cy="-6.535%" r="63.588%" fx="8.171%" fy="-6.535%">
      <stop offset="0%" stop-color="#9699C7"/>
      <stop offset="100%" stop-color="#9499C9" stop-opacity="0"/>
    </radialGradient>
    <linearGradient id="ovc_ra_sn-c" x1="50%" x2="50%" y1="0%" y2="100%">
      <stop offset="0%" stop-color="#A4C5F4"/>
      <stop offset="100%" stop-color="#A7C7F2"/>
    </linearGradient>
    <radialGradient id="ovc_ra_sn-d" cx="88.2%" cy="9.456%" r="48.142%" fx="88.2%" fy="9.456%">
      <stop offset="0%" stop-color="#486DA8"/>
      <stop offset="100%" stop-color="#486DA8" stop-opacity="0"/>
    </radialGradient>
    <radialGradient id="ovc_ra_sn-e" cx="14.445%" cy="0%" fx="14.445%" fy="0%">
      <stop offset="0%" stop-color="#486DA8"/>
      <stop offset="100%" stop-color="#486DA8" stop-opacity="0"/>
    </radialGradient>
    <linearGradient id="ovc_ra_sn-f" x1="50%" x2="50%" y1="0%" y2="122.366%">
      <stop offset="0%" stop-color="#A4C5F4"/>
      <stop offset="100%" stop-color="#A7C7F2"/>
    </linearGradient>
  </defs>
  <g fill="none" fill-rule="evenodd">
    <path fill="#67C8E2" fill-rule="nonzero" d="M14.875,16.63 L14.875,20.37 C14.875,20.715178 15.154822,20.995 15.5,20.995 C15.845178,20.995 16.125,20.715178 16.125,20.37 L16.125,16.63 C16.125,16.284822 15.845178,16.005 15.5,16.005 C15.154822,16.005 14.875,16.284822 14.875,16.63 Z"/>
    <path fill="#67C8E2" fill-rule="nonzero" d="M14.1930325,17.0237341 L17.4319675,18.8937341 C18.1536553,19.3104008 17.5286553,20.3929325 16.8069675,19.9762659 L13.5680325,18.1062659 C12.8463447,17.6895992 13.4713447,16.6070675 14.1930325,17.0237341 Z"/>
    <path fill="#67C8E2" fill-rule="nonzero" d="M17.4319675,18.1062659 L14.1930325,19.9762659 C13.4713447,20.3929325 12.8463447,19.3104008 13.5680325,18.8937341 L16.8069675,17.0237341 C17.5286553,16.6070675 18.1536553,17.6895992 17.4319675,18.1062659 Z"/>
    <circle cx="7" cy="10" r="4" fill="url(#ovc_ra_sn-a)" opacity=".2"/>
    <circle cx="17.5" cy="11.5" r="2.5" fill="url(#ovc_ra_sn-b)" opacity=".2"/>
    <path fill="url(#ovc_ra_sn-c)" d="M7,14 C4.790861,14 3,12.209139 3,10 C3,7.790861 4.790861,6 7,6 C7.41665567,6 7.81843235,6.06370454 8.19612127,6.18190486 C8.75960062,4.33975064 10.4733425,3 12.5,3 C14.9852814,3 17,5.01471863 17,7.5 C17,7.73456947 16.9820524,7.96494706 16.9474555,8.18983445 C17.2749642,8.06711064 17.6296448,8 18,8 C19.6568542,8 21,9.34314575 21,11 C21,12.6568542 19.6568542,14 18,14 L7,14 Z"/>
    <circle cx="7" cy="10" r="4" fill="url(#ovc_ra_sn-d)" opacity=".344"/>
    <circle cx="18" cy="11" r="3" fill="url(#ovc_ra_sn-e)" opacity=".2"/>
    <circle cx="12.5" cy="7.5" r="4.5" fill="url(#ovc_ra_sn-f)"/>
    <path fill="#66AFEB" fill-rule="nonzero" d="M5.10853642 16.4631224L4.05853623 18.9625731C3.89810929 19.344458 4.07763644 19.7840886 4.45952134 19.9445155 4.84140623 20.1049425 5.28103684 19.9254153 5.44146377 19.5435304L6.49146396 17.0440797C6.6518909 16.6621948 6.47236375 16.2225642 6.09047885 16.0621373 5.70859396 15.9017104 5.26896336 16.0812375 5.10853642 16.4631224zM10.1085364 15.4631224L9.05853623 17.9625731C8.89810929 18.344458 9.07763644 18.7840886 9.45952134 18.9445155 9.84140623 19.1049425 10.2810368 18.9254153 10.4414638 18.5435304L11.491464 16.0440797C11.6518909 15.6621948 11.4723637 15.2225642 11.0904789 15.0621373 10.708594 14.9017104 10.2689634 15.0812375 10.1085364 15.4631224z"/>
  </g>
</svg>
