<svg xmlns="http://www.w3.org/2000/svg" width="24" height="24" viewBox="0 0 24 24">
  <defs>
    <radialGradient id="ovc_-sn-a" cx="88.2%" cy="11.315%" fx="88.2%" fy="11.315%">
      <stop offset="0%" stop-color="#9699C7"/>
      <stop offset="100%" stop-color="#9499C9" stop-opacity="0"/>
    </radialGradient>
    <radialGradient id="ovc_-sn-b" cx="8.171%" cy="-6.535%" r="63.588%" fx="8.171%" fy="-6.535%">
      <stop offset="0%" stop-color="#9699C7"/>
      <stop offset="100%" stop-color="#9499C9" stop-opacity="0"/>
    </radialGradient>
    <linearGradient id="ovc_-sn-c" x1="50%" x2="50%" y1="0%" y2="100%">
      <stop offset="0%" stop-color="#A4C5F4"/>
      <stop offset="100%" stop-color="#A7C7F2"/>
    </linearGradient>
    <radialGradient id="ovc_-sn-d" cx="88.2%" cy="9.456%" r="48.142%" fx="88.2%" fy="9.456%">
      <stop offset="0%" stop-color="#486DA8"/>
      <stop offset="100%" stop-color="#486DA8" stop-opacity="0"/>
    </radialGradient>
    <radialGradient id="ovc_-sn-e" cx="14.445%" cy="0%" fx="14.445%" fy="0%">
      <stop offset="0%" stop-color="#486DA8"/>
      <stop offset="100%" stop-color="#486DA8" stop-opacity="0"/>
    </radialGradient>
    <linearGradient id="ovc_-sn-f" x1="50%" x2="50%" y1="0%" y2="122.366%">
      <stop offset="0%" stop-color="#A4C5F4"/>
      <stop offset="100%" stop-color="#A7C7F2"/>
    </linearGradient>
  </defs>
  <g fill="none" fill-rule="evenodd">
    <path fill="#67C8E2" fill-rule="nonzero" d="M10.875,16.63 L10.875,20.37 C10.875,20.715178 11.154822,20.995 11.5,20.995 C11.845178,20.995 12.125,20.715178 12.125,20.37 L12.125,16.63 C12.125,16.284822 11.845178,16.005 11.5,16.005 C11.154822,16.005 10.875,16.284822 10.875,16.63 Z"/>
    <path fill="#67C8E2" fill-rule="nonzero" d="M10.1930325,17.0237341 L13.4319675,18.8937341 C14.1536553,19.3104008 13.5286553,20.3929325 12.8069675,19.9762659 L9.56803249,18.1062659 C8.84634466,17.6895992 9.47134466,16.6070675 10.1930325,17.0237341 Z"/>
    <path fill="#67C8E2" fill-rule="nonzero" d="M13.4319675,18.1062659 L10.1930325,19.9762659 C9.47134466,20.3929325 8.84634466,19.3104008 9.56803249,18.8937341 L12.8069675,17.0237341 C13.5286553,16.6070675 14.1536553,17.6895992 13.4319675,18.1062659 Z"/>
    <circle cx="7" cy="11" r="4" fill="url(#ovc_-sn-a)" opacity=".2"/>
    <circle cx="17.5" cy="12.5" r="2.5" fill="url(#ovc_-sn-b)" opacity=".2"/>
    <path fill="url(#ovc_-sn-c)" d="M7,15 C4.790861,15 3,13.209139 3,11 C3,8.790861 4.790861,7 7,7 C7.41665567,7 7.81843235,7.06370454 8.19612127,7.18190486 C8.75960062,5.33975064 10.4733425,4 12.5,4 C14.9852814,4 17,6.01471863 17,8.5 C17,8.73456947 16.9820524,8.96494706 16.9474555,9.18983445 C17.2749642,9.06711064 17.6296448,9 18,9 C19.6568542,9 21,10.3431458 21,12 C21,13.6568542 19.6568542,15 18,15 L7,15 Z"/>
    <circle cx="7" cy="11" r="4" fill="url(#ovc_-sn-d)" opacity=".344"/>
    <circle cx="18" cy="12" r="3" fill="url(#ovc_-sn-e)" opacity=".2"/>
    <circle cx="12.5" cy="8.5" r="4.5" fill="url(#ovc_-sn-f)"/>
  </g>
</svg>
