<svg xmlns="http://www.w3.org/2000/svg" width="24" height="24" viewBox="0 0 24 24">
  <defs>
    <radialGradient id="ovc_gr-a" cx="88.2%" cy="11.315%" fx="88.2%" fy="11.315%">
      <stop offset="0%" stop-color="#9699C7"/>
      <stop offset="100%" stop-color="#9499C9" stop-opacity="0"/>
    </radialGradient>
    <radialGradient id="ovc_gr-b" cx="8.171%" cy="-6.535%" r="63.588%" fx="8.171%" fy="-6.535%">
      <stop offset="0%" stop-color="#9699C7"/>
      <stop offset="100%" stop-color="#9499C9" stop-opacity="0"/>
    </radialGradient>
    <linearGradient id="ovc_gr-c" x1="50%" x2="50%" y1="0%" y2="100%">
      <stop offset="0%" stop-color="#A4C5F4"/>
      <stop offset="100%" stop-color="#A7C7F2"/>
    </linearGradient>
    <radialGradient id="ovc_gr-d" cx="88.2%" cy="9.456%" r="48.142%" fx="88.2%" fy="9.456%">
      <stop offset="0%" stop-color="#486DA8"/>
      <stop offset="100%" stop-color="#486DA8" stop-opacity="0"/>
    </radialGradient>
    <radialGradient id="ovc_gr-e" cx="14.445%" cy="0%" fx="14.445%" fy="0%">
      <stop offset="0%" stop-color="#486DA8"/>
      <stop offset="100%" stop-color="#486DA8" stop-opacity="0"/>
    </radialGradient>
    <linearGradient id="ovc_gr-f" x1="50%" x2="50%" y1="0%" y2="122.366%">
      <stop offset="0%" stop-color="#A4C5F4"/>
      <stop offset="100%" stop-color="#A7C7F2"/>
    </linearGradient>
  </defs>
  <g fill="none" fill-rule="evenodd">
    <circle cx="7" cy="10" r="4" fill="url(#ovc_gr-a)" opacity=".2"/>
    <circle cx="17.5" cy="11.5" r="2.5" fill="url(#ovc_gr-b)" opacity=".2"/>
    <path fill="url(#ovc_gr-c)" d="M7,14 C4.790861,14 3,12.209139 3,10 C3,7.790861 4.790861,6 7,6 C7.41665567,6 7.81843235,6.06370454 8.19612127,6.18190486 C8.75960062,4.33975064 10.4733425,3 12.5,3 C14.9852814,3 17,5.01471863 17,7.5 C17,7.73456947 16.9820524,7.96494706 16.9474555,8.18983445 C17.2749642,8.06711064 17.6296448,8 18,8 C19.6568542,8 21,9.34314575 21,11 C21,12.6568542 19.6568542,14 18,14 L7,14 Z"/>
    <circle cx="7" cy="10" r="4" fill="url(#ovc_gr-d)" opacity=".344"/>
    <circle cx="18" cy="11" r="3" fill="url(#ovc_gr-e)" opacity=".2"/>
    <circle cx="12.5" cy="7.5" r="4.5" fill="url(#ovc_gr-f)"/>
    <path fill="#67C8E2" fill-rule="nonzero" d="M9.03033009 16.2196699L9.78033009 16.9696699C10.0732233 17.2625631 10.0732233 17.7374369 9.78033009 18.0303301L9.03033009 18.7803301C8.73743687 19.0732233 8.26256313 19.0732233 7.96966991 18.7803301L7.21966991 18.0303301C6.9267767 17.7374369 6.9267767 17.2625631 7.21966991 16.9696699L7.96966991 16.2196699C8.26256313 15.9267767 8.73743687 15.9267767 9.03033009 16.2196699zM12.0303301 19.2196699L12.7803301 19.9696699C13.0732233 20.2625631 13.0732233 20.7374369 12.7803301 21.0303301L12.0303301 21.7803301C11.7374369 22.0732233 11.2625631 22.0732233 10.9696699 21.7803301L10.2196699 21.0303301C9.9267767 20.7374369 9.9267767 20.2625631 10.2196699 19.9696699L10.9696699 19.2196699C11.2625631 18.9267767 11.7374369 18.9267767 12.0303301 19.2196699zM15.0303301 16.2196699L15.7803301 16.9696699C16.0732233 17.2625631 16.0732233 17.7374369 15.7803301 18.0303301L15.0303301 18.7803301C14.7374369 19.0732233 14.2625631 19.0732233 13.9696699 18.7803301L13.2196699 18.0303301C12.9267767 17.7374369 12.9267767 17.2625631 13.2196699 16.9696699L13.9696699 16.2196699C14.2625631 15.9267767 14.7374369 15.9267767 15.0303301 16.2196699z"/>
  </g>
</svg>
