<svg xmlns="http://www.w3.org/2000/svg" width="24" height="24" viewBox="0 0 24 24">
  <defs>
    <linearGradient id="bkn_+ra_n-a" x1="50%" x2="50%" y1="0%" y2="100%">
      <stop offset="0%" stop-color="#FFCA3C"/>
      <stop offset="100%" stop-color="#FFB300"/>
    </linearGradient>
    <radialGradient id="bkn_+ra_n-b" cx="26.872%" cy="15.007%" r="92.219%" fx="26.872%" fy="15.007%">
      <stop offset="0%" stop-color="#FF6A00" stop-opacity="0"/>
      <stop offset="66.944%" stop-color="#FF6A00" stop-opacity="0"/>
      <stop offset="100%" stop-color="#FF6A00"/>
    </radialGradient>
    <radialGradient id="bkn_+ra_n-c" cx="82.715%" cy="14.258%" fx="82.715%" fy="14.258%">
      <stop offset="0%" stop-color="#777AB4"/>
      <stop offset="100%" stop-color="#777AB4" stop-opacity="0"/>
    </radialGradient>
    <radialGradient id="bkn_+ra_n-d" cx="8.171%" cy="-6.535%" r="63.588%" fx="8.171%" fy="-6.535%">
      <stop offset="0%" stop-color="#777AB4"/>
      <stop offset="100%" stop-color="#777AB4" stop-opacity="0"/>
    </radialGradient>
  </defs>
  <g fill="none" fill-rule="evenodd">
    <path fill="url(#bkn_+ra_n-a)" d="M7.50825261,1.36674739 C9.1927071,2.07743807 10.375,3.74439938 10.375,5.6875 C10.375,8.27633476 8.27633476,10.375 5.6875,10.375 C3.74439938,10.375 2.07743807,9.1927071 1.36674739,7.50825261 C1.92652786,7.74443042 2.54176585,7.875 3.1875,7.875 C5.77633476,7.875 7.875,5.77633476 7.875,3.1875 C7.875,2.54176585 7.74443042,1.92652786 7.50825261,1.36674739 L7.50825261,1.36674739 Z"/>
    <circle cx="5.688" cy="5.688" r="4.688" fill="url(#bkn_+ra_n-b)" opacity=".3"/>
    <path fill="#000" fill-opacity=".02" d="M8,16.5 C5.790861,16.5 4,14.709139 4,12.5 C4,10.290861 5.790861,8.5 8,8.5 C8.41665567,8.5 8.81843235,8.56370454 9.19612127,8.68190486 C9.75960062,6.83975064 11.4733425,5.5 13.5,5.5 C15.9852814,5.5 18,7.51471863 18,10 C18,10.2345695 17.9820524,10.4649471 17.9474555,10.6898344 C18.2749642,10.5671106 18.6296448,10.5 19,10.5 C20.6568542,10.5 22,11.8431458 22,13.5 C22,15.1568542 20.6568542,16.5 19,16.5 L8,16.5 Z"/>
    <path fill="#000" fill-opacity=".02" d="M8,16.75 C5.790861,16.75 4,14.959139 4,12.75 C4,10.540861 5.790861,8.75 8,8.75 C8.41665567,8.75 8.81843235,8.81370454 9.19612127,8.93190486 C9.75960062,7.08975064 11.4733425,5.75 13.5,5.75 C15.9852814,5.75 18,7.76471863 18,10.25 C18,10.4845695 17.9820524,10.7149471 17.9474555,10.9398344 C18.2749642,10.8171106 18.6296448,10.75 19,10.75 C20.6568542,10.75 22,12.0931458 22,13.75 C22,15.4068542 20.6568542,16.75 19,16.75 L8,16.75 Z"/>
    <path fill="#000" fill-opacity=".02" d="M8,17 C5.790861,17 4,15.209139 4,13 C4,10.790861 5.790861,9 8,9 C8.41665567,9 8.81843235,9.06370454 9.19612127,9.18190486 C9.75960062,7.33975064 11.4733425,6 13.5,6 C15.9852814,6 18,8.01471863 18,10.5 C18,10.7345695 17.9820524,10.9649471 17.9474555,11.1898344 C18.2749642,11.0671106 18.6296448,11 19,11 C20.6568542,11 22,12.3431458 22,14 C22,15.6568542 20.6568542,17 19,17 L8,17 Z"/>
    <path fill="#000" fill-opacity=".02" fill-rule="nonzero" d="M18.25,9.5 C18.25,6.87664744 16.1233526,4.75 13.5,4.75 C11.4804032,4.75 9.70821341,6.02165645 9.03456828,7.8768648 C8.69907844,7.79293371 8.35233296,7.75 8,7.75 C5.65278981,7.75 3.75,9.65278981 3.75,12 C3.75,14.3472102 5.65278981,16.25 8,16.25 L19,16.25 C20.7949254,16.25 22.25,14.7949254 22.25,13 C22.25,11.2050746 20.7949254,9.75 19,9.75 C18.7406655,9.75 18.4853551,9.78043326 18.2380174,9.83987416 C18.245992,9.72716388 18.25,9.61382401 18.25,9.5 Z"/>
    <path fill="#FFF" d="M8,16 C5.790861,16 4,14.209139 4,12 C4,9.790861 5.790861,8 8,8 C8.41665567,8 8.81843235,8.06370454 9.19612127,8.18190486 C9.75960062,6.33975064 11.4733425,5 13.5,5 C15.9852814,5 18,7.01471863 18,9.5 C18,9.73456947 17.9820524,9.96494706 17.9474555,10.1898344 C18.2749642,10.0671106 18.6296448,10 19,10 C20.6568542,10 22,11.3431458 22,13 C22,14.6568542 20.6568542,16 19,16 L8,16 Z"/>
    <circle cx="8" cy="12" r="4" fill="url(#bkn_+ra_n-c)" opacity=".24"/>
    <circle cx="19" cy="13" r="3" fill="url(#bkn_+ra_n-d)" opacity=".24"/>
    <circle cx="13.5" cy="9.5" r="4.5" fill="#FFF"/>
    <path fill="#BCF2FE" fill-rule="nonzero" d="M6.56046253 17.4521702L5.06046253 20.9580296C4.89752629 21.3388506 5.07415681 21.779653 5.45497784 21.9425892 5.83579887 22.1055255 6.27660123 21.9288949 6.43953747 21.5480739L7.93953747 18.0422145C8.10247371 17.6613935 7.92584319 17.2205912 7.54502216 17.0576549 7.16420113 16.8947187 6.72339877 17.0713492 6.56046253 17.4521702zM10.5604625 17.4521702L9.06046253 20.9580296C8.89752629 21.3388506 9.07415681 21.779653 9.45497784 21.9425892 9.83579887 22.1055255 10.2766012 21.9288949 10.4395375 21.5480739L11.9395375 18.0422145C12.1024737 17.6613935 11.9258432 17.2205912 11.5450222 17.0576549 11.1642011 16.8947187 10.7233988 17.0713492 10.5604625 17.4521702zM14.5604625 17.4521702L13.0604625 20.9580296C12.8975263 21.3388506 13.0741568 21.779653 13.4549778 21.9425892 13.8357989 22.1055255 14.2766012 21.9288949 14.4395375 21.5480739L15.9395375 18.0422145C16.1024737 17.6613935 15.9258432 17.2205912 15.5450222 17.0576549 15.1642011 16.8947187 14.7233988 17.0713492 14.5604625 17.4521702zM18.5604625 17.4521702L17.0604625 20.9580296C16.8975263 21.3388506 17.0741568 21.779653 17.4549778 21.9425892 17.8357989 22.1055255 18.2766012 21.9288949 18.4395375 21.5480739L19.9395375 18.0422145C20.1024737 17.6613935 19.9258432 17.2205912 19.5450222 17.0576549 19.1642011 16.8947187 18.7233988 17.0713492 18.5604625 17.4521702z"/>
  </g>
</svg>
