<svg xmlns="http://www.w3.org/2000/svg" width="24" height="24" viewBox="0 0 24 24">
  <defs>
    <linearGradient id="bkn_n-a" x1="50%" x2="50%" y1="0%" y2="100%">
      <stop offset="0%" stop-color="#FFCA3C"/>
      <stop offset="100%" stop-color="#FFB300"/>
    </linearGradient>
    <radialGradient id="bkn_n-b" cx="26.872%" cy="15.007%" r="92.219%" fx="26.872%" fy="15.007%">
      <stop offset="0%" stop-color="#FF6A00" stop-opacity="0"/>
      <stop offset="66.944%" stop-color="#FF6A00" stop-opacity="0"/>
      <stop offset="100%" stop-color="#FF6A00"/>
    </radialGradient>
    <radialGradient id="bkn_n-c" cx="82.715%" cy="14.258%" fx="82.715%" fy="14.258%">
      <stop offset="0%" stop-color="#777AB4"/>
      <stop offset="100%" stop-color="#777AB4" stop-opacity="0"/>
    </radialGradient>
    <radialGradient id="bkn_n-d" cx="8.171%" cy="-6.535%" r="63.588%" fx="8.171%" fy="-6.535%">
      <stop offset="0%" stop-color="#777AB4"/>
      <stop offset="100%" stop-color="#777AB4" stop-opacity="0"/>
    </radialGradient>
  </defs>
  <g fill="none" fill-rule="evenodd">
    <path fill="url(#bkn_n-a)" d="M7.50825261,3.36674739 C9.1927071,4.07743807 10.375,5.74439938 10.375,7.6875 C10.375,10.2763348 8.27633476,12.375 5.6875,12.375 C3.74439938,12.375 2.07743807,11.1927071 1.36674739,9.50825261 C1.92652786,9.74443042 2.54176585,9.875 3.1875,9.875 C5.77633476,9.875 7.875,7.77633476 7.875,5.1875 C7.875,4.54176585 7.74443042,3.92652786 7.50825261,3.36674739 L7.50825261,3.36674739 Z"/>
    <circle cx="5.688" cy="7.688" r="4.688" fill="url(#bkn_n-b)" opacity=".3"/>
    <path fill="#000" fill-opacity=".02" d="M8,18.5 C5.790861,18.5 4,16.709139 4,14.5 C4,12.290861 5.790861,10.5 8,10.5 C8.41665567,10.5 8.81843235,10.5637045 9.19612127,10.6819049 C9.75960062,8.83975064 11.4733425,7.5 13.5,7.5 C15.9852814,7.5 18,9.51471863 18,12 C18,12.2345695 17.9820524,12.4649471 17.9474555,12.6898344 C18.2749642,12.5671106 18.6296448,12.5 19,12.5 C20.6568542,12.5 22,13.8431458 22,15.5 C22,17.1568542 20.6568542,18.5 19,18.5 L8,18.5 Z"/>
    <path fill="#000" fill-opacity=".02" d="M8,18.75 C5.790861,18.75 4,16.959139 4,14.75 C4,12.540861 5.790861,10.75 8,10.75 C8.41665567,10.75 8.81843235,10.8137045 9.19612127,10.9319049 C9.75960062,9.08975064 11.4733425,7.75 13.5,7.75 C15.9852814,7.75 18,9.76471863 18,12.25 C18,12.4845695 17.9820524,12.7149471 17.9474555,12.9398344 C18.2749642,12.8171106 18.6296448,12.75 19,12.75 C20.6568542,12.75 22,14.0931458 22,15.75 C22,17.4068542 20.6568542,18.75 19,18.75 L8,18.75 Z"/>
    <path fill="#000" fill-opacity=".02" d="M8,19 C5.790861,19 4,17.209139 4,15 C4,12.790861 5.790861,11 8,11 C8.41665567,11 8.81843235,11.0637045 9.19612127,11.1819049 C9.75960062,9.33975064 11.4733425,8 13.5,8 C15.9852814,8 18,10.0147186 18,12.5 C18,12.7345695 17.9820524,12.9649471 17.9474555,13.1898344 C18.2749642,13.0671106 18.6296448,13 19,13 C20.6568542,13 22,14.3431458 22,16 C22,17.6568542 20.6568542,19 19,19 L8,19 Z"/>
    <path fill="#000" fill-opacity=".02" fill-rule="nonzero" d="M18.25,11.5 C18.25,8.87664744 16.1233526,6.75 13.5,6.75 C11.4804032,6.75 9.70821341,8.02165645 9.03456828,9.8768648 C8.69907844,9.79293371 8.35233296,9.75 8,9.75 C5.65278981,9.75 3.75,11.6527898 3.75,14 C3.75,16.3472102 5.65278981,18.25 8,18.25 L19,18.25 C20.7949254,18.25 22.25,16.7949254 22.25,15 C22.25,13.2050746 20.7949254,11.75 19,11.75 C18.7406655,11.75 18.4853551,11.7804333 18.2380174,11.8398742 C18.245992,11.7271639 18.25,11.613824 18.25,11.5 Z"/>
    <path fill="#FFF" d="M8,18 C5.790861,18 4,16.209139 4,14 C4,11.790861 5.790861,10 8,10 C8.41665567,10 8.81843235,10.0637045 9.19612127,10.1819049 C9.75960062,8.33975064 11.4733425,7 13.5,7 C15.9852814,7 18,9.01471863 18,11.5 C18,11.7345695 17.9820524,11.9649471 17.9474555,12.1898344 C18.2749642,12.0671106 18.6296448,12 19,12 C20.6568542,12 22,13.3431458 22,15 C22,16.6568542 20.6568542,18 19,18 L8,18 Z"/>
    <circle cx="8" cy="14" r="4" fill="url(#bkn_n-c)" opacity=".24"/>
    <circle cx="19" cy="15" r="3" fill="url(#bkn_n-d)" opacity=".24"/>
    <circle cx="13.5" cy="11.5" r="4.5" fill="#FFF"/>
  </g>
</svg>
