<svg xmlns="http://www.w3.org/2000/svg" xmlns:xlink="http://www.w3.org/1999/xlink" width="24" height="24" viewBox="0 0 24 24">
  <defs>
    <radialGradient id="bkn_d-a" cy="50.21%" r="48.457%" fx="50%" fy="50.21%">
      <stop offset=".062%" stop-color="#FFCE47"/>
      <stop offset="100%" stop-color="#FFB300"/>
    </radialGradient>
    <radialGradient id="bkn_d-b" cx="10.956%" cy="64.355%" r="56.514%" fx="10.956%" fy="64.355%">
      <stop offset="0%" stop-color="#E85423"/>
      <stop offset="100%" stop-color="#E85423" stop-opacity="0"/>
    </radialGradient>
    <radialGradient id="bkn_d-d" cx="56.956%" cy="106.356%" r="39.878%" fx="56.956%" fy="106.356%">
      <stop offset="0%" stop-color="#E85423"/>
      <stop offset="100%" stop-color="#E85423" stop-opacity="0"/>
    </radialGradient>
    <circle id="bkn_d-c" cx="16" cy="10" r="4"/>
    <radialGradient id="bkn_d-e" cx="82.715%" cy="14.258%" fx="82.715%" fy="14.258%">
      <stop offset="0%" stop-color="#777AB4"/>
      <stop offset="100%" stop-color="#777AB4" stop-opacity="0"/>
    </radialGradient>
    <radialGradient id="bkn_d-f" cx="8.171%" cy="-6.535%" r="63.588%" fx="8.171%" fy="-6.535%">
      <stop offset="0%" stop-color="#777AB4"/>
      <stop offset="100%" stop-color="#777AB4" stop-opacity="0"/>
    </radialGradient>
  </defs>
  <g fill="none" fill-rule="evenodd">
    <circle cx="16" cy="10" r="4" fill="url(#bkn_d-a)"/>
    <path fill="#FFB300" fill-rule="nonzero" d="M15.4796565 2.72990766L15.7401288 4.20711929C15.913777 5.19192704 14.4365653 5.45239931 14.2629172 4.46759155L14.0024449 2.99037992C13.8287967 2.00557217 15.3060083 1.7450999 15.4796565 2.72990766zM17.7370828 15.5324084L17.9975551 17.0096201C18.1712033 17.9944278 16.6939917 18.2549001 16.5203435 17.2700923L16.2598712 15.7928807C16.086223 14.808073 17.5634347 14.5476007 17.7370828 15.5324084zM20.7727932 4.49133001L19.9124285 5.72005807C19.3388521 6.53921012 18.110124 5.67884546 18.6837005 4.85969342L19.5440651 3.63096535C20.1176416 2.81181331 21.3463696 3.67217796 20.7727932 4.49133001zM13.3162995 15.1403066L12.4559349 16.3690346C11.8823584 17.1881867 10.6536304 16.327822 11.2272068 15.50867L12.0875715 14.2799419C12.6611479 13.4607899 13.889876 14.3211545 13.3162995 15.1403066zM10.49133 5.2272068L11.7200581 6.08757146C12.5392101 6.66114789 11.6788455 7.88987596 10.8596934 7.31629952L9.63096535 6.45593487C8.81181331 5.88235843 9.67217796 4.65363037 10.49133 5.2272068zM21.1403066 12.6837005L22.3690346 13.5440651C23.1881867 14.1176416 22.327822 15.3463696 21.50867 14.7727932L20.2799419 13.9124285C19.4607899 13.3388521 20.3211545 12.110124 21.1403066 12.6837005zM23.2700923 9.47965653L21.7928807 9.74012879C20.808073 9.91377697 20.5476007 8.43656534 21.5324084 8.26291716L23.0096201 8.0024449C23.9944278 7.82879672 24.2549001 9.30600835 23.2700923 9.47965653zM10.4675916 11.7370828L8.99037992 11.9975551C8.00557217 12.1712033 7.7450999 10.6939917 8.72990766 10.5203435L10.2071193 10.2598712C11.191927 10.086223 11.4523993 11.5634347 10.4675916 11.7370828z"/>
    <g opacity=".5">
      <use fill="url(#bkn_d-b)" xlink:href="#bkn_d-c"/>
      <use fill="url(#bkn_d-d)" xlink:href="#bkn_d-c"/>
    </g>
    <path fill="#000" fill-opacity=".02" d="M6,19.5 C3.790861,19.5 2,17.709139 2,15.5 C2,13.290861 3.790861,11.5 6,11.5 C6.41665567,11.5 6.81843235,11.5637045 7.19612127,11.6819049 C7.75960062,9.83975064 9.47334255,8.5 11.5,8.5 C13.9852814,8.5 16,10.5147186 16,13 C16,13.2345695 15.9820524,13.4649471 15.9474555,13.6898344 C16.2749642,13.5671106 16.6296448,13.5 17,13.5 C18.6568542,13.5 20,14.8431458 20,16.5 C20,18.1568542 18.6568542,19.5 17,19.5 L6,19.5 Z"/>
    <path fill="#000" fill-opacity=".02" d="M6,19.75 C3.790861,19.75 2,17.959139 2,15.75 C2,13.540861 3.790861,11.75 6,11.75 C6.41665567,11.75 6.81843235,11.8137045 7.19612127,11.9319049 C7.75960062,10.0897506 9.47334255,8.75 11.5,8.75 C13.9852814,8.75 16,10.7647186 16,13.25 C16,13.4845695 15.9820524,13.7149471 15.9474555,13.9398344 C16.2749642,13.8171106 16.6296448,13.75 17,13.75 C18.6568542,13.75 20,15.0931458 20,16.75 C20,18.4068542 18.6568542,19.75 17,19.75 L6,19.75 Z"/>
    <path fill="#000" fill-opacity=".02" d="M6,20 C3.790861,20 2,18.209139 2,16 C2,13.790861 3.790861,12 6,12 C6.41665567,12 6.81843235,12.0637045 7.19612127,12.1819049 C7.75960062,10.3397506 9.47334255,9 11.5,9 C13.9852814,9 16,11.0147186 16,13.5 C16,13.7345695 15.9820524,13.9649471 15.9474555,14.1898344 C16.2749642,14.0671106 16.6296448,14 17,14 C18.6568542,14 20,15.3431458 20,17 C20,18.6568542 18.6568542,20 17,20 L6,20 Z"/>
    <path fill="#000" fill-opacity=".02" fill-rule="nonzero" d="M16.25,12.5 C16.25,9.87664744 14.1233526,7.75 11.5,7.75 C9.48040323,7.75 7.70821341,9.02165645 7.03456828,10.8768648 C6.69907844,10.7929337 6.35233296,10.75 6,10.75 C3.65278981,10.75 1.75,12.6527898 1.75,15 C1.75,17.3472102 3.65278981,19.25 6,19.25 L17,19.25 C18.7949254,19.25 20.25,17.7949254 20.25,16 C20.25,14.2050746 18.7949254,12.75 17,12.75 C16.7406655,12.75 16.4853551,12.7804333 16.2380174,12.8398742 C16.245992,12.7271639 16.25,12.613824 16.25,12.5 Z"/>
    <path fill="#FFF" d="M6,19 C3.790861,19 2,17.209139 2,15 C2,12.790861 3.790861,11 6,11 C6.41665567,11 6.81843235,11.0637045 7.19612127,11.1819049 C7.75960062,9.33975064 9.47334255,8 11.5,8 C13.9852814,8 16,10.0147186 16,12.5 C16,12.7345695 15.9820524,12.9649471 15.9474555,13.1898344 C16.2749642,13.0671106 16.6296448,13 17,13 C18.6568542,13 20,14.3431458 20,16 C20,17.6568542 18.6568542,19 17,19 L6,19 Z"/>
    <circle cx="6" cy="15" r="4" fill="url(#bkn_d-e)" opacity=".24"/>
    <circle cx="17" cy="16" r="3" fill="url(#bkn_d-f)" opacity=".24"/>
    <circle cx="11.5" cy="12.5" r="4.5" fill="#FFF"/>
  </g>
</svg>
