<svg xmlns="http://www.w3.org/2000/svg" xmlns:xlink="http://www.w3.org/1999/xlink" width="24" height="24" viewBox="0 0 24 24">
  <defs>
    <radialGradient id="bkn_sn_d-a" cy="50.21%" r="48.457%" fx="50%" fy="50.21%">
      <stop offset=".062%" stop-color="#FFCE47"/>
      <stop offset="100%" stop-color="#FFB300"/>
    </radialGradient>
    <radialGradient id="bkn_sn_d-b" cx="10.956%" cy="64.355%" r="56.514%" fx="10.956%" fy="64.355%">
      <stop offset="0%" stop-color="#E85423"/>
      <stop offset="100%" stop-color="#E85423" stop-opacity="0"/>
    </radialGradient>
    <radialGradient id="bkn_sn_d-d" cx="56.956%" cy="106.356%" r="39.878%" fx="56.956%" fy="106.356%">
      <stop offset="0%" stop-color="#E85423"/>
      <stop offset="100%" stop-color="#E85423" stop-opacity="0"/>
    </radialGradient>
    <circle id="bkn_sn_d-c" cx="16" cy="8" r="4"/>
    <radialGradient id="bkn_sn_d-e" cx="82.715%" cy="14.258%" fx="82.715%" fy="14.258%">
      <stop offset="0%" stop-color="#777AB4"/>
      <stop offset="100%" stop-color="#777AB4" stop-opacity="0"/>
    </radialGradient>
    <radialGradient id="bkn_sn_d-f" cx="8.171%" cy="-6.535%" r="63.588%" fx="8.171%" fy="-6.535%">
      <stop offset="0%" stop-color="#777AB4"/>
      <stop offset="100%" stop-color="#777AB4" stop-opacity="0"/>
    </radialGradient>
  </defs>
  <g fill="none" fill-rule="evenodd">
    <circle cx="16" cy="8" r="4" fill="url(#bkn_sn_d-a)"/>
    <path fill="#FFB300" fill-rule="nonzero" d="M15.4796565.729907657L15.7401288 2.20711929C15.913777 3.19192704 14.4365653 3.45239931 14.2629172 2.46759155L14.0024449.990379924C13.8287967.0055721709 15.3060083-.254900096 15.4796565.729907657zM17.7370828 13.5324084L17.9975551 15.0096201C18.1712033 15.9944278 16.6939917 16.2549001 16.5203435 15.2700923L16.2598712 13.7928807C16.086223 12.808073 17.5634347 12.5476007 17.7370828 13.5324084zM20.7727932 2.49133001L19.9124285 3.72005807C19.3388521 4.53921012 18.110124 3.67884546 18.6837005 2.85969342L19.5440651 1.63096535C20.1176416.811813307 21.3463696 1.67217796 20.7727932 2.49133001zM13.3162995 13.1403066L12.4559349 14.3690346C11.8823584 15.1881867 10.6536304 14.327822 11.2272068 13.50867L12.0875715 12.2799419C12.6611479 11.4607899 13.889876 12.3211545 13.3162995 13.1403066zM10.49133 3.2272068L11.7200581 4.08757146C12.5392101 4.66114789 11.6788455 5.88987596 10.8596934 5.31629952L9.63096535 4.45593487C8.81181331 3.88235843 9.67217796 2.65363037 10.49133 3.2272068zM21.1403066 10.6837005L22.3690346 11.5440651C23.1881867 12.1176416 22.327822 13.3463696 21.50867 12.7727932L20.2799419 11.9124285C19.4607899 11.3388521 20.3211545 10.110124 21.1403066 10.6837005zM23.2700923 7.47965653L21.7928807 7.74012879C20.808073 7.91377697 20.5476007 6.43656534 21.5324084 6.26291716L23.0096201 6.0024449C23.9944278 5.82879672 24.2549001 7.30600835 23.2700923 7.47965653zM10.4675916 9.73708284L8.99037992 9.9975551C8.00557217 10.1712033 7.7450999 8.69399165 8.72990766 8.52034347L10.2071193 8.25987121C11.191927 8.08622303 11.4523993 9.56343466 10.4675916 9.73708284z"/>
    <path fill="#FFF" fill-rule="nonzero" d="M14.875,19.63 L14.875,23.37 C14.875,23.715178 15.154822,23.995 15.5,23.995 C15.845178,23.995 16.125,23.715178 16.125,23.37 L16.125,19.63 C16.125,19.284822 15.845178,19.005 15.5,19.005 C15.154822,19.005 14.875,19.284822 14.875,19.63 Z"/>
    <path fill="#FFF" fill-rule="nonzero" d="M14.1930325,20.0237341 L17.4319675,21.8937341 C18.1536553,22.3104008 17.5286553,23.3929325 16.8069675,22.9762659 L13.5680325,21.1062659 C12.8463447,20.6895992 13.4713447,19.6070675 14.1930325,20.0237341 Z"/>
    <path fill="#FFF" fill-rule="nonzero" d="M17.4319675 21.1062659L14.1930325 22.9762659C13.4713447 23.3929325 12.8463447 22.3104008 13.5680325 21.8937341L16.8069675 20.0237341C17.5286553 19.6070675 18.1536553 20.6895992 17.4319675 21.1062659zM7.875 18.63L7.875 22.37C7.875 22.715178 8.15482203 22.995 8.5 22.995 8.84517797 22.995 9.125 22.715178 9.125 22.37L9.125 18.63C9.125 18.284822 8.84517797 18.005 8.5 18.005 8.15482203 18.005 7.875 18.284822 7.875 18.63z"/>
    <path fill="#FFF" fill-rule="nonzero" d="M7.19303249,19.0237341 L10.4319675,20.8937341 C11.1536553,21.3104008 10.5286553,22.3929325 9.80696751,21.9762659 L6.56803249,20.1062659 C5.84634466,19.6895992 6.47134466,18.6070675 7.19303249,19.0237341 Z"/>
    <path fill="#FFF" fill-rule="nonzero" d="M10.4319675,20.1062659 L7.19303249,21.9762659 C6.47134466,22.3929325 5.84634466,21.3104008 6.56803249,20.8937341 L9.80696751,19.0237341 C10.5286553,18.6070675 11.1536553,19.6895992 10.4319675,20.1062659 Z"/>
    <g opacity=".5">
      <use fill="url(#bkn_sn_d-b)" xlink:href="#bkn_sn_d-c"/>
      <use fill="url(#bkn_sn_d-d)" xlink:href="#bkn_sn_d-c"/>
    </g>
    <path fill="#000" fill-opacity=".02" d="M6,17.5 C3.790861,17.5 2,15.709139 2,13.5 C2,11.290861 3.790861,9.5 6,9.5 C6.41665567,9.5 6.81843235,9.56370454 7.19612127,9.68190486 C7.75960062,7.83975064 9.47334255,6.5 11.5,6.5 C13.9852814,6.5 16,8.51471863 16,11 C16,11.2345695 15.9820524,11.4649471 15.9474555,11.6898344 C16.2749642,11.5671106 16.6296448,11.5 17,11.5 C18.6568542,11.5 20,12.8431458 20,14.5 C20,16.1568542 18.6568542,17.5 17,17.5 L6,17.5 Z"/>
    <path fill="#000" fill-opacity=".02" d="M6,17.75 C3.790861,17.75 2,15.959139 2,13.75 C2,11.540861 3.790861,9.75 6,9.75 C6.41665567,9.75 6.81843235,9.81370454 7.19612127,9.93190486 C7.75960062,8.08975064 9.47334255,6.75 11.5,6.75 C13.9852814,6.75 16,8.76471863 16,11.25 C16,11.4845695 15.9820524,11.7149471 15.9474555,11.9398344 C16.2749642,11.8171106 16.6296448,11.75 17,11.75 C18.6568542,11.75 20,13.0931458 20,14.75 C20,16.4068542 18.6568542,17.75 17,17.75 L6,17.75 Z"/>
    <path fill="#000" fill-opacity=".02" d="M6,18 C3.790861,18 2,16.209139 2,14 C2,11.790861 3.790861,10 6,10 C6.41665567,10 6.81843235,10.0637045 7.19612127,10.1819049 C7.75960062,8.33975064 9.47334255,7 11.5,7 C13.9852814,7 16,9.01471863 16,11.5 C16,11.7345695 15.9820524,11.9649471 15.9474555,12.1898344 C16.2749642,12.0671106 16.6296448,12 17,12 C18.6568542,12 20,13.3431458 20,15 C20,16.6568542 18.6568542,18 17,18 L6,18 Z"/>
    <path fill="#000" fill-opacity=".02" fill-rule="nonzero" d="M16.25,10.5 C16.25,7.87664744 14.1233526,5.75 11.5,5.75 C9.48040323,5.75 7.70821341,7.02165645 7.03456828,8.8768648 C6.69907844,8.79293371 6.35233296,8.75 6,8.75 C3.65278981,8.75 1.75,10.6527898 1.75,13 C1.75,15.3472102 3.65278981,17.25 6,17.25 L17,17.25 C18.7949254,17.25 20.25,15.7949254 20.25,14 C20.25,12.2050746 18.7949254,10.75 17,10.75 C16.7406655,10.75 16.4853551,10.7804333 16.2380174,10.8398742 C16.245992,10.7271639 16.25,10.613824 16.25,10.5 Z"/>
    <path fill="#FFF" d="M6,17 C3.790861,17 2,15.209139 2,13 C2,10.790861 3.790861,9 6,9 C6.41665567,9 6.81843235,9.06370454 7.19612127,9.18190486 C7.75960062,7.33975064 9.47334255,6 11.5,6 C13.9852814,6 16,8.01471863 16,10.5 C16,10.7345695 15.9820524,10.9649471 15.9474555,11.1898344 C16.2749642,11.0671106 16.6296448,11 17,11 C18.6568542,11 20,12.3431458 20,14 C20,15.6568542 18.6568542,17 17,17 L6,17 Z"/>
    <circle cx="6" cy="13" r="4" fill="url(#bkn_sn_d-e)" opacity=".24"/>
    <circle cx="17" cy="14" r="3" fill="url(#bkn_sn_d-f)" opacity=".24"/>
    <circle cx="11.5" cy="10.5" r="4.5" fill="#FFF"/>
  </g>
</svg>
