<svg xmlns="http://www.w3.org/2000/svg" width="24" height="24" viewBox="0 0 24 24">
  <g fill="#FFF">
    <path d="M17.3457458,13.729231 L6.7205617,10.8822215 C5.91562351,10.666539 6.23914732,9.45913169 7.04408551,9.67481423 L17.6692696,12.5218237 C18.4742078,12.7375063 18.150684,13.9449135 17.3457458,13.729231 Z"/>
    <path d="M7.3263813 11.3092925C7.05730661 11.5255023 7.01445108 11.918903 7.2306608 12.1879777 7.44687051 12.4570524 7.84027125 12.4999079 8.10934594 12.2836982L9.31711055 11.3132225C9.52954085 11.1425283 9.60688621 10.8538715 9.50826328 10.5998308L8.94754628 9.15549194C8.82262562 8.83371149 8.46050282 8.6741251 8.13872237 8.79904576 7.81694192 8.92396642 7.65735553 9.28608922 7.78227619 9.60786967L8.17734451 10.6255177 7.3263813 11.3092925zM17.06345 12.0947527C17.3325247 11.878543 17.3753802 11.4851422 17.1591705 11.2160675 16.9429608 10.9469929 16.54956 10.9041373 16.2804854 11.120347L15.0727207 12.0908227C14.8602904 12.2615169 14.7829451 12.5501737 14.881568 12.8042144L15.442285 14.2485533C15.5672057 14.5703337 15.9293285 14.7299201 16.2511089 14.6049995 16.5728894 14.4800788 16.7324758 14.117956 16.6075551 13.7961756L16.2124868 12.7785276 17.06345 12.0947527zM13.0147168 17.1763766L10.1677073 6.55119248C9.95202472 5.74625429 11.159432 5.42273048 11.3751145 6.22766867L14.222124 16.8528528C14.4378066 17.6577909 13.2303993 17.9813148 13.0147168 17.1763766z"/>
    <path d="M10.1007627 7.28938316C9.77898225 7.1644625 9.41685945 7.32404889 9.29193879 7.64582934 9.16701813 7.96760979 9.32660452 8.32973259 9.64838497 8.45465325L11.0927239 9.01537025C11.3467645 9.11399318 11.6354213 9.03664782 11.8061156 8.82421753L12.7765912 7.61645291C12.9928009 7.34737822 12.9499454 6.95397748 12.6808707 6.73776777 12.411796 6.52155805 12.0183953 6.56441359 11.8021856 6.83348828L11.1184107 7.68445148 10.1007627 7.28938316zM14.2890686 16.1146621C14.610849 16.2395827 14.9729718 16.0799963 15.0978925 15.7582159 15.2228132 15.4364354 15.0632268 15.0743126 14.7414463 14.949392L13.2971074 14.388675C13.0430668 14.2900521 12.75441 14.3673974 12.5837157 14.5798277L11.6132401 15.7875923C11.3970304 16.056667 11.4398859 16.4500678 11.7089606 16.6662775 11.9780353 16.8824872 12.371436 16.8396317 12.5876457 16.570557L13.2714206 15.7195938 14.2890686 16.1146621zM16.5259447 8.25487706L8.74777009 16.0330517C8.15851444 16.6223073 7.27463096 15.7384238 7.86388661 15.1491682L15.6420612 7.37099358C16.2313169 6.78173793 17.1152003 7.66562141 16.5259447 8.25487706z"/>
    <path d="M9.42053425 15.721932C9.47324001 16.0630624 9.79250728 16.2968767 10.1336377 16.244171 10.474768 16.1914652 10.7085824 15.8721979 10.6558766 15.5310676L10.4193023 13.9998749C10.377692 13.7305577 10.1663805 13.5192463 9.89706338 13.4776359L8.3658707 13.2410616C8.02474033 13.1883559 7.70547306 13.4221702 7.6527673 13.7633006 7.60006154 14.104431 7.83387589 14.4236983 8.17500626 14.476404L9.25384945 14.6430888 9.42053425 15.721932zM14.969297 7.68211324C14.9165913 7.34098286 14.597324 7.10716851 14.2561936 7.15987427 13.9150633 7.21258003 13.6812489 7.5318473 13.7339547 7.87297768L13.970529 9.40417035C14.0121393 9.67348749 14.2234508 9.88479893 14.4927679 9.92640931L16.0239606 10.1629836C16.365091 10.2156894 16.6843582 9.981875 16.737064 9.64074463 16.7897698 9.29961425 16.5559554 8.98034699 16.214825 8.92764123L15.1359818 8.76095642 14.969297 7.68211324z"/>
  </g>
</svg>
