<svg xmlns="http://www.w3.org/2000/svg" width="24" height="24" viewBox="0 0 24 24">
  <defs>
    <radialGradient id="ovc_ra-a" cx="82.715%" cy="14.258%" fx="82.715%" fy="14.258%">
      <stop offset="0%" stop-color="#777AB4"/>
      <stop offset="100%" stop-color="#777AB4" stop-opacity="0"/>
    </radialGradient>
    <radialGradient id="ovc_ra-b" cx="8.171%" cy="-6.535%" r="63.588%" fx="8.171%" fy="-6.535%">
      <stop offset="0%" stop-color="#777AB4"/>
      <stop offset="100%" stop-color="#777AB4" stop-opacity="0"/>
    </radialGradient>
  </defs>
  <g fill="none" fill-rule="evenodd">
    <path fill="#000" fill-opacity=".02" d="M7,14.5 C4.790861,14.5 3,12.709139 3,10.5 C3,8.290861 4.790861,6.5 7,6.5 C7.41665567,6.5 7.81843235,6.56370454 8.19612127,6.68190486 C8.75960062,4.83975064 10.4733425,3.5 12.5,3.5 C14.9852814,3.5 17,5.51471863 17,8 C17,8.23456947 16.9820524,8.46494706 16.9474555,8.68983445 C17.2749642,8.56711064 17.6296448,8.5 18,8.5 C19.6568542,8.5 21,9.84314575 21,11.5 C21,13.1568542 19.6568542,14.5 18,14.5 L7,14.5 Z"/>
    <path fill="#000" fill-opacity=".02" d="M7,14.75 C4.790861,14.75 3,12.959139 3,10.75 C3,8.540861 4.790861,6.75 7,6.75 C7.41665567,6.75 7.81843235,6.81370454 8.19612127,6.93190486 C8.75960062,5.08975064 10.4733425,3.75 12.5,3.75 C14.9852814,3.75 17,5.76471863 17,8.25 C17,8.48456947 16.9820524,8.71494706 16.9474555,8.93983445 C17.2749642,8.81711064 17.6296448,8.75 18,8.75 C19.6568542,8.75 21,10.0931458 21,11.75 C21,13.4068542 19.6568542,14.75 18,14.75 L7,14.75 Z"/>
    <path fill="#000" fill-opacity=".02" d="M7,15 C4.790861,15 3,13.209139 3,11 C3,8.790861 4.790861,7 7,7 C7.41665567,7 7.81843235,7.06370454 8.19612127,7.18190486 C8.75960062,5.33975064 10.4733425,4 12.5,4 C14.9852814,4 17,6.01471863 17,8.5 C17,8.73456947 16.9820524,8.96494706 16.9474555,9.18983445 C17.2749642,9.06711064 17.6296448,9 18,9 C19.6568542,9 21,10.3431458 21,12 C21,13.6568542 19.6568542,15 18,15 L7,15 Z"/>
    <path fill="#000" fill-opacity=".02" fill-rule="nonzero" d="M17.25,7.5 C17.25,4.87664744 15.1233526,2.75 12.5,2.75 C10.4804032,2.75 8.70821341,4.02165645 8.03456828,5.8768648 C7.69907844,5.79293371 7.35233296,5.75 7,5.75 C4.65278981,5.75 2.75,7.65278981 2.75,10 C2.75,12.3472102 4.65278981,14.25 7,14.25 L18,14.25 C19.7949254,14.25 21.25,12.7949254 21.25,11 C21.25,9.20507456 19.7949254,7.75 18,7.75 C17.7406655,7.75 17.4853551,7.78043326 17.2380174,7.83987416 C17.245992,7.72716388 17.25,7.61382401 17.25,7.5 Z"/>
    <path fill="#FFF" d="M7,14 C4.790861,14 3,12.209139 3,10 C3,7.790861 4.790861,6 7,6 C7.41665567,6 7.81843235,6.06370454 8.19612127,6.18190486 C8.75960062,4.33975064 10.4733425,3 12.5,3 C14.9852814,3 17,5.01471863 17,7.5 C17,7.73456947 16.9820524,7.96494706 16.9474555,8.18983445 C17.2749642,8.06711064 17.6296448,8 18,8 C19.6568542,8 21,9.34314575 21,11 C21,12.6568542 19.6568542,14 18,14 L7,14 Z"/>
    <circle cx="7" cy="10" r="4" fill="url(#ovc_ra-a)" opacity=".24"/>
    <circle cx="18" cy="11" r="3" fill="url(#ovc_ra-b)" opacity=".24"/>
    <circle cx="12.5" cy="7.5" r="4.5" fill="#FFF"/>
    <path fill="#B2DEF7" fill-rule="nonzero" d="M7.10853642 16.4631224L6.05853623 18.9625731C5.89810929 19.344458 6.07763644 19.7840886 6.45952134 19.9445155 6.84140623 20.1049425 7.28103684 19.9254153 7.44146377 19.5435304L8.49146396 17.0440797C8.6518909 16.6621948 8.47236375 16.2225642 8.09047885 16.0621373 7.70859396 15.9017104 7.26896336 16.0812375 7.10853642 16.4631224zM15.1085364 16.4631224L14.0585362 18.9625731C13.8981093 19.344458 14.0776364 19.7840886 14.4595213 19.9445155 14.8414062 20.1049425 15.2810368 19.9254153 15.4414638 19.5435304L16.491464 17.0440797C16.6518909 16.6621948 16.4723637 16.2225642 16.0904789 16.0621373 15.708594 15.9017104 15.2689634 16.0812375 15.1085364 16.4631224zM11.1085364 15.4631224L10.0585362 17.9625731C9.89810929 18.344458 10.0776364 18.7840886 10.4595213 18.9445155 10.8414062 19.1049425 11.2810368 18.9254153 11.4414638 18.5435304L12.491464 16.0440797C12.6518909 15.6621948 12.4723637 15.2225642 12.0904789 15.0621373 11.708594 14.9017104 11.2689634 15.0812375 11.1085364 15.4631224z"/>
  </g>
</svg>
