<svg xmlns="http://www.w3.org/2000/svg" width="24" height="24" viewBox="0 0 24 24">
  <defs>
    <radialGradient id="ovc_gr-a" cx="82.715%" cy="14.258%" fx="82.715%" fy="14.258%">
      <stop offset="0%" stop-color="#777AB4"/>
      <stop offset="100%" stop-color="#777AB4" stop-opacity="0"/>
    </radialGradient>
    <radialGradient id="ovc_gr-b" cx="8.171%" cy="-6.535%" r="63.588%" fx="8.171%" fy="-6.535%">
      <stop offset="0%" stop-color="#777AB4"/>
      <stop offset="100%" stop-color="#777AB4" stop-opacity="0"/>
    </radialGradient>
  </defs>
  <g fill="none" fill-rule="evenodd">
    <path fill="#FFF" fill-rule="nonzero" d="M9.03033009 15.2196699L9.78033009 15.9696699C10.0732233 16.2625631 10.0732233 16.7374369 9.78033009 17.0303301L9.03033009 17.7803301C8.73743687 18.0732233 8.26256313 18.0732233 7.96966991 17.7803301L7.21966991 17.0303301C6.9267767 16.7374369 6.9267767 16.2625631 7.21966991 15.9696699L7.96966991 15.2196699C8.26256313 14.9267767 8.73743687 14.9267767 9.03033009 15.2196699zM12.0303301 18.2196699L12.7803301 18.9696699C13.0732233 19.2625631 13.0732233 19.7374369 12.7803301 20.0303301L12.0303301 20.7803301C11.7374369 21.0732233 11.2625631 21.0732233 10.9696699 20.7803301L10.2196699 20.0303301C9.9267767 19.7374369 9.9267767 19.2625631 10.2196699 18.9696699L10.9696699 18.2196699C11.2625631 17.9267767 11.7374369 17.9267767 12.0303301 18.2196699zM15.0303301 15.2196699L15.7803301 15.9696699C16.0732233 16.2625631 16.0732233 16.7374369 15.7803301 17.0303301L15.0303301 17.7803301C14.7374369 18.0732233 14.2625631 18.0732233 13.9696699 17.7803301L13.2196699 17.0303301C12.9267767 16.7374369 12.9267767 16.2625631 13.2196699 15.9696699L13.9696699 15.2196699C14.2625631 14.9267767 14.7374369 14.9267767 15.0303301 15.2196699z"/>
    <path fill="#000" fill-opacity=".02" d="M7,14.5 C4.790861,14.5 3,12.709139 3,10.5 C3,8.290861 4.790861,6.5 7,6.5 C7.41665567,6.5 7.81843235,6.56370454 8.19612127,6.68190486 C8.75960062,4.83975064 10.4733425,3.5 12.5,3.5 C14.9852814,3.5 17,5.51471863 17,8 C17,8.23456947 16.9820524,8.46494706 16.9474555,8.68983445 C17.2749642,8.56711064 17.6296448,8.5 18,8.5 C19.6568542,8.5 21,9.84314575 21,11.5 C21,13.1568542 19.6568542,14.5 18,14.5 L7,14.5 Z"/>
    <path fill="#000" fill-opacity=".02" d="M7,14.75 C4.790861,14.75 3,12.959139 3,10.75 C3,8.540861 4.790861,6.75 7,6.75 C7.41665567,6.75 7.81843235,6.81370454 8.19612127,6.93190486 C8.75960062,5.08975064 10.4733425,3.75 12.5,3.75 C14.9852814,3.75 17,5.76471863 17,8.25 C17,8.48456947 16.9820524,8.71494706 16.9474555,8.93983445 C17.2749642,8.81711064 17.6296448,8.75 18,8.75 C19.6568542,8.75 21,10.0931458 21,11.75 C21,13.4068542 19.6568542,14.75 18,14.75 L7,14.75 Z"/>
    <path fill="#000" fill-opacity=".02" d="M7,15 C4.790861,15 3,13.209139 3,11 C3,8.790861 4.790861,7 7,7 C7.41665567,7 7.81843235,7.06370454 8.19612127,7.18190486 C8.75960062,5.33975064 10.4733425,4 12.5,4 C14.9852814,4 17,6.01471863 17,8.5 C17,8.73456947 16.9820524,8.96494706 16.9474555,9.18983445 C17.2749642,9.06711064 17.6296448,9 18,9 C19.6568542,9 21,10.3431458 21,12 C21,13.6568542 19.6568542,15 18,15 L7,15 Z"/>
    <path fill="#000" fill-opacity=".02" fill-rule="nonzero" d="M17.25,7.5 C17.25,4.87664744 15.1233526,2.75 12.5,2.75 C10.4804032,2.75 8.70821341,4.02165645 8.03456828,5.8768648 C7.69907844,5.79293371 7.35233296,5.75 7,5.75 C4.65278981,5.75 2.75,7.65278981 2.75,10 C2.75,12.3472102 4.65278981,14.25 7,14.25 L18,14.25 C19.7949254,14.25 21.25,12.7949254 21.25,11 C21.25,9.20507456 19.7949254,7.75 18,7.75 C17.7406655,7.75 17.4853551,7.78043326 17.2380174,7.83987416 C17.245992,7.72716388 17.25,7.61382401 17.25,7.5 Z"/>
    <path fill="#FFF" d="M7,14 C4.790861,14 3,12.209139 3,10 C3,7.790861 4.790861,6 7,6 C7.41665567,6 7.81843235,6.06370454 8.19612127,6.18190486 C8.75960062,4.33975064 10.4733425,3 12.5,3 C14.9852814,3 17,5.01471863 17,7.5 C17,7.73456947 16.9820524,7.96494706 16.9474555,8.18983445 C17.2749642,8.06711064 17.6296448,8 18,8 C19.6568542,8 21,9.34314575 21,11 C21,12.6568542 19.6568542,14 18,14 L7,14 Z"/>
    <circle cx="7" cy="10" r="4" fill="url(#ovc_gr-a)" opacity=".24"/>
    <circle cx="18" cy="11" r="3" fill="url(#ovc_gr-b)" opacity=".24"/>
    <circle cx="12.5" cy="7.5" r="4.5" fill="#FFF"/>
  </g>
</svg>
