<svg xmlns="http://www.w3.org/2000/svg" width="24" height="24" viewBox="0 0 24 24">
  <defs>
    <radialGradient id="ovc_+sn-a" cx="82.715%" cy="14.258%" fx="82.715%" fy="14.258%">
      <stop offset="0%" stop-color="#777AB4"/>
      <stop offset="100%" stop-color="#777AB4" stop-opacity="0"/>
    </radialGradient>
    <radialGradient id="ovc_+sn-b" cx="8.171%" cy="-6.535%" r="63.588%" fx="8.171%" fy="-6.535%">
      <stop offset="0%" stop-color="#777AB4"/>
      <stop offset="100%" stop-color="#777AB4" stop-opacity="0"/>
    </radialGradient>
  </defs>
  <g fill="none" fill-rule="evenodd">
    <path fill="#FFF" fill-rule="nonzero" d="M10.875,17.63 L10.875,21.37 C10.875,21.715178 11.154822,21.995 11.5,21.995 C11.845178,21.995 12.125,21.715178 12.125,21.37 L12.125,17.63 C12.125,17.284822 11.845178,17.005 11.5,17.005 C11.154822,17.005 10.875,17.284822 10.875,17.63 Z"/>
    <path fill="#FFF" fill-rule="nonzero" d="M10.1930325,18.0237341 L13.4319675,19.8937341 C14.1536553,20.3104008 13.5286553,21.3929325 12.8069675,20.9762659 L9.56803249,19.1062659 C8.84634466,18.6895992 9.47134466,17.6070675 10.1930325,18.0237341 Z"/>
    <path fill="#FFF" fill-rule="nonzero" d="M13.4319675 19.1062659L10.1930325 20.9762659C9.47134466 21.3929325 8.84634466 20.3104008 9.56803249 19.8937341L12.8069675 18.0237341C13.5286553 17.6070675 14.1536553 18.6895992 13.4319675 19.1062659zM16.875 15.63L16.875 19.37C16.875 19.715178 17.154822 19.995 17.5 19.995 17.845178 19.995 18.125 19.715178 18.125 19.37L18.125 15.63C18.125 15.284822 17.845178 15.005 17.5 15.005 17.154822 15.005 16.875 15.284822 16.875 15.63z"/>
    <path fill="#FFF" fill-rule="nonzero" d="M16.1930325,16.0237341 L19.4319675,17.8937341 C20.1536553,18.3104008 19.5286553,19.3929325 18.8069675,18.9762659 L15.5680325,17.1062659 C14.8463447,16.6895992 15.4713447,15.6070675 16.1930325,16.0237341 Z"/>
    <path fill="#FFF" fill-rule="nonzero" d="M19.4319675 17.1062659L16.1930325 18.9762659C15.4713447 19.3929325 14.8463447 18.3104008 15.5680325 17.8937341L18.8069675 16.0237341C19.5286553 15.6070675 20.1536553 16.6895992 19.4319675 17.1062659zM4.875 15.63L4.875 19.37C4.875 19.715178 5.15482203 19.995 5.5 19.995 5.84517797 19.995 6.125 19.715178 6.125 19.37L6.125 15.63C6.125 15.284822 5.84517797 15.005 5.5 15.005 5.15482203 15.005 4.875 15.284822 4.875 15.63z"/>
    <path fill="#FFF" fill-rule="nonzero" d="M4.19303249,16.0237341 L7.43196751,17.8937341 C8.15365534,18.3104008 7.52865534,19.3929325 6.80696751,18.9762659 L3.56803249,17.1062659 C2.84634466,16.6895992 3.47134466,15.6070675 4.19303249,16.0237341 Z"/>
    <path fill="#FFF" fill-rule="nonzero" d="M7.43196751,17.1062659 L4.19303249,18.9762659 C3.47134466,19.3929325 2.84634466,18.3104008 3.56803249,17.8937341 L6.80696751,16.0237341 C7.52865534,15.6070675 8.15365534,16.6895992 7.43196751,17.1062659 Z"/>
    <path fill="#000" fill-opacity=".02" d="M7,14.5 C4.790861,14.5 3,12.709139 3,10.5 C3,8.290861 4.790861,6.5 7,6.5 C7.41665567,6.5 7.81843235,6.56370454 8.19612127,6.68190486 C8.75960062,4.83975064 10.4733425,3.5 12.5,3.5 C14.9852814,3.5 17,5.51471863 17,8 C17,8.23456947 16.9820524,8.46494706 16.9474555,8.68983445 C17.2749642,8.56711064 17.6296448,8.5 18,8.5 C19.6568542,8.5 21,9.84314575 21,11.5 C21,13.1568542 19.6568542,14.5 18,14.5 L7,14.5 Z"/>
    <path fill="#000" fill-opacity=".02" d="M7,14.75 C4.790861,14.75 3,12.959139 3,10.75 C3,8.540861 4.790861,6.75 7,6.75 C7.41665567,6.75 7.81843235,6.81370454 8.19612127,6.93190486 C8.75960062,5.08975064 10.4733425,3.75 12.5,3.75 C14.9852814,3.75 17,5.76471863 17,8.25 C17,8.48456947 16.9820524,8.71494706 16.9474555,8.93983445 C17.2749642,8.81711064 17.6296448,8.75 18,8.75 C19.6568542,8.75 21,10.0931458 21,11.75 C21,13.4068542 19.6568542,14.75 18,14.75 L7,14.75 Z"/>
    <path fill="#000" fill-opacity=".02" d="M7,15 C4.790861,15 3,13.209139 3,11 C3,8.790861 4.790861,7 7,7 C7.41665567,7 7.81843235,7.06370454 8.19612127,7.18190486 C8.75960062,5.33975064 10.4733425,4 12.5,4 C14.9852814,4 17,6.01471863 17,8.5 C17,8.73456947 16.9820524,8.96494706 16.9474555,9.18983445 C17.2749642,9.06711064 17.6296448,9 18,9 C19.6568542,9 21,10.3431458 21,12 C21,13.6568542 19.6568542,15 18,15 L7,15 Z"/>
    <path fill="#000" fill-opacity=".02" fill-rule="nonzero" d="M17.25,7.5 C17.25,4.87664744 15.1233526,2.75 12.5,2.75 C10.4804032,2.75 8.70821341,4.02165645 8.03456828,5.8768648 C7.69907844,5.79293371 7.35233296,5.75 7,5.75 C4.65278981,5.75 2.75,7.65278981 2.75,10 C2.75,12.3472102 4.65278981,14.25 7,14.25 L18,14.25 C19.7949254,14.25 21.25,12.7949254 21.25,11 C21.25,9.20507456 19.7949254,7.75 18,7.75 C17.7406655,7.75 17.4853551,7.78043326 17.2380174,7.83987416 C17.245992,7.72716388 17.25,7.61382401 17.25,7.5 Z"/>
    <path fill="#FFF" d="M7,14 C4.790861,14 3,12.209139 3,10 C3,7.790861 4.790861,6 7,6 C7.41665567,6 7.81843235,6.06370454 8.19612127,6.18190486 C8.75960062,4.33975064 10.4733425,3 12.5,3 C14.9852814,3 17,5.01471863 17,7.5 C17,7.73456947 16.9820524,7.96494706 16.9474555,8.18983445 C17.2749642,8.06711064 17.6296448,8 18,8 C19.6568542,8 21,9.34314575 21,11 C21,12.6568542 19.6568542,14 18,14 L7,14 Z"/>
    <circle cx="7" cy="10" r="4" fill="url(#ovc_+sn-a)" opacity=".24"/>
    <circle cx="18" cy="11" r="3" fill="url(#ovc_+sn-b)" opacity=".24"/>
    <circle cx="12.5" cy="7.5" r="4.5" fill="#FFF"/>
  </g>
</svg>
