<svg xmlns="http://www.w3.org/2000/svg" width="24" height="24" viewBox="0 0 24 24">
  <g fill-rule="evenodd">
    <path d="M13.1063824,7.23829199 C13.8347787,6.47532622 14.8618802,6 16,6 C18.209139,6 20,7.790861 20,10 C20,11.0637932 19.5847303,12.0305951 18.9074552,12.7471411 C18.3473293,12.3614407 17.6901061,12.1066122 16.9799277,12.0267975 C16.7865563,9.75754574 15.2153345,7.88133717 13.1063824,7.23829199 Z"/>
    <path fill-rule="nonzero" d="M15.4796565 2.72990766L15.7401288 4.20711929C15.913777 5.19192704 14.4365653 5.45239931 14.2629172 4.46759155L14.0024449 2.99037992C13.8287967 2.00557217 15.3060083 1.7450999 15.4796565 2.72990766zM20.7727932 4.49133001L19.9124285 5.72005807C19.3388521 6.53921012 18.110124 5.67884546 18.6837005 4.85969342L19.5440651 3.63096535C20.1176416 2.81181331 21.3463696 3.67217796 20.7727932 4.49133001zM10.49133 5.2272068L11.7200581 6.08757146C12.5392101 6.66114789 11.6788455 7.88987596 10.8596934 7.31629952L9.63096535 6.45593487C8.81181331 5.88235843 9.67217796 4.65363037 10.49133 5.2272068zM21.1403066 12.6837005L22.3690346 13.5440651C23.1881867 14.1176416 22.327822 15.3463696 21.50867 14.7727932L20.2799419 13.9124285C19.4607899 13.3388521 20.3211545 12.110124 21.1403066 12.6837005zM23.2700923 9.47965653L21.7928807 9.74012879C20.808073 9.91377697 20.5476007 8.43656534 21.5324084 8.26291716L23.0096201 8.0024449C23.9944278 7.82879672 24.2549001 9.30600835 23.2700923 9.47965653z"/>
    <path d="M6,19 C3.92893219,19 2.25,17.3210678 2.25,15.25 C2.25,13.1789322 3.92893219,11.5 6,11.5 C6.55461758,11.5 7.08111389,11.6204015 7.55477694,11.8364924 C7.87085973,9.94312945 9.51689939,8.5 11.5,8.5 C13.709139,8.5 15.5,10.290861 15.5,12.5 C15.5,12.9473885 15.4265511,13.3776221 15.2910537,13.7793003 C15.6559242,13.6004278 16.066234,13.5 16.5,13.5 C18.0187831,13.5 19.25,14.7312169 19.25,16.25 C19.25,17.7687831 18.0187831,19 16.5,19 L6,19 Z"/>
  </g>
</svg>
