<svg xmlns="http://www.w3.org/2000/svg" width="24" height="24" viewBox="0 0 24 24">
  <g fill-rule="evenodd">
    <path d="M13.1063824,5.23829199 C13.8347787,4.47532622 14.8618802,4 16,4 C18.209139,4 20,5.790861 20,8 C20,9.06379324 19.5847303,10.0305951 18.9074552,10.7471411 C18.3473293,10.3614407 17.6901061,10.1066122 16.9799277,10.0267975 C16.7865563,7.75754574 15.2153345,5.88133717 13.1063824,5.23829199 Z"/>
    <path fill-rule="nonzero" d="M15.4796565.729907657L15.7401288 2.20711929C15.913777 3.19192704 14.4365653 3.45239931 14.2629172 2.46759155L14.0024449.990379924C13.8287967.0055721709 15.3060083-.254900096 15.4796565.729907657zM20.7727932 2.49133001L19.9124285 3.72005807C19.3388521 4.53921012 18.110124 3.67884546 18.6837005 2.85969342L19.5440651 1.63096535C20.1176416.811813307 21.3463696 1.67217796 20.7727932 2.49133001zM10.49133 3.2272068L11.7200581 4.08757146C12.5392101 4.66114789 11.6788455 5.88987596 10.8596934 5.31629952L9.63096535 4.45593487C8.81181331 3.88235843 9.67217796 2.65363037 10.49133 3.2272068zM21.1403066 10.6837005L22.3690346 11.5440651C23.1881867 12.1176416 22.327822 13.3463696 21.50867 12.7727932L20.2799419 11.9124285C19.4607899 11.3388521 20.3211545 10.110124 21.1403066 10.6837005zM23.2700923 7.47965653L21.7928807 7.74012879C20.808073 7.91377697 20.5476007 6.43656534 21.5324084 6.26291716L23.0096201 6.0024449C23.9944278 5.82879672 24.2549001 7.30600835 23.2700923 7.47965653zM14.875 19.63L14.875 23.37C14.875 23.715178 15.154822 23.995 15.5 23.995 15.845178 23.995 16.125 23.715178 16.125 23.37L16.125 19.63C16.125 19.284822 15.845178 19.005 15.5 19.005 15.154822 19.005 14.875 19.284822 14.875 19.63z"/>
    <path fill-rule="nonzero" d="M14.1930325,20.0237341 L17.4319675,21.8937341 C18.1536553,22.3104008 17.5286553,23.3929325 16.8069675,22.9762659 L13.5680325,21.1062659 C12.8463447,20.6895992 13.4713447,19.6070675 14.1930325,20.0237341 Z"/>
    <path fill-rule="nonzero" d="M17.4319675 21.1062659L14.1930325 22.9762659C13.4713447 23.3929325 12.8463447 22.3104008 13.5680325 21.8937341L16.8069675 20.0237341C17.5286553 19.6070675 18.1536553 20.6895992 17.4319675 21.1062659zM7.875 18.63L7.875 22.37C7.875 22.715178 8.15482203 22.995 8.5 22.995 8.84517797 22.995 9.125 22.715178 9.125 22.37L9.125 18.63C9.125 18.284822 8.84517797 18.005 8.5 18.005 8.15482203 18.005 7.875 18.284822 7.875 18.63z"/>
    <path fill-rule="nonzero" d="M7.19303249,19.0237341 L10.4319675,20.8937341 C11.1536553,21.3104008 10.5286553,22.3929325 9.80696751,21.9762659 L6.56803249,20.1062659 C5.84634466,19.6895992 6.47134466,18.6070675 7.19303249,19.0237341 Z"/>
    <path fill-rule="nonzero" d="M10.4319675,20.1062659 L7.19303249,21.9762659 C6.47134466,22.3929325 5.84634466,21.3104008 6.56803249,20.8937341 L9.80696751,19.0237341 C10.5286553,18.6070675 11.1536553,19.6895992 10.4319675,20.1062659 Z"/>
    <path d="M6,17 C3.92893219,17 2.25,15.3210678 2.25,13.25 C2.25,11.1789322 3.92893219,9.5 6,9.5 C6.55461758,9.5 7.08111389,9.62040147 7.55477694,9.83649241 C7.87085973,7.94312945 9.51689939,6.5 11.5,6.5 C13.709139,6.5 15.5,8.290861 15.5,10.5 C15.5,10.9473885 15.4265511,11.3776221 15.2910537,11.7793003 C15.6559242,11.6004278 16.066234,11.5 16.5,11.5 C18.0187831,11.5 19.25,12.7312169 19.25,14.25 C19.25,15.7687831 18.0187831,17 16.5,17 L6,17 Z"/>
  </g>
</svg>
