<svg xmlns="http://www.w3.org/2000/svg" width="24" height="24" viewBox="0 0 24 24">
  <g fill-rule="evenodd">
    <path d="M10.007742 6.25084964C9.41850582 6.73511309 8.9304778 7.34053876 8.58304943 8.0321424 8.39050388 8.01080117 8.19591885 8 8 8 6.05804817 8 4.36235785 9.05437084 3.45416446 10.6218771 2.35086348 10.1424092 1.4680491 9.25085901 1 8.14150522 1.55978047 8.37768303 2.17501846 8.50825261 2.82075261 8.50825261 5.40958738 8.50825261 7.50825261 6.40958738 7.50825261 3.82075261 7.50825261 3.17501846 7.37768303 2.55978047 7.14150522 2 8.80572543 2.70215361 9.97977589 4.33774169 10.007742 6.25084964zM8 17C5.92893219 17 4.25 15.3210678 4.25 13.25 4.25 11.1789322 5.92893219 9.5 8 9.5 8.55461758 9.5 9.08111389 9.62040147 9.55477694 9.83649241 9.87085973 7.94312945 11.5168994 6.5 13.5 6.5 15.709139 6.5 17.5 8.290861 17.5 10.5 17.5 10.9473885 17.4265511 11.3776221 17.2910537 11.7793003 17.6559242 11.6004278 18.066234 11.5 18.5 11.5 20.0187831 11.5 21.25 12.7312169 21.25 14.25 21.25 15.7687831 20.0187831 17 18.5 17L8 17z"/>
    <path fill-rule="nonzero" d="M6.56046253 18.4521702L5.06046253 21.9580296C4.89752629 22.3388506 5.07415681 22.779653 5.45497784 22.9425892 5.83579887 23.1055255 6.27660123 22.9288949 6.43953747 22.5480739L7.93953747 19.0422145C8.10247371 18.6613935 7.92584319 18.2205912 7.54502216 18.0576549 7.16420113 17.8947187 6.72339877 18.0713492 6.56046253 18.4521702zM10.5604625 18.4521702L9.06046253 21.9580296C8.89752629 22.3388506 9.07415681 22.779653 9.45497784 22.9425892 9.83579887 23.1055255 10.2766012 22.9288949 10.4395375 22.5480739L11.9395375 19.0422145C12.1024737 18.6613935 11.9258432 18.2205912 11.5450222 18.0576549 11.1642011 17.8947187 10.7233988 18.0713492 10.5604625 18.4521702zM14.5604625 18.4521702L13.0604625 21.9580296C12.8975263 22.3388506 13.0741568 22.779653 13.4549778 22.9425892 13.8357989 23.1055255 14.2766012 22.9288949 14.4395375 22.5480739L15.9395375 19.0422145C16.1024737 18.6613935 15.9258432 18.2205912 15.5450222 18.0576549 15.1642011 17.8947187 14.7233988 18.0713492 14.5604625 18.4521702zM18.5604625 18.4521702L17.0604625 21.9580296C16.8975263 22.3388506 17.0741568 22.779653 17.4549778 22.9425892 17.8357989 23.1055255 18.2766012 22.9288949 18.4395375 22.5480739L19.9395375 19.0422145C20.1024737 18.6613935 19.9258432 18.2205912 19.5450222 18.0576549 19.1642011 17.8947187 18.7233988 18.0713492 18.5604625 18.4521702z"/>
  </g>
</svg>
