<svg xmlns="http://www.w3.org/2000/svg" width="24" height="24" viewBox="0 0 24 24">
  <g fill-rule="evenodd">
    <path d="M10.007742 5.25084964C9.41850582 5.73511309 8.9304778 6.34053876 8.58304943 7.0321424 8.39050388 7.01080117 8.19591885 7 8 7 6.05804817 7 4.36235785 8.05437084 3.45416446 9.62187709 2.35086348 9.1424092 1.4680491 8.25085901 1 7.14150522 1.55978047 7.37768303 2.17501846 7.50825261 2.82075261 7.50825261 5.40958738 7.50825261 7.50825261 5.40958738 7.50825261 2.82075261 7.50825261 2.17501846 7.37768303 1.55978047 7.14150522 1 8.80572543 1.70215361 9.97977589 3.33774169 10.007742 5.25084964zM8 16C5.92893219 16 4.25 14.3210678 4.25 12.25 4.25 10.1789322 5.92893219 8.5 8 8.5 8.55461758 8.5 9.08111389 8.62040147 9.55477694 8.83649241 9.87085973 6.94312945 11.5168994 5.5 13.5 5.5 15.709139 5.5 17.5 7.290861 17.5 9.5 17.5 9.94738853 17.4265511 10.3776221 17.2910537 10.7793003 17.6559242 10.6004278 18.066234 10.5 18.5 10.5 20.0187831 10.5 21.25 11.7312169 21.25 13.25 21.25 14.7687831 20.0187831 16 18.5 16L8 16z"/>
    <path fill-rule="nonzero" d="M15.875,19.63 L15.875,23.37 C15.875,23.715178 16.154822,23.995 16.5,23.995 C16.845178,23.995 17.125,23.715178 17.125,23.37 L17.125,19.63 C17.125,19.284822 16.845178,19.005 16.5,19.005 C16.154822,19.005 15.875,19.284822 15.875,19.63 Z"/>
    <path fill-rule="nonzero" d="M15.1930325,20.0237341 L18.4319675,21.8937341 C19.1536553,22.3104008 18.5286553,23.3929325 17.8069675,22.9762659 L14.5680325,21.1062659 C13.8463447,20.6895992 14.4713447,19.6070675 15.1930325,20.0237341 Z"/>
    <path fill-rule="nonzero" d="M18.4319675 21.1062659L15.1930325 22.9762659C14.4713447 23.3929325 13.8463447 22.3104008 14.5680325 21.8937341L17.8069675 20.0237341C18.5286553 19.6070675 19.1536553 20.6895992 18.4319675 21.1062659zM8.875 17.63L8.875 21.37C8.875 21.715178 9.15482203 21.995 9.5 21.995 9.84517797 21.995 10.125 21.715178 10.125 21.37L10.125 17.63C10.125 17.284822 9.84517797 17.005 9.5 17.005 9.15482203 17.005 8.875 17.284822 8.875 17.63z"/>
    <path fill-rule="nonzero" d="M8.19303249,18.0237341 L11.4319675,19.8937341 C12.1536553,20.3104008 11.5286553,21.3929325 10.8069675,20.9762659 L7.56803249,19.1062659 C6.84634466,18.6895992 7.47134466,17.6070675 8.19303249,18.0237341 Z"/>
    <path fill-rule="nonzero" d="M11.4319675,19.1062659 L8.19303249,20.9762659 C7.47134466,21.3929325 6.84634466,20.3104008 7.56803249,19.8937341 L10.8069675,18.0237341 C11.5286553,17.6070675 12.1536553,18.6895992 11.4319675,19.1062659 Z"/>
  </g>
</svg>
