<svg xmlns="http://www.w3.org/2000/svg" width="24" height="24" viewBox="0 0 24 24">
  <g fill-rule="evenodd">
    <path d="M13.1063824,5.23829199 C13.8347787,4.47532622 14.8618802,4 16,4 C18.209139,4 20,5.790861 20,8 C20,9.06379324 19.5847303,10.0305951 18.9074552,10.7471411 C18.3473293,10.3614407 17.6901061,10.1066122 16.9799277,10.0267975 C16.7865563,7.75754574 15.2153345,5.88133717 13.1063824,5.23829199 Z"/>
    <path fill-rule="nonzero" d="M15.4796565.729907657L15.7401288 2.20711929C15.913777 3.19192704 14.4365653 3.45239931 14.2629172 2.46759155L14.0024449.990379924C13.8287967.0055721709 15.3060083-.254900096 15.4796565.729907657zM20.7727932 2.49133001L19.9124285 3.72005807C19.3388521 4.53921012 18.110124 3.67884546 18.6837005 2.85969342L19.5440651 1.63096535C20.1176416.811813307 21.3463696 1.67217796 20.7727932 2.49133001zM10.49133 3.2272068L11.7200581 4.08757146C12.5392101 4.66114789 11.6788455 5.88987596 10.8596934 5.31629952L9.63096535 4.45593487C8.81181331 3.88235843 9.67217796 2.65363037 10.49133 3.2272068zM21.1403066 10.6837005L22.3690346 11.5440651C23.1881867 12.1176416 22.327822 13.3463696 21.50867 12.7727932L20.2799419 11.9124285C19.4607899 11.3388521 20.3211545 10.110124 21.1403066 10.6837005zM23.2700923 7.47965653L21.7928807 7.74012879C20.808073 7.91377697 20.5476007 6.43656534 21.5324084 6.26291716L23.0096201 6.0024449C23.9944278 5.82879672 24.2549001 7.30600835 23.2700923 7.47965653z"/>
    <path d="M6,17 C3.92893219,17 2.25,15.3210678 2.25,13.25 C2.25,11.1789322 3.92893219,9.5 6,9.5 C6.55461758,9.5 7.08111389,9.62040147 7.55477694,9.83649241 C7.87085973,7.94312945 9.51689939,6.5 11.5,6.5 C13.709139,6.5 15.5,8.290861 15.5,10.5 C15.5,10.9473885 15.4265511,11.3776221 15.2910537,11.7793003 C15.6559242,11.6004278 16.066234,11.5 16.5,11.5 C18.0187831,11.5 19.25,12.7312169 19.25,14.25 C19.25,15.7687831 18.0187831,17 16.5,17 L6,17 Z"/>
    <path fill-rule="nonzero" d="M10.875,18.63 L10.875,22.37 C10.875,22.715178 11.154822,22.995 11.5,22.995 C11.845178,22.995 12.125,22.715178 12.125,22.37 L12.125,18.63 C12.125,18.284822 11.845178,18.005 11.5,18.005 C11.154822,18.005 10.875,18.284822 10.875,18.63 Z"/>
    <path fill-rule="nonzero" d="M10.1930325,19.0237341 L13.4319675,20.8937341 C14.1536553,21.3104008 13.5286553,22.3929325 12.8069675,21.9762659 L9.56803249,20.1062659 C8.84634466,19.6895992 9.47134466,18.6070675 10.1930325,19.0237341 Z"/>
    <path fill-rule="nonzero" d="M13.4319675,20.1062659 L10.1930325,21.9762659 C9.47134466,22.3929325 8.84634466,21.3104008 9.56803249,20.8937341 L12.8069675,19.0237341 C13.5286553,18.6070675 14.1536553,19.6895992 13.4319675,20.1062659 Z"/>
  </g>
</svg>
