<svg xmlns="http://www.w3.org/2000/svg" width="24" height="24" viewBox="0 0 24 24">
  <g fill-rule="evenodd">
    <path d="M13.1063824,5.23829199 C13.8347787,4.47532622 14.8618802,4 16,4 C18.209139,4 20,5.790861 20,8 C20,9.06379324 19.5847303,10.0305951 18.9074552,10.7471411 C18.3473293,10.3614407 17.6901061,10.1066122 16.9799277,10.0267975 C16.7865563,7.75754574 15.2153345,5.88133717 13.1063824,5.23829199 Z"/>
    <path fill-rule="nonzero" d="M15.4796565.729907657L15.7401288 2.20711929C15.913777 3.19192704 14.4365653 3.45239931 14.2629172 2.46759155L14.0024449.990379924C13.8287967.0055721709 15.3060083-.254900096 15.4796565.729907657zM20.7727932 2.49133001L19.9124285 3.72005807C19.3388521 4.53921012 18.110124 3.67884546 18.6837005 2.85969342L19.5440651 1.63096535C20.1176416.811813307 21.3463696 1.67217796 20.7727932 2.49133001zM10.49133 3.2272068L11.7200581 4.08757146C12.5392101 4.66114789 11.6788455 5.88987596 10.8596934 5.31629952L9.63096535 4.45593487C8.81181331 3.88235843 9.67217796 2.65363037 10.49133 3.2272068zM21.1403066 10.6837005L22.3690346 11.5440651C23.1881867 12.1176416 22.327822 13.3463696 21.50867 12.7727932L20.2799419 11.9124285C19.4607899 11.3388521 20.3211545 10.110124 21.1403066 10.6837005zM23.2700923 7.47965653L21.7928807 7.74012879C20.808073 7.91377697 20.5476007 6.43656534 21.5324084 6.26291716L23.0096201 6.0024449C23.9944278 5.82879672 24.2549001 7.30600835 23.2700923 7.47965653z"/>
    <path d="M6,17 C3.92893219,17 2.25,15.3210678 2.25,13.25 C2.25,11.1789322 3.92893219,9.5 6,9.5 C6.55461758,9.5 7.08111389,9.62040147 7.55477694,9.83649241 C7.87085973,7.94312945 9.51689939,6.5 11.5,6.5 C13.709139,6.5 15.5,8.290861 15.5,10.5 C15.5,10.9473885 15.4265511,11.3776221 15.2910537,11.7793003 C15.6559242,11.6004278 16.066234,11.5 16.5,11.5 C18.0187831,11.5 19.25,12.7312169 19.25,14.25 C19.25,15.7687831 18.0187831,17 16.5,17 L6,17 Z"/>
    <path fill-rule="nonzero" d="M4.56046253 18.4521702L3.06046253 21.9580296C2.89752629 22.3388506 3.07415681 22.779653 3.45497784 22.9425892 3.83579887 23.1055255 4.27660123 22.9288949 4.43953747 22.5480739L5.93953747 19.0422145C6.10247371 18.6613935 5.92584319 18.2205912 5.54502216 18.0576549 5.16420113 17.8947187 4.72339877 18.0713492 4.56046253 18.4521702zM8.56046253 18.4521702L7.06046253 21.9580296C6.89752629 22.3388506 7.07415681 22.779653 7.45497784 22.9425892 7.83579887 23.1055255 8.27660123 22.9288949 8.43953747 22.5480739L9.93953747 19.0422145C10.1024737 18.6613935 9.92584319 18.2205912 9.54502216 18.0576549 9.16420113 17.8947187 8.72339877 18.0713492 8.56046253 18.4521702zM12.5604625 18.4521702L11.0604625 21.9580296C10.8975263 22.3388506 11.0741568 22.779653 11.4549778 22.9425892 11.8357989 23.1055255 12.2766012 22.9288949 12.4395375 22.5480739L13.9395375 19.0422145C14.1024737 18.6613935 13.9258432 18.2205912 13.5450222 18.0576549 13.1642011 17.8947187 12.7233988 18.0713492 12.5604625 18.4521702zM16.5604625 18.4521702L15.0604625 21.9580296C14.8975263 22.3388506 15.0741568 22.779653 15.4549778 22.9425892 15.8357989 23.1055255 16.2766012 22.9288949 16.4395375 22.5480739L17.9395375 19.0422145C18.1024737 18.6613935 17.9258432 18.2205912 17.5450222 18.0576549 17.1642011 17.8947187 16.7233988 18.0713492 16.5604625 18.4521702z"/>
  </g>
</svg>
