<svg xmlns="http://www.w3.org/2000/svg" width="24" height="24" viewBox="0 0 24 24">
  <g fill-rule="evenodd">
    <path d="M10.007742,5.25084964 C9.41850582,5.73511309 8.9304778,6.34053876 8.58304943,7.0321424 C8.39050388,7.01080117 8.19591885,7 8,7 C6.05804817,7 4.36235785,8.05437084 3.45416446,9.62187709 C2.35086348,9.1424092 1.4680491,8.25085901 1,7.14150522 C1.55978047,7.37768303 2.17501846,7.50825261 2.82075261,7.50825261 C5.40958738,7.50825261 7.50825261,5.40958738 7.50825261,2.82075261 C7.50825261,2.17501846 7.37768303,1.55978047 7.14150522,1 C8.80572543,1.70215361 9.97977589,3.33774169 10.007742,5.25084964 Z"/>
    <path fill-rule="nonzero" d="M11.875,18.63 L11.875,22.37 C11.875,22.715178 12.154822,22.995 12.5,22.995 C12.845178,22.995 13.125,22.715178 13.125,22.37 L13.125,18.63 C13.125,18.284822 12.845178,18.005 12.5,18.005 C12.154822,18.005 11.875,18.284822 11.875,18.63 Z"/>
    <path fill-rule="nonzero" d="M11.1930325,19.0237341 L14.4319675,20.8937341 C15.1536553,21.3104008 14.5286553,22.3929325 13.8069675,21.9762659 L10.5680325,20.1062659 C9.84634466,19.6895992 10.4713447,18.6070675 11.1930325,19.0237341 Z"/>
    <path fill-rule="nonzero" d="M14.4319675,20.1062659 L11.1930325,21.9762659 C10.4713447,22.3929325 9.84634466,21.3104008 10.5680325,20.8937341 L13.8069675,19.0237341 C14.5286553,18.6070675 15.1536553,19.6895992 14.4319675,20.1062659 Z"/>
    <path d="M8,16 C5.92893219,16 4.25,14.3210678 4.25,12.25 C4.25,10.1789322 5.92893219,8.5 8,8.5 C8.55461758,8.5 9.08111389,8.62040147 9.55477694,8.83649241 C9.87085973,6.94312945 11.5168994,5.5 13.5,5.5 C15.709139,5.5 17.5,7.290861 17.5,9.5 C17.5,9.94738853 17.4265511,10.3776221 17.2910537,10.7793003 C17.6559242,10.6004278 18.066234,10.5 18.5,10.5 C20.0187831,10.5 21.25,11.7312169 21.25,13.25 C21.25,14.7687831 20.0187831,16 18.5,16 L8,16 Z"/>
  </g>
</svg>
