<svg xmlns="http://www.w3.org/2000/svg" width="24" height="24" viewBox="0 0 24 24">
  <g>
    <path d="M4.875,2.63 L4.875,6.37 C4.875,6.71517797 5.15482203,6.995 5.5,6.995 C5.84517797,6.995 6.125,6.71517797 6.125,6.37 L6.125,2.63 C6.125,2.28482203 5.84517797,2.005 5.5,2.005 C5.15482203,2.005 4.875,2.28482203 4.875,2.63 Z"/>
    <path d="M4.19303249,3.02373412 L7.43196751,4.89373412 C8.15365534,5.31040079 7.52865534,6.39293254 6.80696751,5.97626588 L3.56803249,4.10626588 C2.84634466,3.68959921 3.47134466,2.60706746 4.19303249,3.02373412 Z"/>
    <path d="M7.43196751 4.10626588L4.19303249 5.97626588C3.47134466 6.39293254 2.84634466 5.31040079 3.56803249 4.89373412L6.80696751 3.02373412C7.52865534 2.60706746 8.15365534 3.68959921 7.43196751 4.10626588zM17.875 2.63L17.875 6.37C17.875 6.71517797 18.154822 6.995 18.5 6.995 18.845178 6.995 19.125 6.71517797 19.125 6.37L19.125 2.63C19.125 2.28482203 18.845178 2.005 18.5 2.005 18.154822 2.005 17.875 2.28482203 17.875 2.63z"/>
    <path d="M17.1930325,3.02373412 L20.4319675,4.89373412 C21.1536553,5.31040079 20.5286553,6.39293254 19.8069675,5.97626588 L16.5680325,4.10626588 C15.8463447,3.68959921 16.4713447,2.60706746 17.1930325,3.02373412 Z"/>
    <path d="M20.4319675 4.10626588L17.1930325 5.97626588C16.4713447 6.39293254 15.8463447 5.31040079 16.5680325 4.89373412L19.8069675 3.02373412C20.5286553 2.60706746 21.1536553 3.68959921 20.4319675 4.10626588zM17.875 17.63L17.875 21.37C17.875 21.715178 18.154822 21.995 18.5 21.995 18.845178 21.995 19.125 21.715178 19.125 21.37L19.125 17.63C19.125 17.284822 18.845178 17.005 18.5 17.005 18.154822 17.005 17.875 17.284822 17.875 17.63z"/>
    <path d="M17.1930325,18.0237341 L20.4319675,19.8937341 C21.1536553,20.3104008 20.5286553,21.3929325 19.8069675,20.9762659 L16.5680325,19.1062659 C15.8463447,18.6895992 16.4713447,17.6070675 17.1930325,18.0237341 Z"/>
    <path d="M20.4319675 19.1062659L17.1930325 20.9762659C16.4713447 21.3929325 15.8463447 20.3104008 16.5680325 19.8937341L19.8069675 18.0237341C20.5286553 17.6070675 21.1536553 18.6895992 20.4319675 19.1062659zM6.75 12.5L11.0159545 12.5C12.6728087 12.5 14.0159545 11.1568542 14.0159545 9.5 14.0159545 7.84314575 12.6728087 6.5 11.0159545 6.5 10.4590165 6.5 9.92268135 6.65270733 9.45649757 6.93678891 9.10278399 7.15233375 8.9907761 7.61380888 9.20632094 7.96752246 9.42186579 8.32123604 9.88334092 8.43324393 10.2370545 8.21769909 10.4697299 8.07591212 10.7363467 8 11.0159545 8 11.8443816 8 12.5159545 8.67157288 12.5159545 9.5 12.5159545 10.3284271 11.8443816 11 11.0159545 11L6.75 11C6.33578644 11 6 11.3357864 6 11.75 6 12.1642136 6.33578644 12.5 6.75 12.5zM3.75 15.5L11.5012972 15.5C12.053582 15.5 12.5012972 15.9477153 12.5012972 16.5 12.5012972 17.0522847 12.053582 17.5 11.5012972 17.5 11.314639 17.5 11.137239 17.44949 10.9822147 17.3550218 10.6285011 17.139477 10.167026 17.2514848 9.95148115 17.6051984 9.7359363 17.958912 9.84794419 18.4203871 10.2016578 18.635932 10.5901905 18.8726948 11.0373088 19 11.5012972 19 12.8820091 19 14.0012972 17.8807119 14.0012972 16.5 14.0012972 15.1192881 12.8820091 14 11.5012972 14L3.75 14C3.33578644 14 3 14.3357864 3 14.75 3 15.1642136 3.33578644 15.5 3.75 15.5zM14.75 14L16.5012972 14C17.8820091 14 19.0012972 12.8807119 19.0012972 11.5 19.0012972 10.1192881 17.8820091 9 16.5012972 9 16.0373088 9 15.5901905 9.12730517 15.2016578 9.36406802 14.8479442 9.57961287 14.7359363 10.041088 14.9514811 10.3948016 15.167026 10.7485152 15.6285011 10.860523 15.9822147 10.6449782 16.137239 10.55051 16.314639 10.5 16.5012972 10.5 17.053582 10.5 17.5012972 10.9477153 17.5012972 11.5 17.5012972 12.0522847 17.053582 12.5 16.5012972 12.5L14.75 12.5C14.3357864 12.5 14 12.8357864 14 13.25 14 13.6642136 14.3357864 14 14.75 14z"/>
  </g>
</svg>
