<svg xmlns="http://www.w3.org/2000/svg" width="24" height="24" viewBox="0 0 24 24">
  <g fill-rule="evenodd">
    <path fill-rule="nonzero" d="M11.75,16 L11.75,20 C11.75,20.4142136 12.0857864,20.75 12.5,20.75 C12.9142136,20.75 13.25,20.4142136 13.25,20 L13.25,16 C13.25,15.5857864 12.9142136,15.25 12.5,15.25 C12.0857864,15.25 11.75,15.5857864 11.75,16 Z"/>
    <path fill-rule="nonzero" d="M11.5303301,18.9696699 C11.2374369,18.6767767 10.7625631,18.6767767 10.4696699,18.9696699 C10.1767767,19.2625631 10.1767767,19.7374369 10.4696699,20.0303301 L11.9696699,21.5303301 C12.2625631,21.8232233 12.7374369,21.8232233 13.0303301,21.5303301 L14.5303301,20.0303301 C14.8232233,19.7374369 14.8232233,19.2625631 14.5303301,18.9696699 C14.2374369,18.6767767 13.7625631,18.6767767 13.4696699,18.9696699 L12.5,19.9393398 L11.5303301,18.9696699 Z"/>
    <path d="M7.5,14 C7.5,11.2385763 9.73857625,9 12.5,9 C15.2614237,9 17.5,11.2385763 17.5,14 L7.5,14 Z"/>
    <path fill-rule="nonzero" d="M17.1994346 4.60317418L16.0244932 7.43973358C15.6418098 8.36361311 14.2559905 7.78958796 14.6386739 6.86570843L15.8136153 4.02914903C16.1962987 3.1052695 17.582118 3.67929464 17.1994346 4.60317418zM22.46602 10.6815537L19.6294606 11.8564951C18.705581 12.2391785 18.1315559 10.8533592 19.0554354 10.4706758L21.8919948 9.29573441C22.8158744 8.91305098 23.3898995 10.2988703 22.46602 10.6815537zM5.36481652 11.8578739L2.52825712 10.6829326C1.60437758 10.3002491 2.17840273 8.91442983 3.10228226 9.29711326L5.93884167 10.4720546C6.8627212 10.8547381 6.28869605 12.2405574 5.36481652 11.8578739zM9.17733296 4.02914903L10.3522743 6.86570843C10.7349578 7.78958796 9.34913847 8.36361311 8.96645504 7.43973358L7.79151366 4.60317418C7.40883023 3.67929464 8.79464953 3.1052695 9.17733296 4.02914903z"/>
  </g>
</svg>
