<svg xmlns="http://www.w3.org/2000/svg" width="24" height="24" viewBox="0 0 24 24">
  <g fill-rule="evenodd">
    <path d="M4.69167927,16.1540363 C3.306132,15.401062 2.20412131,14.1924188 1.58679582,12.7292553 C2.42010461,13.0808378 3.33596939,13.2752082 4.29723183,13.2752082 C8.15106179,13.2752082 11.2752082,10.1510618 11.2752082,6.29723183 C11.2752082,5.33596939 11.0808378,4.42010461 10.7292553,3.58679582 C13.2367931,4.64475483 14.9967957,7.12625173 14.9967957,10.0188193 C14.9967957,10.5270681 14.9424582,11.0226259 14.8392757,11.5 L13.0449219,11.5 C11.66421,11.5 10.5449219,12.6192881 10.5449219,14 C10.5449219,14.1712329 10.562137,14.338445 10.5949309,14.5 L7.04492188,14.5 C5.96113171,14.5 5.03841699,15.1896459 4.69167927,16.1540363 Z"/>
    <path fill-rule="nonzero" d="M13 14.5L20 14.5C20.4142136 14.5 20.75 14.1642136 20.75 13.75 20.75 13.3357864 20.4142136 13 20 13L13 13C12.5857864 13 12.25 13.3357864 12.25 13.75 12.25 14.1642136 12.5857864 14.5 13 14.5zM7 17.5L21 17.5C21.4142136 17.5 21.75 17.1642136 21.75 16.75 21.75 16.3357864 21.4142136 16 21 16L7 16C6.58578644 16 6.25 16.3357864 6.25 16.75 6.25 17.1642136 6.58578644 17.5 7 17.5zM4 20.5L21 20.5C21.4142136 20.5 21.75 20.1642136 21.75 19.75 21.75 19.3357864 21.4142136 19 21 19L4 19C3.58578644 19 3.25 19.3357864 3.25 19.75 3.25 20.1642136 3.58578644 20.5 4 20.5z"/>
  </g>
</svg>
