<svg xmlns="http://www.w3.org/2000/svg" width="24" height="24" viewBox="0 0 24 24">
  <g fill-rule="evenodd">
    <path d="M7,14 C4.790861,14 3,12.209139 3,10 C3,7.790861 4.790861,6 7,6 C7.41665567,6 7.81843235,6.06370454 8.19612127,6.18190486 C8.75960062,4.33975064 10.4733425,3 12.5,3 C14.9852814,3 17,5.01471863 17,7.5 C17,7.73456947 16.9820524,7.96494706 16.9474555,8.18983445 C17.2749642,8.06711064 17.6296448,8 18,8 C19.6568542,8 21,9.34314575 21,11 C21,12.6568542 19.6568542,14 18,14 L7,14 Z"/>
    <path fill-rule="nonzero" d="M14.875,17.63 L14.875,21.37 C14.875,21.715178 15.154822,21.995 15.5,21.995 C15.845178,21.995 16.125,21.715178 16.125,21.37 L16.125,17.63 C16.125,17.284822 15.845178,17.005 15.5,17.005 C15.154822,17.005 14.875,17.284822 14.875,17.63 Z"/>
    <path fill-rule="nonzero" d="M14.1930325,18.0237341 L17.4319675,19.8937341 C18.1536553,20.3104008 17.5286553,21.3929325 16.8069675,20.9762659 L13.5680325,19.1062659 C12.8463447,18.6895992 13.4713447,17.6070675 14.1930325,18.0237341 Z"/>
    <path fill-rule="nonzero" d="M17.4319675 19.1062659L14.1930325 20.9762659C13.4713447 21.3929325 12.8463447 20.3104008 13.5680325 19.8937341L16.8069675 18.0237341C17.5286553 17.6070675 18.1536553 18.6895992 17.4319675 19.1062659zM7.875 15.63L7.875 19.37C7.875 19.715178 8.15482203 19.995 8.5 19.995 8.84517797 19.995 9.125 19.715178 9.125 19.37L9.125 15.63C9.125 15.284822 8.84517797 15.005 8.5 15.005 8.15482203 15.005 7.875 15.284822 7.875 15.63z"/>
    <path fill-rule="nonzero" d="M7.19303249,16.0237341 L10.4319675,17.8937341 C11.1536553,18.3104008 10.5286553,19.3929325 9.80696751,18.9762659 L6.56803249,17.1062659 C5.84634466,16.6895992 6.47134466,15.6070675 7.19303249,16.0237341 Z"/>
    <path fill-rule="nonzero" d="M10.4319675,17.1062659 L7.19303249,18.9762659 C6.47134466,19.3929325 5.84634466,18.3104008 6.56803249,17.8937341 L9.80696751,16.0237341 C10.5286553,15.6070675 11.1536553,16.6895992 10.4319675,17.1062659 Z"/>
  </g>
</svg>
