<svg xmlns="http://www.w3.org/2000/svg" width="24" height="24" viewBox="0 0 24 24">
  <g fill="#FFF" fill-rule="evenodd">
    <path d="M10.007742,5.25084964 C9.41850582,5.73511309 8.9304778,6.34053876 8.58304943,7.0321424 C8.39050388,7.01080117 8.19591885,7 8,7 C6.05804817,7 4.36235785,8.05437084 3.45416446,9.62187709 C2.35086348,9.1424092 1.4680491,8.25085901 1,7.14150522 C1.55978047,7.37768303 2.17501846,7.50825261 2.82075261,7.50825261 C5.40958738,7.50825261 7.50825261,5.40958738 7.50825261,2.82075261 C7.50825261,2.17501846 7.37768303,1.55978047 7.14150522,1 C8.80572543,1.70215361 9.97977589,3.33774169 10.007742,5.25084964 Z"/>
    <path fill-rule="nonzero" d="M11.875,19.63 L11.875,23.37 C11.875,23.715178 12.154822,23.995 12.5,23.995 C12.845178,23.995 13.125,23.715178 13.125,23.37 L13.125,19.63 C13.125,19.284822 12.845178,19.005 12.5,19.005 C12.154822,19.005 11.875,19.284822 11.875,19.63 Z"/>
    <path fill-rule="nonzero" d="M11.1930325,20.0237341 L14.4319675,21.8937341 C15.1536553,22.3104008 14.5286553,23.3929325 13.8069675,22.9762659 L10.5680325,21.1062659 C9.84634466,20.6895992 10.4713447,19.6070675 11.1930325,20.0237341 Z"/>
    <path fill-rule="nonzero" d="M14.4319675 21.1062659L11.1930325 22.9762659C10.4713447 23.3929325 9.84634466 22.3104008 10.5680325 21.8937341L13.8069675 20.0237341C14.5286553 19.6070675 15.1536553 20.6895992 14.4319675 21.1062659zM17.875 17.63L17.875 21.37C17.875 21.715178 18.154822 21.995 18.5 21.995 18.845178 21.995 19.125 21.715178 19.125 21.37L19.125 17.63C19.125 17.284822 18.845178 17.005 18.5 17.005 18.154822 17.005 17.875 17.284822 17.875 17.63z"/>
    <path fill-rule="nonzero" d="M17.1930325,18.0237341 L20.4319675,19.8937341 C21.1536553,20.3104008 20.5286553,21.3929325 19.8069675,20.9762659 L16.5680325,19.1062659 C15.8463447,18.6895992 16.4713447,17.6070675 17.1930325,18.0237341 Z"/>
    <path fill-rule="nonzero" d="M20.4319675 19.1062659L17.1930325 20.9762659C16.4713447 21.3929325 15.8463447 20.3104008 16.5680325 19.8937341L19.8069675 18.0237341C20.5286553 17.6070675 21.1536553 18.6895992 20.4319675 19.1062659zM5.875 17.63L5.875 21.37C5.875 21.715178 6.15482203 21.995 6.5 21.995 6.84517797 21.995 7.125 21.715178 7.125 21.37L7.125 17.63C7.125 17.284822 6.84517797 17.005 6.5 17.005 6.15482203 17.005 5.875 17.284822 5.875 17.63z"/>
    <path fill-rule="nonzero" d="M5.19303249,18.0237341 L8.43196751,19.8937341 C9.15365534,20.3104008 8.52865534,21.3929325 7.80696751,20.9762659 L4.56803249,19.1062659 C3.84634466,18.6895992 4.47134466,17.6070675 5.19303249,18.0237341 Z"/>
    <path fill-rule="nonzero" d="M8.43196751,19.1062659 L5.19303249,20.9762659 C4.47134466,21.3929325 3.84634466,20.3104008 4.56803249,19.8937341 L7.80696751,18.0237341 C8.52865534,17.6070675 9.15365534,18.6895992 8.43196751,19.1062659 Z"/>
    <path d="M8,16 C5.92893219,16 4.25,14.3210678 4.25,12.25 C4.25,10.1789322 5.92893219,8.5 8,8.5 C8.55461758,8.5 9.08111389,8.62040147 9.55477694,8.83649241 C9.87085973,6.94312945 11.5168994,5.5 13.5,5.5 C15.709139,5.5 17.5,7.290861 17.5,9.5 C17.5,9.94738853 17.4265511,10.3776221 17.2910537,10.7793003 C17.6559242,10.6004278 18.066234,10.5 18.5,10.5 C20.0187831,10.5 21.25,11.7312169 21.25,13.25 C21.25,14.7687831 20.0187831,16 18.5,16 L8,16 Z"/>
  </g>
</svg>
