<svg xmlns="http://www.w3.org/2000/svg" width="24" height="24" viewBox="0 0 24 24">
  <g fill="#FFF" fill-rule="evenodd">
    <path d="M13.1063824,5.23829199 C13.8347787,4.47532622 14.8618802,4 16,4 C18.209139,4 20,5.790861 20,8 C20,9.06379324 19.5847303,10.0305951 18.9074552,10.7471411 C18.3473293,10.3614407 17.6901061,10.1066122 16.9799277,10.0267975 C16.7865563,7.75754574 15.2153345,5.88133717 13.1063824,5.23829199 Z"/>
    <path fill-rule="nonzero" d="M15.4796565.729907657L15.7401288 2.20711929C15.913777 3.19192704 14.4365653 3.45239931 14.2629172 2.46759155L14.0024449.990379924C13.8287967.0055721709 15.3060083-.254900096 15.4796565.729907657zM20.7727932 2.49133001L19.9124285 3.72005807C19.3388521 4.53921012 18.110124 3.67884546 18.6837005 2.85969342L19.5440651 1.63096535C20.1176416.811813307 21.3463696 1.67217796 20.7727932 2.49133001zM10.49133 3.2272068L11.7200581 4.08757146C12.5392101 4.66114789 11.6788455 5.88987596 10.8596934 5.31629952L9.63096535 4.45593487C8.81181331 3.88235843 9.67217796 2.65363037 10.49133 3.2272068zM21.1403066 10.6837005L22.3690346 11.5440651C23.1881867 12.1176416 22.327822 13.3463696 21.50867 12.7727932L20.2799419 11.9124285C19.4607899 11.3388521 20.3211545 10.110124 21.1403066 10.6837005zM23.2700923 7.47965653L21.7928807 7.74012879C20.808073 7.91377697 20.5476007 6.43656534 21.5324084 6.26291716L23.0096201 6.0024449C23.9944278 5.82879672 24.2549001 7.30600835 23.2700923 7.47965653z"/>
    <path d="M6,17 C3.92893219,17 2.25,15.3210678 2.25,13.25 C2.25,11.1789322 3.92893219,9.5 6,9.5 C6.55461758,9.5 7.08111389,9.62040147 7.55477694,9.83649241 C7.87085973,7.94312945 9.51689939,6.5 11.5,6.5 C13.709139,6.5 15.5,8.290861 15.5,10.5 C15.5,10.9473885 15.4265511,11.3776221 15.2910537,11.7793003 C15.6559242,11.6004278 16.066234,11.5 16.5,11.5 C18.0187831,11.5 19.25,12.7312169 19.25,14.25 C19.25,15.7687831 18.0187831,17 16.5,17 L6,17 Z"/>
    <path fill-rule="nonzero" d="M6.10853642 19.4631224L5.05853623 21.9625731C4.89810929 22.344458 5.07763644 22.7840886 5.45952134 22.9445155 5.84140623 23.1049425 6.28103684 22.9254153 6.44146377 22.5435304L7.49146396 20.0440797C7.6518909 19.6621948 7.47236375 19.2225642 7.09047885 19.0621373 6.70859396 18.9017104 6.26896336 19.0812375 6.10853642 19.4631224zM14.1085364 19.4631224L13.0585362 21.9625731C12.8981093 22.344458 13.0776364 22.7840886 13.4595213 22.9445155 13.8414062 23.1049425 14.2810368 22.9254153 14.4414638 22.5435304L15.491464 20.0440797C15.6518909 19.6621948 15.4723637 19.2225642 15.0904789 19.0621373 14.708594 18.9017104 14.2689634 19.0812375 14.1085364 19.4631224zM10.1085364 18.4631224L9.05853623 20.9625731C8.89810929 21.344458 9.07763644 21.7840886 9.45952134 21.9445155 9.84140623 22.1049425 10.2810368 21.9254153 10.4414638 21.5435304L11.491464 19.0440797C11.6518909 18.6621948 11.4723637 18.2225642 11.0904789 18.0621373 10.708594 17.9017104 10.2689634 18.0812375 10.1085364 18.4631224z"/>
  </g>
</svg>
