<svg xmlns="http://www.w3.org/2000/svg" width="24" height="24" viewBox="0 0 24 24">
  <g fill="#FFF" fill-rule="evenodd">
    <path d="M11.007742 8.25084964C10.4185058 8.73511309 9.9304778 9.34053876 9.58304943 10.0321424 9.39050388 10.0108012 9.19591885 10 9 10 7.05804817 10 5.36235785 11.0543708 4.45416446 12.6218771 3.35086348 12.1424092 2.4680491 11.250859 2 10.1415052 2.55978047 10.377683 3.17501846 10.5082526 3.82075261 10.5082526 6.40958738 10.5082526 8.50825261 8.40958738 8.50825261 5.82075261 8.50825261 5.17501846 8.37768303 4.55978047 8.14150522 4 9.80572543 4.70215361 10.9797759 6.33774169 11.007742 8.25084964zM9 19C6.92893219 19 5.25 17.3210678 5.25 15.25 5.25 13.1789322 6.92893219 11.5 9 11.5 9.55461758 11.5 10.0811139 11.6204015 10.5547769 11.8364924 10.8708597 9.94312945 12.5168994 8.5 14.5 8.5 16.709139 8.5 18.5 10.290861 18.5 12.5 18.5 12.9473885 18.4265511 13.3776221 18.2910537 13.7793003 18.6559242 13.6004278 19.066234 13.5 19.5 13.5 21.0187831 13.5 22.25 14.7312169 22.25 16.25 22.25 17.7687831 21.0187831 19 19.5 19L9 19z"/>
  </g>
</svg>
