<svg xmlns="http://www.w3.org/2000/svg" width="24" height="24" viewBox="0 0 24 24">
  <g fill="#FFF" fill-rule="evenodd">
    <path d="M10.007742 6.25084964C9.41850582 6.73511309 8.9304778 7.34053876 8.58304943 8.0321424 8.39050388 8.01080117 8.19591885 8 8 8 6.05804817 8 4.36235785 9.05437084 3.45416446 10.6218771 2.35086348 10.1424092 1.4680491 9.25085901 1 8.14150522 1.55978047 8.37768303 2.17501846 8.50825261 2.82075261 8.50825261 5.40958738 8.50825261 7.50825261 6.40958738 7.50825261 3.82075261 7.50825261 3.17501846 7.37768303 2.55978047 7.14150522 2 8.80572543 2.70215361 9.97977589 4.33774169 10.007742 6.25084964zM8 17C5.92893219 17 4.25 15.3210678 4.25 13.25 4.25 11.1789322 5.92893219 9.5 8 9.5 8.55461758 9.5 9.08111389 9.62040147 9.55477694 9.83649241 9.87085973 7.94312945 11.5168994 6.5 13.5 6.5 15.709139 6.5 17.5 8.290861 17.5 10.5 17.5 10.9473885 17.4265511 11.3776221 17.2910537 11.7793003 17.6559242 11.6004278 18.066234 11.5 18.5 11.5 20.0187831 11.5 21.25 12.7312169 21.25 14.25 21.25 15.7687831 20.0187831 17 18.5 17L8 17z"/>
    <path fill-rule="nonzero" d="M9.10853642 19.4631224L8.05853623 21.9625731C7.89810929 22.344458 8.07763644 22.7840886 8.45952134 22.9445155 8.84140623 23.1049425 9.28103684 22.9254153 9.44146377 22.5435304L10.491464 20.0440797C10.6518909 19.6621948 10.4723637 19.2225642 10.0904789 19.0621373 9.70859396 18.9017104 9.26896336 19.0812375 9.10853642 19.4631224zM14.1085364 18.4631224L13.0585362 20.9625731C12.8981093 21.344458 13.0776364 21.7840886 13.4595213 21.9445155 13.8414062 22.1049425 14.2810368 21.9254153 14.4414638 21.5435304L15.491464 19.0440797C15.6518909 18.6621948 15.4723637 18.2225642 15.0904789 18.0621373 14.708594 17.9017104 14.2689634 18.0812375 14.1085364 18.4631224z"/>
  </g>
</svg>
