<svg xmlns="http://www.w3.org/2000/svg" width="24" height="24" viewBox="0 0 24 24">
  <g fill="#FFF" fill-rule="evenodd">
    <path fill-rule="nonzero" d="M10.875,16.63 L10.875,20.37 C10.875,20.715178 11.154822,20.995 11.5,20.995 C11.845178,20.995 12.125,20.715178 12.125,20.37 L12.125,16.63 C12.125,16.284822 11.845178,16.005 11.5,16.005 C11.154822,16.005 10.875,16.284822 10.875,16.63 Z"/>
    <path fill-rule="nonzero" d="M10.1930325,17.0237341 L13.4319675,18.8937341 C14.1536553,19.3104008 13.5286553,20.3929325 12.8069675,19.9762659 L9.56803249,18.1062659 C8.84634466,17.6895992 9.47134466,16.6070675 10.1930325,17.0237341 Z"/>
    <path fill-rule="nonzero" d="M13.4319675,18.1062659 L10.1930325,19.9762659 C9.47134466,20.3929325 8.84634466,19.3104008 9.56803249,18.8937341 L12.8069675,17.0237341 C13.5286553,16.6070675 14.1536553,17.6895992 13.4319675,18.1062659 Z"/>
    <path d="M7,15 C4.790861,15 3,13.209139 3,11 C3,8.790861 4.790861,7 7,7 C7.41665567,7 7.81843235,7.06370454 8.19612127,7.18190486 C8.75960062,5.33975064 10.4733425,4 12.5,4 C14.9852814,4 17,6.01471863 17,8.5 C17,8.73456947 16.9820524,8.96494706 16.9474555,9.18983445 C17.2749642,9.06711064 17.6296448,9 18,9 C19.6568542,9 21,10.3431458 21,12 C21,13.6568542 19.6568542,15 18,15 L7,15 Z"/>
  </g>
</svg>
