<svg xmlns="http://www.w3.org/2000/svg" width="24" height="24" viewBox="0 0 24 24">
  <g fill="#FFF" fill-rule="evenodd">
    <polygon points="12.201 15 11.81 15.976 15 16 11 23 11 18 8 18 8.6 15"/>
    <path fill-rule="nonzero" d="M5.10853642 16.4631224L4.05853623 18.9625731C3.89810929 19.344458 4.07763644 19.7840886 4.45952134 19.9445155 4.84140623 20.1049425 5.28103684 19.9254153 5.44146377 19.5435304L6.49146396 17.0440797C6.6518909 16.6621948 6.47236375 16.2225642 6.09047885 16.0621373 5.70859396 15.9017104 5.26896336 16.0812375 5.10853642 16.4631224zM17.1085364 15.4631224L16.0585362 17.9625731C15.8981093 18.344458 16.0776364 18.7840886 16.4595213 18.9445155 16.8414062 19.1049425 17.2810368 18.9254153 17.4414638 18.5435304L18.491464 16.0440797C18.6518909 15.6621948 18.4723637 15.2225642 18.0904789 15.0621373 17.708594 14.9017104 17.2689634 15.0812375 17.1085364 15.4631224z"/>
    <path d="M7,14 C4.790861,14 3,12.209139 3,10 C3,7.790861 4.790861,6 7,6 C7.41665567,6 7.81843235,6.06370454 8.19612127,6.18190486 C8.75960062,4.33975064 10.4733425,3 12.5,3 C14.9852814,3 17,5.01471863 17,7.5 C17,7.73456947 16.9820524,7.96494706 16.9474555,8.18983445 C17.2749642,8.06711064 17.6296448,8 18,8 C19.6568542,8 21,9.34314575 21,11 C21,12.6568542 19.6568542,14 18,14 L7,14 Z"/>
  </g>
</svg>
